SplineFontDB: 3.0
FontName: Russkopis-Zhirny
FullName: Russkopis Bold Italic
FamilyName: Russkopis
Weight: Italic
Copyright: George Douros; 2010\nAndrey V. Panov (C) 2005\nMihailJP (c) 2011
UComments: "2011-3-31: Created." 
Version: 0.1.0
ItalicAngle: -17
UnderlinePosition: -47
UnderlineWidth: 23
Ascent: 800
Descent: 200
LayerCount: 2
Layer: 0 0 "+gMyXYgAA"  1
Layer: 1 0 "+Uk2XYgAA"  0
XUID: [1021 996 1684862802 11722291]
FSType: 0
OS2Version: 4
OS2_WeightWidthSlopeOnly: 0
OS2_UseTypoMetrics: 1
CreationTime: 1301564673
ModificationTime: 1301981671
PfmFamily: 65
TTFWeight: 700
TTFWidth: 5
LineGap: 90
VLineGap: 90
OS2TypoAscent: 0
OS2TypoAOffset: 1
OS2TypoDescent: 0
OS2TypoDOffset: 1
OS2TypoLinegap: 90
OS2WinAscent: 0
OS2WinAOffset: 1
OS2WinDescent: 0
OS2WinDOffset: 1
HheadAscent: 0
HheadAOffset: 1
HheadDescent: 0
HheadDOffset: 1
OS2Vendor: 'PfEd'
Lookup: 4 0 1 "Cyrillic Accentuation"  {"Cyrillic Accentuation-1"  } ['liga' ('cyrl' <'dflt' > 'latn' <'dflt' > ) ]
MarkAttachClasses: 1
DEI: 91125
LangName: 1049 "" "+BCAEQwRBBEEEOgQ+BD8EOARB" "+BBYEOARABD0ESwQ5 +BBoEQwRABEEEOAQy" 
LangName: 1033 "" "" "Bold Italic" 
GaspTable: 2 24 3 65535 2
Encoding: UnicodeBmp
Compacted: 1
UnicodeInterp: none
NameList: AGL without afii
DisplaySize: -72
AntiAlias: 1
FitToEm: 1
WinInfo: 112 16 4
BeginPrivate: 0
EndPrivate
TeXData: 1 0 -1008098 434110 217055 144703 363856 1048576 144703 783286 444596 497025 792723 393216 433062 380633 303038 157286 324010 404750 52429 2506097 1059062 262144
BeginChars: 65536 226

StartChar: A
Encoding: 65 65 0
Width: 859
VWidth: 487
Flags: W
HStem: -8 14<66.7366 164.419> 95 113<14.991 89.2031> 358 47<399.953 486.903> 683 20G<962 990.5>
VStem: -30 42<49.9529 142> 319 37<219.332 307.612> 560 16<112.993 259.44>
LayerCount: 2
Fore
SplineSet
-30 117 m 0
 -30 167 7 208 58 208 c 0
 88 208 117 185 117 155 c 0
 117 134 108 120 90 111 c 1
 73 105 56 100 39 95 c 1
 21 88 12 77 12 63 c 0
 12 26 71 6 112 6 c 0
 196 6 282 57 372 158 c 1
 337 208 319 255 319 299 c 0
 319 361 354 405 414 405 c 0
 460 405 499 384 531 340 c 1
 618 439 690 511 744 557 c 0
 832 631 918 680 1006 703 c 1
 975 661 951 626 933 596 c 0
 901 544 858 456 805 332 c 0
 752 209 705 112 662 38 c 1
 746 46 813 87 864 163 c 1
 876 155 l 1
 817 73 743 28 652 21 c 1
 640 0 l 1
 606 -1 561 -2 508 -5 c 1
 520 16 529 32 534 44 c 1
 472 65 420 99 382 146 c 1
 289 43 199 -8 112 -8 c 0
 35 -8 -30 43 -30 117 c 0
356 245 m 0
 356 223 365 198 383 170 c 1
 520 328 l 1
 502 348 480 358 455 358 c 0
 400 358 356 301 356 245 c 0
392 158 m 1
 428 114 477 81 538 58 c 1
 553 105 560 148 560 188 c 0
 560 239 550 281 530 314 c 1
 392 158 l 1
541 327 m 1
 564 290 576 242 576 186 c 0
 576 164 574 138 569 110 c 1
 607 169 647 231 687 298 c 2
 765 428 l 1
 809 495 872 576 957 673 c 1
 879 640 803 589 729 523 c 0
 686 485 624 420 541 327 c 1
EndSplineSet
Validated: 1
EndChar

StartChar: B
Encoding: 66 66 1
Width: 845
VWidth: 487
Flags: W
HStem: -8 15<127.815 223.333 552.623 588.358> 99 118<60.7798 136.8> 301 23<182.886 255.651> 339 37<600.343 685.204> 686 15<513.164 697.236 819.499 848.538>
VStem: 17 42<56.3514 151> 122 15<365.872 443.799> 437 13<561.432 601> 510 16<32.4181 97.3713> 725 106<169.952 289.138> 799 94<478.189 613.566>
LayerCount: 2
Fore
SplineSet
17 125 m 0xffa0
 17 177 52 217 104 217 c 0
 137 217 166 194 166 163 c 0
 166 143 157 128 138 118 c 1
 112 109 112 108 86 99 c 0
 67 92 59 83 59 71 c 0
 59 31 132 7 178 7 c 0
 229 7 274 29 312 72 c 0
 336 99 362 143 391 204 c 2
 454 336 l 2
 503 438 556 516 612 569 c 0
 650 605 695 637 748 665 c 1
 710 679 665 686 613 686 c 0
 533 686 457 673 382 646 c 0
 298 616 234 573 188 519 c 0
 154 479 137 439 137 400 c 0
 137 358 166 324 208 324 c 0
 232 324 260 334 293 355 c 0
 367 404 428 493 437 601 c 1
 450 604 l 1
 455 574 457 550 457 531 c 0
 457 471 442 421 411 381 c 0
 370 327 315 301 245 301 c 0
 176 301 122 334 122 400 c 0
 122 442 140 484 176 527 c 0
 263 630 427 701 616 701 c 0
 670 701 723 694 775 679 c 1
 793 687 817 695 847 703 c 1
 851 688 l 1
 829 682 810 676 795 670 c 1
 860 641 893 600 893 546 c 0xffa0
 893 505 871 467 828 432 c 0
 804 413 764 390 708 362 c 1
 790 329 831 281 831 217 c 0
 831 162 804 111 749 63 c 0
 696 16 641 -7 585 -7 c 0
 544 -7 510 20 510 61 c 0
 510 119 545 167 615 205 c 1
 623 191 l 1
 580 168 526 119 526 60 c 0
 526 34 545 10 570 10 c 0
 596 10 627 37 662 91 c 0
 704 155 725 217 725 276 c 0xffc0
 725 311 713 338 687 354 c 1
 660 344 638 339 620 339 c 0
 607 339 600 344 600 354 c 0
 600 369 613 376 639 376 c 0
 653 376 669 374 686 369 c 1
 718 381 745 410 768 457 c 0
 789 499 799 539 799 577 c 256
 799 615 787 642 764 657 c 1
 712 628 672 590 646 541 c 0
 632 515 614 462 592 383 c 2
 572 311 l 2
 523 137 398 -8 192 -8 c 0
 96 -8 17 36 17 125 c 0xffa0
EndSplineSet
Validated: 1
EndChar

StartChar: C
Encoding: 67 67 2
Width: 747
VWidth: 487
Flags: W
HStem: -8 14<430.136 526.204> 284 18<604.127 666.75> 688 17<370.401 494.545> 690 16<760.092 823.511>
VStem: 144 50<426.31 551.515> 270 107<94.5036 207.396> 493 14<99 131.009> 704 17<159.982 246.422> 844 35<593.247 673.391>
LayerCount: 2
Fore
SplineSet
144 505 m 0xdf80
 144 544 158 580 186 613 c 0
 237 674 314 705 417 705 c 0
 440 705 466 703 496 699 c 1
 494 684 l 1
 475 687 453 688 430 688 c 0xef80
 377 688 329 671 286 635 c 0
 225 584 194 528 194 466 c 256
 194 404 236 366 321 350 c 1
 408 480 559 622 706 683 c 0
 743 698 773 706 796 706 c 0
 844 706 879 668 879 620 c 0
 879 562 840 506 762 451 c 0
 700 407 632 376 561 356 c 0
 538 350 503 343 456 335 c 1
 430 283 412 244 403 220 c 0
 386 176 377 135 377 97 c 0
 377 36 410 6 475 6 c 0
 568 6 648 67 683 131 c 0
 697 157 704 183 704 208 c 0
 704 248 679 284 640 284 c 0
 614 284 587 270 562 243 c 0
 533 212 515 164 507 99 c 1
 493 99 l 1
 486 126 483 149 483 166 c 0
 483 241 549 302 625 302 c 0
 679 302 721 263 721 209 c 0
 721 158 697 110 651 65 c 0
 601 16 542 -8 475 -8 c 0
 420 -8 372 9 332 45 c 0
 290 82 270 129 270 183 c 0
 270 229 284 279 314 336 c 1
 225 351 144 409 144 505 c 0xdf80
465 351 m 1
 500 358 527 363 546 369 c 0
 643 397 725 454 790 538 c 0
 826 585 844 621 844 648 c 0
 844 672 822 690 796 690 c 0xdf80
 718 690 607 577 465 351 c 1
EndSplineSet
Validated: 1
EndChar

StartChar: D
Encoding: 68 68 3
Width: 836
VWidth: 487
Flags: W
HStem: -7 15<208.175 320.237 532 609.952> 93 16<166.701 251.8> 237 15<253.455 345.5> 684 14<473.644 611.99>
VStem: 132 16<40.5252 80.2426> 137 64<315.946 453.956> 517 16<472.746 589> 835 22<299.017 461.307>
LayerCount: 2
Fore
SplineSet
132 59 m 0xfb
 132 93 164 109 227 109 c 0
 277 109 337 96 407 69 c 1
 430 94 453 130 476 178 c 2
 538 304 l 2
 600 432 671 530 750 599 c 1
 717 630 686 651 655 664 c 0
 623 677 586 684 542 684 c 0
 416 684 318 627 252 513 c 0
 217 454 201 399 201 349 c 0
 201 285 233 252 296 252 c 0
 361 252 414 286 458 353 c 0
 497 412 517 476 517 544 c 0
 517 555 516 570 514 589 c 1
 530 589 l 1
 532 570 533 556 533 546 c 0
 533 474 512 406 470 343 c 0
 423 272 365 237 296 237 c 0
 203 237 137 309 137 402 c 0xf7
 137 478 181 547 270 610 c 0
 351 668 442 698 542 698 c 0
 629 698 703 669 763 610 c 1
 789 632 818 650 852 664 c 1
 858 650 l 1
 824 636 797 619 778 597 c 1
 806 562 826 531 837 506 c 0
 851 475 857 439 857 400 c 0
 857 334 843 267 816 199 c 0
 761 62 672 -7 550 -7 c 0
 514 -7 472 2 425 22 c 1
 363 2 313 -7 274 -7 c 0
 215 -7 132 11 132 59 c 0xfb
148 59 m 0xfb
 148 22 222 8 268 8 c 0
 306 8 342 19 376 42 c 1
 295 76 236 93 199 93 c 0
 165 93 148 82 148 59 c 0xfb
469 44 m 1
 514 23 551 12 580 12 c 0
 617 12 656 27 698 58 c 0
 740 89 774 136 800 198 c 0
 824 256 835 313 835 370 c 0
 835 451 813 521 766 582 c 1
 746 556 727 514 712 459 c 2
 666 290 l 1
 648 235 626 190 600 155 c 0
 568 113 525 76 469 44 c 1
EndSplineSet
Validated: 1
EndChar

StartChar: E
Encoding: 69 69 4
Width: 586
VWidth: 487
Flags: W
HStem: -9 15<274.76 388.458> 272 19<452.6 518.585> 362 15<461.147 510.535> 411 15<420.944 491.298> 442 14<567.539 619.632> 684 20<524.311 605.231>
VStem: 86 114<106.204 239.678> 301 97<463.839 575.444> 330 27<83.9375 161.656> 512 27<377.636 400.95> 519 27<472.222 556.46> 553 17<157.841 237.864> 682 16<529.289 615.341>
LayerCount: 2
Fore
SplineSet
86 192 m 0xfed8
 86 326 229 398 360 420 c 1
 321 455 301 494 301 537 c 0
 301 646 421 704 535 704 c 0
 630 704 698 662 698 572 c 0
 698 507 651 442 588 442 c 0
 546 442 519 476 519 518 c 0
 519 557 545 592 596 623 c 1
 605 612 l 1
 565 578 546 542 546 504 c 0
 546 478 564 456 590 456 c 0
 643 456 682 517 682 573 c 0
 682 635 638 684 576 684 c 0
 530 684 489 663 452 622 c 0
 416 582 398 538 398 492 c 0xff38
 398 469 404 446 415 425 c 1
 425 425 432 426 436 426 c 0
 472 426 539 414 539 386 c 0
 539 370 526 362 500 362 c 0
 467 362 430 375 387 400 c 1
 332 382 286 347 251 294 c 0
 217 243 200 188 200 129 c 0
 200 47 243 6 328 6 c 0
 439 6 518 71 545 158 c 0
 550 175 553 188 553 200 c 0
 553 241 528 272 489 272 c 0
 464 272 439 260 416 236 c 0
 378 197 358 147 357 83 c 1
 342 83 l 1
 334 103 330 123 330 143 c 0
 330 225 394 291 476 291 c 0
 528 291 570 254 570 202 c 0
 570 154 551 108 512 67 c 0
 464 16 402 -9 326 -9 c 0
 262 -9 208 8 163 43 c 0
 112 83 86 132 86 192 c 0xfed8
426 409 m 1
 448 388 470 377 493 377 c 0
 505 377 512 382 512 389 c 0xfe58
 512 402 469 411 451 411 c 0
 444 411 435 410 426 409 c 1
EndSplineSet
Validated: 1
EndChar

StartChar: F
Encoding: 70 70 5
Width: 689
VWidth: 487
Flags: W
HStem: -10 16<163.848 261.513> 97 117<104.322 184.686> 299 17<231.573 294.832> 397 16<719.755 745.71> 598 72<695.753 862.198> 674 29<464.834 589.284>
VStem: 57 45<53.6527 146> 168 17<362.55 455.07> 435 35<476.33 575.14> 746 17<363.499 396.506>
LayerCount: 2
Fore
SplineSet
57 121 m 0
 57 171 95 214 145 214 c 0
 176 214 208 189 208 160 c 0
 208 140 198 126 180 116 c 1
 163 109 146 103 129 97 c 0
 111 90 102 79 102 65 c 0
 102 53 111 40 130 28 c 0
 152 13 180 6 213 6 c 0
 264 6 309 28 346 70 c 0
 368 96 394 139 423 201 c 2
 457 272 l 1
 394 263 337 235 288 186 c 1
 277 197 l 1
 307 226 336 247 362 260 c 0
 390 274 424 284 464 289 c 1
 534 433 613 532 703 588 c 1
 714 578 l 1
 695 564 681 549 672 531 c 0
 661 510 647 465 630 399 c 2
 603 296 l 1
 622 298 640 302 659 309 c 1
 672 343 682 365 687 374 c 0
 702 400 718 413 737 413 c 0
 754 413 763 404 763 387 c 0
 763 372 756 356 741 341 c 0
 736 336 722 325 699 308 c 1
 698 254 688 212 669 181 c 1
 638 176 611 170 588 164 c 1
 612 202 634 245 652 291 c 1
 634 285 616 282 598 280 c 1
 586 233 565 187 532 143 c 0
 456 41 355 -10 231 -10 c 0
 172 -10 128 4 97 33 c 0
 70 58 57 87 57 121 c 0
168 400 m 0
 168 467 203 530 271 589 c 0
 359 665 463 703 583 703 c 0
 617 703 647 700 675 695 c 0
 764 678 821 670 843 670 c 0
 871 670 896 680 918 700 c 1
 930 691 l 1
 889 629 842 598 792 598 c 0
 759 598 714 611 654 636 c 0
 594 661 546 674 511 674 c 0
 401 674 291 600 236 532 c 0
 201 489 185 445 185 401 c 0
 185 355 217 316 262 316 c 0
 299 316 340 349 384 415 c 0
 418 466 435 511 435 551 c 0
 435 570 430 591 421 613 c 1
 436 617 l 1
 459 566 470 520 470 481 c 0
 470 430 451 387 413 352 c 0
 375 317 330 299 279 299 c 0
 215 299 168 337 168 400 c 0
701 329 m 1
 731 351 746 369 746 386 c 0
 746 393 742 397 734 397 c 0
 718 397 708 375 701 329 c 1
EndSplineSet
Validated: 1
EndChar

StartChar: G
Encoding: 71 71 6
Width: 712
VWidth: 487
Flags: W
HStem: -12 17<332.707 434.053> 113 97<310 348.215> 221 14<451.85 542.709> 283 15<274.653 358> 678 19<352.14 381.4 652.189 716.694>
VStem: 129 52<381.949 522.149> 212 48<57.8348 147.5> 743 21<580.35 655.421>
LayerCount: 2
Fore
SplineSet
129 465 m 0
 129 592 262 668 380 695 c 1
 383 682 l 1
 330 670 287 644 254 604 c 0
 205 546 181 485 181 423 c 0
 181 344 246 298 328 298 c 0
 339 298 349 299 358 300 c 1
 340 330 332 363 332 400 c 0
 332 476 365 543 431 600 c 0
 506 665 586 697 672 697 c 0
 724 697 764 666 764 615 c 0
 764 568 738 516 684 459 c 0
 620 391 552 343 482 315 c 0
 456 305 430 297 402 290 c 1
 416 254 446 235 491 235 c 0
 589 235 694 313 756 370 c 1
 767 359 l 1
 742 332 723 303 713 270 c 0
 711 264 703 229 690 166 c 0
 677 105 643 58 587 27 c 0
 539 1 482 -12 414 -12 c 0
 339 -12 284 5 249 40 c 0
 224 65 212 93 212 123 c 0
 212 172 249 210 298 210 c 0
 331 210 360 189 360 156 c 0
 360 136 351 121 334 113 c 1
 286 99 l 2
 269 93 260 82 260 68 c 0
 260 47 276 31 310 19 c 0
 336 10 361 5 386 5 c 0
 422 5 454 17 480 41 c 0
 497 57 518 85 541 124 c 2
 574 182 l 2
 590 209 614 239 648 272 c 1
 587 238 537 221 495 221 c 0
 451 221 408 242 369 285 c 1
 348 283 335 283 327 283 c 0
 275 283 229 300 190 334 c 0
 150 370 129 414 129 465 c 0
399 305 m 1
 492 323 575 371 646 451 c 0
 711 523 743 583 743 630 c 0
 743 659 720 678 691 678 c 0
 590 678 470 493 429 405 c 0
 413 370 402 336 399 305 c 1
EndSplineSet
Validated: 1
EndChar

StartChar: H
Encoding: 72 72 7
Width: 823
VWidth: 487
Flags: W
HStem: -9 15<78.3282 176.22 615.067 663.589> 103 113<9.36182 93.8022> 418 18<319.5 365.963> 591 14<311.809 349.661> 686 14<957.233 1015.15>
VStem: -33 40<56.685 147> 287 52<436.326 469.456> 350 48<551.173 590.632> 541 72<16 134.5> 1030 32<607.373 674.877>
LayerCount: 2
Fore
SplineSet
-33 122 m 0
 -33 172 1 216 51 216 c 0
 82 216 116 194 116 164 c 0
 116 146 109 131 94 119 c 0
 90 116 72 110 41 103 c 0
 18 97 7 87 7 71 c 0
 7 51 23 34 55 21 c 0
 80 11 104 6 128 6 c 0
 195 6 250 43 293 118 c 0
 314 154 337 199 363 252 c 1
 303 228 244 193 188 147 c 1
 179 158 l 1
 236 207 299 244 371 270 c 1
 426 383 485 477 547 551 c 1
 492 508 458 482 445 473 c 0
 393 437 355 418 332 418 c 0
 307 418 287 439 287 464 c 0
 287 484 297 509 318 537 c 0
 339 565 350 580 350 582 c 0
 350 588 345 591 338 591 c 0
 297 591 229 533 135 418 c 1
 123 425 l 1
 216 545 290 605 344 605 c 0
 374 605 398 581 398 552 c 0
 398 530 389 505 369 480 c 0
 349 455 339 442 339 440 c 0
 339 437 342 436 346 436 c 0
 355 436 372 443 396 458 c 1
 460 505 l 1
 653 651 l 1
 661 641 l 1
 625 605 593 553 567 486 c 1
 508 314 l 5
 507 310 l 5
 615 345 l 5
 655 412 689 463 718 498 c 0
 827 633 919 700 993 700 c 0
 1034 700 1062 668 1062 627 c 0
 1062 527 911 440 819 400 c 0
 803 393 776 382 738 367 c 1
 654 177 613 61 613 21 c 0
 613 11 619 6 632 6 c 0
 698 6 793 113 828 163 c 1
 841 155 l 1
 797 95 707 -9 629 -9 c 0
 569 -9 541 52 541 117 c 0
 541 152 547 188 560 225 c 0
 567 246 582 279 604 324 c 5
 569 314 535 303 502 292 c 5
 456 152 378 61 268 16 c 0
 226 -1 182 -9 136 -9 c 0
 47 -9 -33 37 -33 122 c 0
748 385 m 1
 816 413 868 442 905 470 c 0
 952 506 989 552 1016 609 c 0
 1025 629 1030 644 1030 656 c 0
 1030 673 1011 686 994 686 c 0
 945 686 897 651 852 583 c 0
 823 540 789 474 748 385 c 1
EndSplineSet
Validated: 1
EndChar

StartChar: I
Encoding: 73 73 8
Width: 577
VWidth: 487
Flags: W
HStem: -12 17<80.1711 181.234> 113 101<70.7333 109.777> 686 15<715.208 758>
VStem: -26 41<52.5483 145.5> 195 57<295.619 395.336> 631 16<353.653 452.1>
LayerCount: 2
Fore
SplineSet
-26 120 m 0
 -26 171 10 214 62 214 c 0
 95 214 123 190 123 158 c 0
 123 137 114 122 95 113 c 1
 43 98 l 2
 24 92 15 82 15 67 c 0
 15 48 30 32 60 20 c 0
 84 10 106 5 129 5 c 0
 182 5 228 27 265 71 c 0
 280 88 306 133 345 205 c 1
 267 225 195 284 195 374 c 0
 195 523 372 616 510 660 c 0
 592 686 675 700 758 701 c 1
 758 686 l 1
 713 686 676 667 648 630 c 0
 625 600 603 554 582 491 c 0
 574 466 559 415 538 339 c 0
 530 309 517 274 501 234 c 1
 566 262 631 317 631 400 c 0
 631 412 629 430 625 452 c 1
 641 453 l 1
 645 430 647 412 647 400 c 0
 647 307 569 240 492 214 c 1
 442 113 367 45 268 10 c 0
 226 -5 184 -12 142 -12 c 0
 98 -12 60 -1 28 20 c 0
 -8 44 -26 78 -26 120 c 0
252 311 m 0
 252 262 285 230 352 218 c 1
 437 395 l 1
 504 525 570 617 687 682 c 1
 554 663 475 638 389 558 c 0
 335 509 295 452 269 387 c 0
 258 360 252 334 252 311 c 0
EndSplineSet
Validated: 1
EndChar

StartChar: J
Encoding: 74 74 9
Width: 530
VWidth: 487
Flags: W
HStem: -216 15<16.0066 67.0046> -138 15<349 382.271> 235 15<248.082 317.084> 684 14<749.634 792>
VStem: -42 30<-173.84 -88.972> 181 35<286.158 371.217> 526 16<-19.3071 50.7467>
LayerCount: 2
Fore
SplineSet
-42 -114 m 0
 -42 15 155 90 290 116 c 1
 436 367 l 2
 480 443 519 502 554 544 c 0
 603 603 657 648 716 680 c 1
 649 676 596 668 559 657 c 0
 496 638 432 601 371 548 c 0
 310 495 265 438 236 378 c 0
 223 350 216 326 216 306 c 0
 216 271 245 250 281 250 c 0
 298 250 315 255 333 265 c 1
 340 251 l 1
 320 240 301 235 282 235 c 0
 218 235 181 291 181 358 c 0
 181 497 294 599 520 664 c 0
 593 685 683 696 792 698 c 1
 792 684 l 1
 745 684 704 661 667 616 c 0
 640 583 611 532 581 465 c 0
 575 452 552 397 514 301 c 0
 482 222 456 161 435 117 c 1
 493 111 542 77 542 16 c 0
 542 -71 436 -124 349 -138 c 1
 349 -123 l 1
 394 -115 428 -104 451 -90 c 0
 501 -60 526 -24 526 17 c 0
 526 68 480 101 428 103 c 1
 355 -34 216 -216 42 -216 c 0
 -11 -216 -42 -168 -42 -114 c 0
-12 -146 m 0
 -12 -177 12 -201 43 -201 c 0
 91 -201 170 -101 281 99 c 1
 217 87 154 57 92 10 c 0
 23 -42 -12 -94 -12 -146 c 0
EndSplineSet
Validated: 1
EndChar

StartChar: K
Encoding: 75 75 10
Width: 816
VWidth: 487
Flags: W
HStem: -8 15<78.6999 184.147> -5 35<613 693.002> 114 99<64.7333 105.089> 322 41<549.251 615.158> 417 17<324 371.859> 588 16<315.477 352.774> 686 14<973.025 1013>
VStem: -31 40<52.6576 145> 290 52<434.402 470.526> 353 47<548.609 587.575> 555 122<30.3058 164.16> 625 67<212.5 309.225>
LayerCount: 2
Fore
SplineSet
-31 118 m 0xbfc0
 -31 172 4 213 58 213 c 0
 90 213 117 190 117 158 c 0
 117 137 108 123 89 114 c 1
 37 99 l 2
 18 93 9 82 9 67 c 0
 9 46 25 31 58 20 c 0
 82 12 107 7 133 7 c 0
 180 7 220 23 253 56 c 0
 280 83 315 141 356 232 c 0
 412 355 475 460 546 547 c 1
 487 497 436 460 394 436 c 0
 372 424 352 417 336 417 c 0
 312 417 290 437 290 461 c 0
 290 481 300 505 321 534 c 0
 342 563 353 578 353 579 c 0
 353 586 348 588 340 588 c 0
 300 588 234 532 143 417 c 1
 130 426 l 1
 226 544 299 604 350 604 c 0
 378 604 400 584 400 556 c 0
 400 533 390 508 371 481 c 0
 352 454 342 440 342 439 c 0
 342 436 344 434 349 434 c 0
 367 434 410 460 477 511 c 0
 551 567 611 621 657 673 c 1
 669 664 l 1
 624 613 588 544 561 456 c 2
 494 239 l 1
 439 104 320 -8 143 -8 c 0
 49 -8 -31 31 -31 118 c 0xbfc0
549 339 m 0
 549 355 560 363 584 363 c 0
 591 363 605 360 624 354 c 1
 649 364 670 380 687 403 c 0
 696 416 709 439 725 474 c 0
 792 614 888 689 1013 700 c 1
 1013 686 l 1
 980 684 953 676 931 663 c 0
 904 647 877 617 852 571 c 1
 815 506 790 465 778 450 c 0
 742 403 696 368 639 344 c 1
 675 316 692 275 692 222 c 0x7fd0
 692 203 688 154 679 75 c 0
 678 64 677 55 677 50 c 0
 677 37 681 30 688 30 c 0
 713 30 758 74 821 163 c 1
 833 155 l 1
 755 48 690 -5 637 -5 c 0
 589 -5 555 35 555 83 c 256x7fe0
 555 107 567 145 590 196 c 0
 613 247 625 285 625 307 c 0x7fd0
 625 315 622 323 616 333 c 1
 598 325 582 322 570 322 c 0
 556 322 549 327 549 339 c 0
EndSplineSet
Validated: 1
EndChar

StartChar: L
Encoding: 76 76 11
Width: 714
VWidth: 487
Flags: W
HStem: -9 14<119.098 228.711> -4 17<456.631 547.052> 110 15<98.2196 195.163> 259 15<311.644 390.519> 683 15<436.896 567.179 712.591 798.187>
VStem: 42 15<40.8694 80.4424> 166 58<362.972 514.588> 810 42<567.611 671.423>
LayerCount: 2
Fore
SplineSet
42 61 m 0xbf
 42 105 92 125 140 125 c 0
 182 125 238 111 307 83 c 1
 331 129 359 187 391 260 c 1
 380 259 370 259 363 259 c 0
 310 259 264 277 225 314 c 0
 186 351 166 396 166 448 c 0
 166 519 205 579 283 630 c 0
 353 675 425 698 500 698 c 0
 526 698 554 694 584 687 c 1
 580 673 l 1
 552 680 526 683 502 683 c 0
 425 683 359 656 306 602 c 0
 251 546 224 482 224 408 c 0
 224 320 277 274 365 274 c 0
 374 274 384 274 397 276 c 1
 490 493 585 628 682 680 c 0
 711 696 738 703 761 703 c 0
 811 703 852 665 852 615 c 0
 852 562 815 500 741 427 c 0
 678 365 617 321 557 292 c 1
 536 281 l 1
 497 170 460 116 375 53 c 1
 431 26 476 13 510 13 c 0
 576 13 645 63 719 163 c 1
 731 155 l 1
 650 49 572 -4 497 -4 c 0x7f
 462 -4 414 11 352 40 c 1
 299 7 240 -9 176 -9 c 0
 118 -9 42 13 42 61 c 0xbf
57 61 m 0
 57 22 124 5 171 5 c 0xbf
 240 5 265 22 297 67 c 1
 232 95 180 110 140 110 c 0
 105 110 57 93 57 61 c 0
541 301 m 1
 658 357 742 447 792 573 c 0
 804 604 810 627 810 643 c 0
 810 673 793 688 759 688 c 0
 718 688 681 662 648 610 c 0
 624 572 602 516 581 445 c 1
 541 301 l 1
EndSplineSet
Validated: 1
EndChar

StartChar: M
Encoding: 77 77 12
Width: 1020
VWidth: 487
Flags: W
HStem: -9 15<55.3249 160.501 827.704 881.36> 107 103<48.4167 98.7458>
VStem: -38 37<47.7846 136.5> 774 76<18 140>
LayerCount: 2
Fore
SplineSet
-38 110 m 0
 -38 163 -1 210 51 210 c 0
 83 210 111 187 111 156 c 0
 111 135 100 119 77 107 c 1
 28 95 l 2
 8 90 -1 80 -1 64 c 0
 -1 24 61 6 107 6 c 0
 161 6 211 26 258 66 c 0
 287 91 320 128 358 174 c 2
 643 526 l 1
 710 601 765 654 808 685 c 0
 819 693 827 697 832 697 c 0
 841 697 846 693 846 686 c 0
 846 682 843 676 839 669 c 0
 788 579 730 453 668 291 c 0
 623 172 611 145 575 26 c 1
 595 47 639 108 707 212 c 0
 840 414 964 562 1081 655 c 0
 1116 683 1140 697 1153 697 c 0
 1162 697 1167 693 1167 686 c 0
 1167 679 1160 668 1149 652 c 0
 1130 625 1108 592 1085 551 c 0
 1058 503 1037 463 1020 428 c 0
 907 192 850 57 850 23 c 0
 850 13 855 8 864 8 c 0
 907 8 998 125 1025 163 c 1
 1039 155 l 5
 957 45 895 -10 852 -10 c 0
 803 -10 774 48 774 100 c 0
 774 180 819 282 909 406 c 0
 952 466 1027 554 1133 672 c 1
 1012 594 874 439 720 204 c 1
 640 85 l 2
 631 71 616 51 596 25 c 1
 576 3 559 -9 547 -9 c 0
 536 -9 526 -2 515 13 c 0
 502 30 496 55 496 87 c 0
 496 166 532 266 607 388 c 0
 643 447 708 538 801 660 c 1
 707 580 600 457 478 293 c 2
 410 202 l 2
 384 167 359 138 337 115 c 0
 260 32 183 -9 105 -9 c 0
 26 -9 -38 34 -38 110 c 0
EndSplineSet
Validated: 1
EndChar

StartChar: N
Encoding: 78 78 13
Width: 804
VWidth: 487
Flags: W
HStem: -9 15<56.8127 157.676> 106 102<9.75811 112.525> 542 54<970.091 1055.44> 682 20G<753.5 759.5>
VStem: -32 34<50.801 134.5>
LayerCount: 2
Fore
SplineSet
-32 108 m 0
 -32 161 13 208 66 208 c 0
 98 208 127 182 127 150 c 0
 127 131 118 116 100 106 c 0
 97 104 78 102 41 98 c 0
 15 95 2 84 2 65 c 0
 2 26 61 6 105 6 c 0
 152 6 196 22 236 55 c 0
 271 84 323 148 391 251 c 1
 530 471 l 2
 589 564 655 636 727 687 c 0
 742 697 751 702 756 702 c 0
 763 702 766 699 766 693 c 0
 766 689 765 684 762 678 c 0
 753 659 745 637 740 615 c 0
 735 595 731 551 725 481 c 2
 701 183 l 1
 799 350 l 2
 813 375 836 410 867 458 c 1
 929 550 982 596 1025 596 c 0
 1045 596 1056 587 1056 570 c 0
 1056 551 1044 542 1021 542 c 0
 1014 542 991 543 984 543 c 0
 967 543 950 535 931 516 c 0
 913 499 886 460 849 401 c 0
 812 342 762 257 700 144 c 1
 693 48 l 1
 563 -11 l 1
 574 138 582 254 600 364 c 0
 613 441 630 501 650 546 c 0
 667 582 692 623 725 666 c 1
 656 613 596 546 546 466 c 0
 531 443 502 391 457 312 c 0
 402 217 355 147 316 104 c 0
 248 28 179 -9 106 -9 c 0
 32 -9 -32 37 -32 108 c 0
EndSplineSet
Validated: 1
EndChar

StartChar: O
Encoding: 79 79 14
Width: 581
VWidth: 487
Flags: W
HStem: -11 15<212.675 300.994> 570 15<556.129 618.613> 691 14<567.516 655.281>
VStem: 92 91<46.5 240> 284 15<98 147.427> 638 29<437.083 546.447> 710 18<575.388 649.577>
LayerCount: 2
Fore
SplineSet
92 189 m 0
 92 291 136 390 224 487 c 0
 310 581 465 705 617 705 c 0
 673 705 728 670 728 618 c 0
 728 603 723 583 713 560 c 1
 697 565 l 1
 706 585 710 603 710 617 c 0
 710 663 664 691 616 691 c 0
 556 691 495 659 430 597 c 0
 383 552 337 485 292 397 c 0
 251 317 221 241 201 169 c 0
 189 125 183 91 183 68 c 0
 183 25 205 4 249 4 c 0
 360 4 464 98 561 286 c 0
 612 386 638 463 638 518 c 0
 638 553 622 570 590 570 c 0
 557 570 520 547 476 500 c 0
 441 462 406 409 373 342 c 0
 340 276 319 217 309 164 c 0
 307 153 303 131 299 98 c 1
 284 98 l 1
 291 193 325 293 385 398 c 0
 456 523 525 585 590 585 c 0
 641 585 667 539 667 485 c 0
 667 403 625 309 544 201 c 0
 438 60 340 -11 250 -11 c 0
 148 -11 92 81 92 189 c 0
EndSplineSet
Validated: 1
EndChar

StartChar: P
Encoding: 80 80 15
Width: 709
VWidth: 487
Flags: W
HStem: -10 17<166.567 266.45> 114 101<118.354 197.304> 305 24<222.524 303.668> 688 14<532.308 688.217>
VStem: 59 44<52.1559 147> 161 16<369.767 450.572> 477 21<542.479 610.596> 796 86<466.108 589.834>
LayerCount: 2
Fore
SplineSet
59 121 m 0
 59 173 96 215 148 215 c 0
 180 215 211 191 211 160 c 0
 211 139 202 123 183 114 c 1
 166 109 149 104 131 98 c 0
 112 92 103 82 103 67 c 0
 103 30 170 7 213 7 c 0
 261 7 302 25 339 62 c 0
 371 94 416 173 474 300 c 1
 432 296 392 281 352 253 c 1
 343 264 l 1
 382 294 428 311 481 315 c 1
 557 480 651 593 760 653 c 1
 726 676 677 688 612 688 c 0
 543 688 471 672 397 641 c 0
 318 607 260 565 220 514 c 0
 192 477 177 441 177 407 c 0
 177 360 207 329 254 329 c 0
 304 329 357 365 413 437 c 0
 454 490 476 548 477 612 c 1
 490 612 l 1
 495 582 498 555 498 532 c 0
 498 469 478 416 439 372 c 0
 399 327 348 305 286 305 c 0
 215 305 161 339 161 407 c 0
 161 445 177 484 208 523 c 0
 251 577 312 621 392 655 c 0
 467 687 541 702 614 702 c 0
 675 702 730 690 782 666 c 1
 806 679 833 689 861 696 c 1
 864 683 l 1
 836 675 814 665 797 656 c 1
 853 614 882 568 882 516 c 0
 882 413 776 345 683 322 c 0
 666 318 643 314 612 309 c 1
 582 215 545 146 499 101 c 0
 423 27 335 -10 234 -10 c 0
 140 -10 59 34 59 121 c 0
617 325 m 1
 663 335 701 358 730 393 c 0
 774 447 796 505 796 567 c 0
 796 593 788 618 771 643 c 1
 732 617 701 577 679 527 c 0
 668 503 635 389 617 325 c 1
EndSplineSet
Validated: 1
EndChar

StartChar: Q
Encoding: 81 81 16
Width: 691
VWidth: 487
Flags: W
HStem: -11 59<455.783 576> -9 15<102.531 210.4> 102 34<107.167 209.213> 244 19<214.292 292.83> 683 15<476.61 576.968>
VStem: 54 16<28.5068 80.9612> 150 16<310.84 403.66> 456 33<440.5 576.575> 621 117<469.361 603.532>
LayerCount: 2
Fore
SplineSet
54 54 m 0x7f80
 54 106 127 136 185 136 c 0
 229 136 289 124 366 100 c 1
 444 172 508 260 558 366 c 0
 600 454 621 527 621 584 c 0
 621 650 594 683 538 683 c 0
 479 683 418 664 356 626 c 0
 298 590 253 546 218 494 c 0
 183 442 166 394 166 350 c 0
 166 298 199 263 251 263 c 0
 282 263 310 277 337 304 c 0
 385 354 456 467 456 554 c 0
 456 564 454 578 451 598 c 1
 465 601 l 1
 481 553 489 510 489 471 c 0
 489 410 468 358 424 312 c 0
 380 266 328 244 268 244 c 0
 198 244 150 283 150 352 c 0
 150 399 169 449 206 504 c 0
 268 597 401 698 542 698 c 0
 653 698 738 625 738 516 c 0
 738 441 698 359 617 270 c 0
 556 203 483 142 398 88 c 1
 477 62 531 48 558 48 c 0
 594 48 640 87 696 163 c 1
 709 155 l 1
 629 45 549 -11 468 -11 c 0xbf80
 433 -11 382 5 315 38 c 1
 254 6 199 -9 151 -9 c 0
 103 -9 54 10 54 54 c 0x7f80
70 53 m 0
 70 22 97 6 152 6 c 0x7f80
 197 6 245 19 294 47 c 1
 224 83 171 102 135 102 c 0
 92 102 70 86 70 53 c 0
EndSplineSet
Validated: 1
EndChar

StartChar: R
Encoding: 82 82 17
Width: 891
VWidth: 487
Flags: W
HStem: -9 14<149.945 242.987> 277 22<194.434 266.116> 334 36<620.184 685.345> 683 15<552.165 729.938 845.072 877.25>
VStem: 35 43<54.7771 148> 133 16<341.089 425.076> 441 15<532.361 586> 619 118<18.605 144.897> 695 77<217.5 307.763> 849 100<465.577 597.537>
LayerCount: 2
Fore
SplineSet
35 123 m 0xfec0
 35 173 74 215 124 215 c 0
 155 215 186 189 186 158 c 0
 186 137 177 122 158 114 c 1
 106 99 l 2
 87 93 78 82 78 67 c 0
 78 47 94 32 125 20 c 0
 149 11 172 5 196 5 c 0
 248 5 293 26 331 68 c 0
 357 96 392 158 437 254 c 1
 515 409 l 1
 583 528 669 613 773 664 c 1
 737 677 695 683 646 683 c 0
 565 683 484 667 403 636 c 0
 316 602 248 557 200 500 c 0
 166 460 149 419 149 377 c 0
 149 332 178 299 222 299 c 0
 248 299 277 310 308 333 c 0
 390 393 434 478 441 586 c 1
 456 586 l 1
 461 555 462 527 462 502 c 0
 462 374 378 277 252 277 c 0
 186 277 133 313 133 377 c 0
 133 421 151 465 187 508 c 0
 235 566 304 613 394 648 c 0
 477 681 560 698 642 698 c 0
 693 698 746 690 801 676 c 1
 830 686 855 694 876 700 c 1
 879 686 l 1
 859 680 841 675 823 669 c 1
 907 637 949 591 949 530 c 0
 949 496 934 464 903 432 c 0
 865 392 804 363 721 343 c 1
 755 311 772 273 772 228 c 0xfec0
 772 207 767 174 755 131 c 0
 743 88 737 56 737 35 c 0
 737 24 742 18 749 18 c 0
 776 18 825 66 896 163 c 1
 909 155 l 1
 831 44 764 -12 708 -12 c 0
 656 -12 619 25 619 77 c 0xff40
 619 106 632 145 657 194 c 0
 682 243 695 280 695 303 c 0
 695 314 693 326 686 337 c 1
 672 335 660 334 650 334 c 0
 630 334 620 339 620 349 c 0
 620 363 630 370 651 370 c 0
 666 370 684 364 706 354 c 1
 745 359 779 385 809 432 c 0
 836 475 849 517 849 559 c 0
 849 600 829 632 790 655 c 1
 754 639 725 617 704 589 c 0
 671 546 641 477 613 383 c 1
 605 352 591 307 570 247 c 1
 550 201 525 160 493 122 c 0
 419 35 325 -9 209 -9 c 0
 116 -9 35 34 35 123 c 0xfec0
EndSplineSet
Validated: 1
EndChar

StartChar: S
Encoding: 83 83 18
Width: 698
VWidth: 487
Flags: W
HStem: -10 17<140.432 237.561> 261 15<356.891 421> 688 15<477.744 607.404 765.175 832.491>
VStem: 30 46<52.0886 144.5> 199 58<371.944 505.207> 849 40<571.778 670.228>
LayerCount: 2
Fore
SplineSet
30 119 m 0
 30 170 69 214 120 214 c 0
 152 214 182 188 182 156 c 0
 182 135 172 120 154 112 c 1
 103 97 l 2
 85 91 76 81 76 66 c 0
 76 47 90 32 118 21 c 0
 140 12 162 7 184 7 c 0
 228 7 266 22 298 50 c 0
 323 72 347 104 369 148 c 1
 386 186 403 224 421 261 c 1
 329 262 263 297 224 365 c 0
 207 394 199 423 199 452 c 0
 199 520 238 580 317 633 c 0
 387 680 461 703 537 703 c 0
 563 703 590 700 619 693 c 1
 617 680 l 1
 584 686 559 688 539 688 c 0
 404 688 307 593 271 486 c 0
 262 458 257 431 257 405 c 0
 257 326 315 276 396 276 c 0
 403 276 414 276 428 277 c 1
 468 367 504 438 537 490 c 0
 586 568 638 626 694 664 c 0
 732 690 769 703 802 703 c 0
 852 703 889 662 889 613 c 0
 889 564 854 503 784 432 c 0
 726 373 655 324 571 287 c 1
 549 221 522 168 490 129 c 0
 415 36 320 -10 205 -10 c 0
 160 -10 121 1 88 21 c 0
 49 44 30 77 30 119 c 0
576 305 m 1
 690 358 774 444 827 566 c 0
 841 599 849 625 849 645 c 0
 849 674 833 688 802 688 c 0
 729 688 667 609 617 449 c 0
 607 417 594 369 576 305 c 1
EndSplineSet
Validated: 1
EndChar

StartChar: T
Encoding: 84 84 19
Width: 632
VWidth: 487
Flags: W
HStem: -10 16<152.062 252.721> 301 17<225.578 289.451> 593 73<696.219 866.755> 673 27<453.016 578.712>
VStem: 43 42<55.5371 147.5> 160 15<368.067 449.653> 429 36<475.09 573.602>
LayerCount: 2
Fore
SplineSet
43 122 m 0
 43 173 78 215 129 215 c 0
 161 215 193 190 193 160 c 0
 193 139 184 124 165 115 c 1
 113 98 l 2
 94 92 85 82 85 69 c 0
 85 50 100 34 131 21 c 0
 156 11 180 6 203 6 c 0
 252 6 295 26 331 65 c 0
 355 91 380 132 408 189 c 1
 429 235 463 300 510 386 c 1
 567 476 629 542 698 583 c 1
 706 571 l 1
 683 552 663 521 647 479 c 0
 641 462 631 427 617 373 c 0
 596 294 575 233 553 193 c 0
 507 110 445 53 368 21 c 0
 317 0 265 -10 213 -10 c 0
 123 -10 43 37 43 122 c 0
160 405 m 0
 160 446 176 488 210 532 c 0
 296 644 419 700 577 700 c 0
 616 700 664 694 719 682 c 0
 770 671 809 666 835 666 c 0
 870 666 895 675 912 694 c 1
 924 686 l 1
 897 624 851 593 787 593 c 0
 758 593 715 605 659 630 c 0
 595 658 542 673 498 673 c 0
 394 673 285 598 231 533 c 0
 194 489 175 446 175 404 c 0
 175 359 208 318 253 318 c 0
 294 318 335 347 374 406 c 0
 410 461 429 510 429 554 c 0
 429 563 426 578 421 600 c 1
 434 604 l 1
 455 562 465 522 465 485 c 0
 465 433 446 390 409 354 c 0
 372 318 327 301 275 301 c 0
 207 301 160 339 160 405 c 0
EndSplineSet
Validated: 1
EndChar

StartChar: U
Encoding: 85 85 20
Width: 870
VWidth: 487
Flags: W
HStem: -10 15<412.682 464.686 667 710.08> 242 17<141.973 210.813> 681 15<400.709 521.177>
VStem: 80 16<305.649 395.992> 342 65<21.5 137> 376 33<471.785 581.194> 583 74<505.5 607.723> 619 68<15.5407 81.495>
LayerCount: 2
Fore
SplineSet
80 343 m 0xf6
 80 467 205 592 294 646 c 0
 349 679 405 696 462 696 c 0
 571 696 657 631 657 525 c 0xf6
 657 486 645 443 619 397 c 0
 616 392 603 373 581 340 c 2
 513 242 l 2
 442 139 407 68 407 30 c 0
 407 13 416 5 434 5 c 0
 447 5 462 10 481 20 c 0
 530 45 588 109 654 212 c 1
 786 429 l 2
 824 493 865 555 908 615 c 1
 943 619 983 621 1027 623 c 1
 974 546 922 462 871 372 c 2
 764 181 l 2
 751 159 732 126 708 81 c 1
 694 51 687 30 687 19 c 0
 687 13 690 10 697 10 c 0
 712 10 733 20 761 40 c 0
 802 70 840 111 875 163 c 1
 889 155 l 1
 847 97 762 -8 688 -8 c 0
 646 -8 619 35 619 79 c 0
 619 100 626 128 640 161 c 1
 601 110 570 74 550 54 c 0
 507 12 469 -10 434 -10 c 0
 374 -10 342 53 342 117 c 0xf9
 342 157 354 200 380 247 c 0
 390 265 415 301 455 357 c 0
 495 414 524 458 542 489 c 0
 570 538 583 576 583 605 c 0
 583 659 526 681 465 681 c 0
 378 681 295 642 215 565 c 0
 135 488 96 414 96 343 c 0
 96 296 128 259 175 259 c 0
 221 259 267 298 313 375 c 0
 355 446 376 505 376 554 c 0
 376 561 375 577 372 598 c 1
 387 600 l 1
 402 554 409 512 409 474 c 0
 409 406 384 349 335 303 c 0
 292 262 244 242 190 242 c 0
 125 242 80 279 80 343 c 0xf6
EndSplineSet
Validated: 1
EndChar

StartChar: V
Encoding: 86 86 21
Width: 673
VWidth: 487
Flags: W
HStem: 447 15<282 328.675> 618 16<269.326 305.347> 678 14<989.384 1007.5>
VStem: 243 53<462.124 500.139> 306 47<578.587 617.81>
LayerCount: 2
Fore
SplineSet
82 454 m 1
 114 496 147 532 181 564 c 0
 231 610 271 634 302 634 c 0
 331 634 353 612 353 583 c 0
 353 563 344 539 325 511 c 0
 306 483 296 468 296 467 c 0
 296 463 299 462 305 462 c 0
 326 462 377 493 458 556 c 0
 513 599 563 641 609 682 c 1
 619 673 l 1
 574 608 l 1
 551 571 529 510 508 424 c 0
 495 373 485 335 477 310 c 0
 439 194 379 95 297 13 c 1
 381 58 471 136 565 250 c 1
 689 416 l 2
 762 515 827 586 881 629 c 0
 916 657 957 678 1006 692 c 1
 1009 678 l 1
 949 661 891 624 835 567 c 0
 803 535 760 480 705 403 c 0
 632 303 598 252 529 179 c 0
 461 106 390 48 316 6 c 0
 288 -10 272 -18 265 -18 c 0
 259 -18 255 -15 255 -9 c 0
 255 -8 263 5 278 30 c 0
 294 57 308 106 319 177 c 0
 332 256 335 289 355 345 c 0
 382 420 436 499 513 581 c 1
 380 482 l 1
 345 459 318 447 296 447 c 0
 268 447 243 466 243 493 c 0
 243 512 253 535 274 564 c 0
 295 593 306 609 306 611 c 0
 306 615 302 618 295 618 c 0
 256 618 189 560 94 445 c 1
 82 454 l 1
EndSplineSet
Validated: 1
EndChar

StartChar: W
Encoding: 87 87 22
Width: 955
VWidth: 487
Flags: W
HStem: -12 21G<719 727.5> 249 18<147.692 218.827> 685 18<394.122 500.826>
VStem: 80 15<323.607 416.633> 387 32<426.5 585.647> 551 114<469.555 611.226>
LayerCount: 2
Fore
SplineSet
80 363 m 0
 80 494 212 614 312 664 c 0
 364 690 416 703 469 703 c 0
 555 703 613 670 646 607 c 0
 658 583 665 558 665 531 c 0
 665 414 579 286 405 144 c 2
 253 20 l 1
 403 101 550 222 696 383 c 1
 898 626 l 2
 912 642 926 660 940 678 c 0
 953 695 962 703 967 703 c 0
 975 703 980 699 980 692 c 0
 980 683 890 473 834 324 c 0
 792 214 761 119 740 38 c 1
 802 159 857 254 907 324 c 0
 981 428 1060 504 1141 552 c 1
 1149 540 l 1
 1059 488 969 392 877 252 c 0
 844 202 814 147 783 87 c 1
 775 68 762 41 744 5 c 0
 738 -6 731 -12 724 -12 c 0
 714 -12 702 -2 689 19 c 0
 672 46 663 84 663 133 c 0
 663 184 675 232 697 278 c 0
 720 326 758 387 810 461 c 0
 871 548 911 608 930 641 c 1
 818 500 727 393 658 321 c 0
 554 213 447 123 336 51 c 0
 275 12 239 -8 226 -8 c 0
 216 -8 210 -4 210 4 c 0
 210 9 217 18 232 33 c 0
 392 192 494 344 536 490 c 0
 546 526 551 559 551 587 c 0
 551 652 518 685 451 685 c 0
 374 685 297 651 218 582 c 0
 136 511 95 439 95 363 c 0
 95 310 130 267 181 267 c 0
 225 267 270 303 318 378 c 0
 364 449 387 510 387 559 c 0
 387 569 385 584 382 605 c 1
 396 608 l 1
 412 563 419 521 419 482 c 0
 419 371 351 292 265 261 c 0
 242 253 219 249 198 249 c 0
 128 249 80 293 80 363 c 0
EndSplineSet
Validated: 1
EndChar

StartChar: X
Encoding: 88 88 23
Width: 776
VWidth: 487
Flags: W
HStem: -9 15<133.801 232.342 594.691 627.071> 119 65<76.7343 150.5> 242 19<197.032 273.555> 653 14<891.541 944.243> 685 15<433.002 538.801>
VStem: 47 16<60.3451 116.114> 133 15<316.196 404.774> 432 34<467.651 578.075> 554 17<29.8201 146.185> 595 93<465.213 594.59> 946 70<584.5 645.016>
LayerCount: 2
Fore
SplineSet
47 95 m 0
 47 145 85 184 135 184 c 0
 166 184 198 163 198 131 c 0
 198 100 175 81 144 81 c 0
 128 81 114 87 101 100 c 0
 88 113 81 119 78 119 c 0
 68 119 63 110 63 92 c 0
 63 37 122 6 182 6 c 0
 212 6 239 13 265 26 c 0
 291 39 317 60 345 89 c 0
 441 189 595 417 595 585 c 0
 595 651 560 685 491 685 c 0
 435 685 379 666 324 628 c 0
 250 577 148 462 148 353 c 0
 148 304 182 261 230 261 c 0
 247 261 262 264 275 271 c 0
 305 287 339 324 375 383 c 0
 413 446 432 504 432 555 c 0
 432 568 430 584 426 603 c 1
 441 606 l 1
 458 553 466 509 466 473 c 0
 466 411 444 357 402 312 c 0
 359 266 307 242 245 242 c 0
 179 242 133 288 133 354 c 0
 133 400 152 450 188 507 c 0
 247 598 357 700 490 700 c 0
 555 700 606 677 643 631 c 0
 673 594 688 553 688 507 c 0
 688 487 685 464 679 437 c 1
 723 506 760 557 792 592 c 0
 837 642 883 667 929 667 c 0
 973 667 1016 642 1016 600 c 0
 1016 569 991 544 960 544 c 0
 936 544 912 563 912 587 c 0
 912 601 917 614 929 624 c 0
 941 634 946 640 946 642 c 0
 946 649 940 653 928 653 c 0
 863 653 791 588 715 458 c 0
 619 295 571 167 571 74 c 0
 571 32 584 10 610 10 c 0
 648 10 705 61 781 163 c 1
 794 154 l 1
 712 48 651 -4 611 -4 c 0
 573 -4 554 25 554 84 c 0
 554 134 565 189 588 246 c 1
 498 131 400 53 292 14 c 0
 250 -1 212 -9 178 -9 c 0
 110 -9 47 30 47 95 c 0
EndSplineSet
Validated: 1
EndChar

StartChar: Y
Encoding: 89 89 24
Width: 706
VWidth: 487
Flags: W
HStem: -12 17<291.953 397.309> 111 101<237.86 318.251> 237 15<437.481 486.683> 336 16<141.678 202.639> 685 15<362.684 473.026>
VStem: 105 16<374.4 455.327> 178 45<52.8572 146> 348 13<563.333 603> 368 67<261.5 345> 509 69<553 653>
LayerCount: 2
Fore
SplineSet
105 411 m 0
 105 516 214 623 291 666 c 0
 332 689 375 700 420 700 c 0
 504 700 578 648 578 567 c 0
 578 539 571 512 558 486 c 1
 558 486 435 293 435 266 c 0
 435 257 442 252 455 252 c 0
 503 252 567 307 649 415 c 0
 732 525 776 586 870 664 c 1
 881 654 l 1
 822 587 792 529 763 422 c 2
 721 269 l 1
 687 165 628 87 542 37 c 0
 487 4 426 -12 360 -12 c 0
 266 -12 178 32 178 120 c 0
 178 172 215 212 268 212 c 0
 302 212 331 190 331 156 c 0
 331 135 322 120 303 111 c 1
 286 106 268 101 250 95 c 0
 231 88 223 78 223 63 c 0
 223 52 232 40 250 29 c 0
 275 13 306 5 343 5 c 0
 397 5 443 26 479 68 c 0
 499 90 524 135 557 202 c 2
 653 395 l 1
 617 348 588 314 566 293 c 0
 525 256 487 237 451 237 c 0
 405 237 368 281 368 328 c 0
 368 362 380 400 404 446 c 0
 410 457 433 494 473 556 c 0
 497 594 509 621 509 637 c 0
 509 669 480 685 421 685 c 0
 347 685 279 653 216 591 c 0
 176 551 121 478 121 411 c 0
 121 372 137 352 172 352 c 0
 233 352 293 445 319 499 c 0
 335 532 345 567 348 603 c 1
 361 603 l 1
 363 583 364 570 364 563 c 0
 364 509 347 459 314 413 c 0
 278 362 235 336 183 336 c 256
 131 336 105 361 105 411 c 0
EndSplineSet
Validated: 1
EndChar

StartChar: Z
Encoding: 90 90 25
Width: 687
VWidth: 487
Flags: W
HStem: -216 17<188.223 255.913> 166 20<282.835 348.062> 267 15<321.604 415.02> 625 71<321.1 478> 682 15<848.038 877.2>
VStem: 127 35<-183.926 -97.0873> 155 15<361.683 486.863> 243 34<188.603 241.518> 463 110<79.4374 188.936> 878 18<637.358 681.775>
LayerCount: 2
Fore
SplineSet
127 -125 m 0xedc0
 127 -60 226 -3 426 46 c 1
 451 95 463 141 463 184 c 0
 463 199 461 214 454 227 c 1
 391 187 336 166 291 166 c 0
 267 166 243 180 243 202 c 0
 243 227 259 248 291 263 c 0
 317 275 343 282 372 282 c 0
 406 282 439 274 473 258 c 1
 512 288 543 316 565 341 c 0
 576 353 615 403 682 492 c 1
 674 492 l 2
 647 492 613 503 571 526 c 1
 459 591 l 1
 413 614 372 625 335 625 c 0
 286 625 246 604 214 562 c 0
 185 524 170 479 170 428 c 0
 170 408 173 383 179 353 c 1
 164 351 l 1
 158 381 155 407 155 428 c 0
 155 505 182 569 237 620 c 0
 291 670 357 696 434 696 c 0xf3c0
 522 696 597 657 660 579 c 0
 674 562 681 552 682 551 c 0
 691 541 699 534 708 529 c 1
 741 578 765 611 780 629 c 0
 817 675 848 697 872 697 c 0
 888 697 896 689 896 674 c 0
 896 648 881 617 849 581 c 0
 820 548 792 525 765 511 c 0
 749 503 728 497 703 492 c 1
 621 388 l 2
 611 374 595 354 573 327 c 1
 550 302 522 276 488 250 c 1
 545 213 573 168 573 113 c 0
 573 101 572 87 569 74 c 1
 633 93 655 113 692 162 c 1
 705 153 l 1
 666 98 637 79 565 58 c 1
 517 -81 397 -216 224 -216 c 0
 160 -216 127 -185 127 -125 c 0xedc0
162 -136 m 0xe5c0
 162 -178 183 -199 224 -199 c 0
 299 -199 383 -45 418 29 c 1
 340 9 162 -65 162 -136 c 0xe5c0
277 215 m 0
 277 195 288 186 311 186 c 0
 342 186 387 204 446 239 c 1
 428 258 404 267 372 267 c 0
 330 267 277 252 277 215 c 0
725 525 m 1
 730 524 734 524 738 524 c 0
 762 524 791 542 826 579 c 0
 861 616 878 646 878 670 c 0
 878 678 874 682 867 682 c 0xe9c0
 829 682 746 561 725 525 c 1
EndSplineSet
Validated: 1
EndChar

StartChar: a
Encoding: 97 97 26
Width: 508
VWidth: 487
Flags: W
HStem: -7 19<100.479 156.609 317.001 378.65> 326 21<229.242 330.167> 327 20G<388 453>
VStem: 18 79<24.5 97.8993> 268 69<12.4338 76.3898>
LayerCount: 2
Fore
SplineSet
0 156 m 1xb8
 91 283 183 347 276 347 c 0xd8
 331 347 360 327 362 288 c 1
 388 330 l 1
 511 347 l 1
 395 153 337 44 337 21 c 0
 337 15 341 12 348 12 c 0
 373 12 404 32 440 71 c 0
 450 82 475 112 513 162 c 1
 527 154 l 1
 469 80 l 2
 447 53 428 34 412 22 c 0
 387 3 361 -7 335 -7 c 0
 297 -7 268 21 268 59 c 0
 268 74 271 93 277 117 c 1
 222 34 167 -7 114 -7 c 0
 60 -7 18 41 18 95 c 0
 18 120 24 146 35 175 c 1
 14 148 l 1
 0 156 l 1xb8
97 31 m 0
 97 18 106 12 124 12 c 0
 179 12 254 107 281 153 c 0
 324 224 345 268 345 284 c 0
 345 307 326 326 302 326 c 0
 276 326 237 289 188 215 c 0
 127 123 97 62 97 31 c 0
EndSplineSet
Validated: 1
EndChar

StartChar: b
Encoding: 98 98 27
Width: 424
VWidth: 487
Flags: W
HStem: -7 17<133.971 186.204> 81 15<318.16 368.51> 261 88<333.703 395.242> 657 20G<380 463>
VStem: 58 75<17.4985 91.8781> 260 20<124.302 204.848> 377 38<219.559 318>
LayerCount: 2
Fore
SplineSet
0 157 m 1
 22 187 89 270 200 405 c 2
 269 489 l 1
 276 500 285 517 299 539 c 2
 380 668 l 1
 494 677 l 1
 432 583 365 475 292 351 c 0
 186 170 133 60 133 23 c 0
 133 14 140 10 153 10 c 0
 190 10 237 38 293 94 c 1
 271 114 260 139 260 169 c 0
 260 214 279 261 317 309 c 0
 338 336 359 349 379 349 c 0
 403 349 415 334 415 302 c 0
 415 243 382 175 318 98 c 1
 324 96 330 96 337 96 c 0
 356 96 373 103 390 118 c 0
 397 125 411 140 429 163 c 1
 442 155 l 1
 423 130 407 113 397 105 c 0
 378 89 358 81 337 81 c 0
 327 81 318 82 308 86 c 1
 245 24 189 -7 141 -7 c 0
 92 -7 58 27 58 76 c 0
 58 113 78 168 117 240 c 0
 125 254 156 306 211 394 c 1
 196 379 179 359 160 334 c 2
 13 149 l 1
 0 157 l 1
280 159 m 0
 280 138 288 119 304 105 c 1
 353 163 377 207 377 236 c 0
 377 249 365 261 352 261 c 0
 333 261 315 249 300 224 c 0
 286 202 280 180 280 159 c 0
EndSplineSet
Validated: 1
EndChar

StartChar: c
Encoding: 99 99 28
Width: 363
VWidth: 487
Flags: W
HStem: -7 18<116.109 198.708> 330 17<225.32 319.074>
VStem: 17 93<26.5 121.346> 321 52<259 321.045>
LayerCount: 2
Fore
SplineSet
0 156 m 1
 90 283 181 347 272 347 c 0
 324 347 373 322 373 273 c 0
 373 245 353 223 325 223 c 0
 301 223 279 241 279 265 c 0
 279 285 288 299 306 307 c 0
 316 311 321 314 321 316 c 0
 321 325 313 330 297 330 c 0
 262 330 221 289 175 208 c 0
 132 132 110 74 110 34 c 0
 110 19 121 11 142 11 c 0
 188 11 230 27 271 59 c 0
 297 79 330 113 368 162 c 1
 380 154 l 1
 338 100 305 62 279 42 c 0
 237 9 190 -7 139 -7 c 0
 71 -7 17 41 17 108 c 0
 17 128 22 149 31 171 c 1
 14 148 l 1
 0 156 l 1
EndSplineSet
Validated: 1
EndChar

StartChar: d
Encoding: 100 100 29
Width: 500
VWidth: 487
Flags: W
HStem: -7 19<85.1548 142.859 310.001 370.539> 327 22<222.426 312.375>
VStem: 7 76<26.639 96.2979> 258 74<12.1257 80.6469>
LayerCount: 2
Fore
SplineSet
0 157 m 1
 91 285 180 349 266 349 c 0
 314 349 343 324 351 276 c 1
 541 589 l 1
 662 593 l 1
 442 254 332 63 332 19 c 0
 332 14 335 12 342 12 c 0
 366 12 397 32 433 72 c 0
 444 84 468 114 505 163 c 1
 519 154 l 1
 446 67 l 2
 425 43 409 26 395 16 c 0
 374 1 351 -7 327 -7 c 0
 288 -7 258 22 258 60 c 0
 258 75 262 92 269 112 c 1
 213 33 156 -7 100 -7 c 0
 47 -7 7 35 7 88 c 0
 7 112 13 138 27 167 c 1
 14 149 l 1
 0 157 l 1
83 31 m 0
 83 18 90 12 104 12 c 0
 155 12 213 61 278 158 c 0
 315 213 334 244 335 250 c 0
 336 254 336 258 336 263 c 0
 336 293 319 327 291 327 c 0
 264 327 223 284 166 199 c 0
 111 117 83 61 83 31 c 0
EndSplineSet
Validated: 1
EndChar

StartChar: e
Encoding: 101 101 30
Width: 362
VWidth: 487
Flags: W
HStem: -7 18<115.313 197.629> 146 14<147 188.551> 332 15<265.171 313.983>
VStem: 13 97<28 125.465> 321 52<245.661 327.012>
LayerCount: 2
Fore
SplineSet
0 156 m 1
 6 166 14 171 25 173 c 1
 47 220 74 256 105 281 c 0
 159 325 216 347 276 347 c 0
 340 347 373 323 373 276 c 0
 373 254 361 232 339 210 c 0
 295 167 230 146 141 146 c 1
 120 101 110 64 110 36 c 0
 110 20 120 11 141 11 c 0
 186 11 230 27 271 59 c 0
 300 81 332 115 367 162 c 1
 380 154 l 1
 339 101 305 64 279 43 c 0
 237 9 191 -7 142 -7 c 0
 68 -7 13 38 13 110 c 0
 13 124 15 139 19 154 c 1
 14 148 l 1
 0 156 l 1
147 160 m 1
 185 161 221 174 254 200 c 0
 299 235 321 271 321 305 c 0
 321 323 312 332 292 332 c 0
 250 332 201 275 147 160 c 1
EndSplineSet
Validated: 1
EndChar

StartChar: f
Encoding: 102 102 31
Width: 296
VWidth: 487
Flags: W
HStem: 656 15<460.111 508.898>
VStem: 511 42<578.648 655.946>
LayerCount: 2
Fore
SplineSet
-117 -216 m 1
 -78 -150 -32 -68 18 31 c 1
 4 44 -4 58 -4 74 c 0
 -4 99 18 125 42 125 c 0
 48 125 55 124 64 121 c 1
 113 220 l 1
 63 196 30 171 13 147 c 1
 0 156 l 1
 19 184 60 213 123 242 c 1
 171 337 223 422 278 497 c 0
 364 614 436 671 495 671 c 0
 525 671 553 650 553 620 c 0
 553 600 544 574 527 544 c 0
 480 460 382 364 229 256 c 1
 205 201 166 119 114 11 c 1
 168 21 231 72 301 162 c 1
 314 153 l 1
 279 107 249 74 224 53 c 0
 186 20 146 0 105 -6 c 1
 72 -80 35 -150 -5 -216 c 1
 -117 -216 l 1
240 283 m 1
 309 332 361 379 396 425 c 0
 442 484 476 542 498 597 c 0
 506 618 511 633 511 640 c 0
 511 651 504 656 491 656 c 0
 459 656 428 634 397 590 c 0
 376 560 349 510 316 442 c 0
 298 407 273 354 240 283 c 1
EndSplineSet
Validated: 1
EndChar

StartChar: g
Encoding: 103 103 32
Width: 489
VWidth: 487
Flags: W
HStem: -216 14<22.0061 68.6121> -9 16<98.1183 143.508> 328 19<257.22 307.896>
VStem: -22 31<-196.653 -138.987> 18 78<16.5 103.252> 322 17<283 314.116>
LayerCount: 2
Fore
SplineSet
-22 -166 m 0
 -22 -136 5 -105 62 -74 c 0
 80 -64 122 -47 188 -20 c 1
 225 62 l 1
 184 15 144 -9 104 -9 c 0
 52 -9 18 37 18 90 c 0
 18 115 25 144 37 177 c 1
 13 148 l 1
 0 156 l 1
 17 179 37 204 61 230 c 0
 132 307 201 347 267 347 c 0
 295 347 315 338 327 320 c 0
 335 308 339 300 339 286 c 18
 339 283 l 1
 368 335 l 1
 488 345 l 1
 413 218 353 107 308 12 c 1
 375 36 437 86 494 161 c 1
 507 152 l 1
 444 67 375 15 299 -6 c 1
 257 -93 159 -216 48 -216 c 0
 13 -216 -22 -199 -22 -166 c 0
9 -174 m 0
 9 -190 27 -202 42 -202 c 0
 85 -202 131 -147 180 -39 c 1
 66 -92 9 -137 9 -174 c 0
96 21 m 0
 96 12 101 7 111 7 c 0
 169 7 229 83 256 128 c 0
 300 203 322 255 322 281 c 0
 322 313 309 328 283 328 c 0
 252 328 214 285 165 198 c 0
 119 116 96 56 96 21 c 0
EndSplineSet
Validated: 1
EndChar

StartChar: h
Encoding: 104 104 33
Width: 541
VWidth: 487
Flags: W
HStem: -7 19<363.516 410.966> 328 21<392.949 427.43>
VStem: 296 67<12.9401 87> 428 59<255.5 327.353>
LayerCount: 2
Fore
SplineSet
-25 -7 m 1
 217 400 l 1
 13 149 l 1
 0 157 l 1
 9 170 42 210 96 276 c 2
 254 471 l 2
 258 475 263 481 269 489 c 1
 368 668 l 1
 485 673 l 1
 150 93 l 1
 288 264 379 349 425 349 c 0
 465 349 487 312 487 271 c 0
 487 240 476 204 455 165 c 0
 443 143 423 113 396 76 c 0
 375 47 363 29 363 23 c 0
 363 15 369 12 381 12 c 0
 405 12 436 32 473 72 c 0
 484 84 508 114 546 163 c 1
 559 155 l 1
 540 130 511 93 470 45 c 1
 436 10 402 -7 368 -7 c 0
 324 -7 296 27 296 71 c 0
 296 103 308 139 331 178 c 0
 343 199 364 228 394 266 c 0
 417 295 428 313 428 320 c 0
 428 325 425 328 418 328 c 0
 386 328 330 281 249 186 c 0
 239 175 190 112 100 -2 c 1
 -25 -7 l 1
EndSplineSet
Validated: 1
EndChar

StartChar: i
Encoding: 105 105 34
Width: 278
VWidth: 487
Flags: W
HStem: -7 19<85 149.252> 328 20G<162 230> 328 20G<162 230> 448 119<277.875 355.498>
VStem: 36 73<12.5628 76.9842> 257 117<466.628 546.125>
LayerCount: 2
Fore
SplineSet
0 157 m 1xbc
 57 232 111 294 162 342 c 1
 290 348 l 1
 170 155 109 47 109 21 c 0
 109 15 113 12 121 12 c 0
 155 12 206 60 276 154 c 1
 283 163 l 1
 296 154 l 1
 238 81 l 1
 202 38 166 -7 105 -7 c 0
 65 -7 36 27 36 68 c 0
 36 98 57 148 98 219 c 2
 151 311 l 1
 115 277 69 224 14 149 c 1
 0 157 l 1xbc
257 499 m 0
 257 534 290 567 325 567 c 0
 353 567 374 544 374 516 c 0
 374 479 344 448 307 448 c 0
 279 448 257 471 257 499 c 0
EndSplineSet
Validated: 1
EndChar

StartChar: j
Encoding: 106 106 35
Width: 298
VWidth: 487
Flags: W
HStem: -216 14<-168.912 -123.56> 449 118<277.818 357.659>
VStem: -213 31<-196.724 -140.395> 258 119<468.584 547>
LayerCount: 2
Fore
SplineSet
-213 -166 m 0
 -213 -98 -68 -32 4 -4 c 1
 7 3 60 104 162 301 c 1
 109 262 59 210 13 147 c 1
 0 156 l 1
 47 223 105 281 173 328 c 1
 298 342 l 1
 221 214 160 103 116 11 c 1
 152 18 187 37 222 69 c 0
 243 88 269 119 303 162 c 1
 316 153 l 1
 281 107 250 73 226 52 c 0
 187 18 147 -1 107 -6 c 1
 76 -72 39 -124 -4 -160 c 0
 -48 -197 -95 -216 -143 -216 c 0
 -178 -216 -213 -198 -213 -166 c 0
-182 -174 m 0
 -182 -190 -164 -202 -148 -202 c 0
 -107 -202 -60 -144 -7 -27 c 1
 -59 -51 -182 -121 -182 -174 c 0
258 500 m 0
 258 536 291 567 327 567 c 0
 361 567 377 551 377 517 c 0
 377 481 345 449 309 449 c 0
 281 449 258 472 258 500 c 0
EndSplineSet
Validated: 1
EndChar

StartChar: k
Encoding: 107 107 36
Width: 500
VWidth: 487
Flags: W
HStem: -7 19<288.5 369.272> 189 31<220.476 277.745> 333 16<414.049 455> 657 20G<372 460.5>
VStem: 232 98<12.528 86.0898> 283 80<134.795 190.317>
LayerCount: 2
Fore
SplineSet
-18 -6 m 1xf0
 217 400 l 1
 13 149 l 1
 0 157 l 1
 78 256 l 1
 236 450 l 2
 244 459 255 472 268 489 c 1
 372 669 l 1
 491 677 l 1
 430 577 301 352 104 2 c 1
 62 -1 21 -3 -18 -6 c 1xf0
218 198 m 0
 218 210 238 217 278 220 c 0
 286 221 296 225 306 234 c 1
 368 304 l 1
 396 334 419 349 440 349 c 0
 470 349 503 325 503 295 c 0
 503 270 483 250 458 250 c 0
 437 250 417 267 417 288 c 0
 417 297 420 306 428 315 c 2
 440 329 l 1
 440 332 438 333 434 333 c 0
 419 333 396 314 366 277 c 0
 341 247 320 226 302 215 c 1
 342 198 363 173 363 139 c 0xf4
 363 122 357 99 346 70 c 0
 335 41 330 25 330 22 c 0
 330 15 334 12 341 12 c 0
 365 12 395 33 432 73 c 0
 441 83 465 113 504 163 c 1
 518 155 l 1
 483 115 441 53 403 22 c 0
 378 2 349 -7 317 -7 c 0
 260 -7 232 13 232 53 c 0xf8
 232 72 241 98 258 129 c 0
 275 160 283 180 283 189 c 0xf4
 283 194 281 198 278 203 c 1
 273 201 240 189 230 189 c 0
 222 189 218 192 218 198 c 0
EndSplineSet
Validated: 1
EndChar

StartChar: l
Encoding: 108 108 37
Width: 288
VWidth: 487
Flags: W
HStem: -7 19<100 157.09> 657 20G<384 484.611>
VStem: 52 69<12.5011 75.6972>
LayerCount: 2
Fore
SplineSet
0 157 m 1
 31 198 71 249 120 308 c 2
 243 455 l 2
 264 481 288 516 316 560 c 0
 357 626 380 662 384 669 c 1
 497 677 l 1
 357 451 l 1
 305 369 218 215 146 83 c 1
 130 51 121 30 121 21 c 0
 121 15 124 12 131 12 c 0
 156 12 187 35 226 82 c 2
 292 163 l 1
 306 154 l 1
 260 96 233 63 225 55 c 0
 186 14 151 -7 120 -7 c 0
 80 -7 52 23 52 63 c 0
 52 89 61 122 80 160 c 0
 99 200 144 279 215 398 c 1
 14 149 l 1
 0 157 l 1
EndSplineSet
Validated: 1
EndChar

StartChar: m
Encoding: 109 109 38
Width: 811
VWidth: 487
Flags: W
HStem: -7 18<618.588 680.416> 322 25<166.093 215.999 399.361 453.499 649.955 710.999>
VStem: 190 75<258.132 326.543> 424 80<239.598 321.372> 574 67<11.4467 89.5> 691 65<244.5 327.13>
LayerCount: 2
Fore
SplineSet
0 156 m 1
 43 213 73 251 90 270 c 0
 137 321 175 347 204 347 c 0
 242 347 265 317 265 279 c 0
 265 252 258 224 244 193 c 0
 239 183 225 157 201 115 c 1
 267 203 l 2
 293 236 316 263 338 286 c 0
 376 326 411 347 444 347 c 0
 483 347 504 313 504 271 c 0
 504 235 487 186 454 123 c 1
 561 272 639 347 690 347 c 0
 731 347 756 309 756 265 c 0
 756 224 734 168 687 98 c 0
 657 52 641 27 641 22 c 0
 641 15 646 11 654 11 c 0
 677 11 707 32 744 73 c 1
 816 162 l 1
 829 154 l 1
 771 80 l 2
 749 53 730 34 714 22 c 0
 689 3 665 -7 642 -7 c 0
 596 -7 574 20 574 73 c 0
 574 106 583 141 601 177 c 0
 605 184 621 209 652 252 c 0
 678 288 691 311 691 320 c 0
 691 325 688 328 681 328 c 0
 662 328 635 311 600 277 c 0
 536 215 468 123 397 3 c 1
 267 -3 l 1
 303 53 424 252 424 311 c 0
 424 318 422 322 416 322 c 0
 378 322 287 216 144 5 c 1
 13 -3 l 1
 131 178 190 286 190 321 c 0
 190 325 188 327 185 327 c 0
 161 327 104 267 14 148 c 1
 0 156 l 1
EndSplineSet
Validated: 1
EndChar

StartChar: n
Encoding: 110 110 39
Width: 578
VWidth: 487
Flags: W
HStem: -7 18<396.669 447.522> 326 21<168.945 218.499 415.563 455.897>
VStem: 191 74<253.353 325.874> 330 66<11.4562 93.5> 456 62<259 325.374>
LayerCount: 2
Fore
SplineSet
0 156 m 1
 55 228 85 273 139 317 c 0
 164 337 186 347 207 347 c 0
 246 347 265 326 265 283 c 0
 265 257 257 226 241 190 c 0
 235 176 219 148 195 104 c 1
 255 183 304 241 342 280 c 0
 386 325 423 347 452 347 c 0
 493 347 518 313 518 271 c 0
 518 247 512 220 501 191 c 0
 496 178 477 147 443 98 c 0
 412 52 396 26 396 21 c 0
 396 14 402 11 413 11 c 0
 441 11 473 30 509 69 c 0
 519 79 543 110 583 162 c 1
 596 154 l 1
 538 80 l 2
 516 53 497 34 482 22 c 0
 457 3 431 -7 404 -7 c 0
 355 -7 330 22 330 78 c 0
 330 109 341 143 363 180 c 0
 374 199 394 227 423 264 c 0
 445 292 456 310 456 318 c 0
 456 323 452 326 445 326 c 0
 392 326 292 219 145 7 c 1
 10 -7 l 1
 130 172 191 280 191 317 c 0
 191 323 189 326 184 326 c 0
 160 326 103 267 13 148 c 1
 0 156 l 1
EndSplineSet
Validated: 1
EndChar

StartChar: o
Encoding: 111 111 40
Width: 386
VWidth: 487
Flags: W
HStem: -7 18<116.214 175.204> 44 17<264.081 298.236> 329 18<263.972 316.329>
VStem: 19 93<26.5 124.016> 331 34<197.968 315.024>
LayerCount: 2
Fore
SplineSet
0 156 m 1
 91 283 181 347 269 347 c 0
 333 347 365 316 365 255 c 0
 365 195 331 132 264 64 c 1
 267 61 269 61 274 61 c 0
 299 61 338 95 391 162 c 1
 405 154 l 1
 377 119 357 95 345 83 c 0
 317 57 291 44 265 44 c 0
 258 44 252 45 246 47 c 1
 205 11 166 -7 131 -7 c 0
 67 -7 19 45 19 109 c 0
 19 127 24 150 35 177 c 1
 13 148 l 1
 0 156 l 1
112 34 m 0
 112 19 121 11 139 11 c 0
 168 11 198 25 230 55 c 1
 226 61 225 66 225 72 c 0
 225 91 234 101 255 101 c 0
 257 101 260 101 263 100 c 1
 309 172 331 231 331 276 c 0
 331 311 318 329 292 329 c 0
 257 329 217 288 173 207 c 0
 132 131 112 74 112 34 c 0
EndSplineSet
Validated: 1
EndChar

StartChar: p
Encoding: 112 112 41
Width: 525
VWidth: 487
Flags: W
HStem: -8 17<346.186 392.976> 327 21<371.72 411.385>
VStem: 283 63<9.01894 86.5> 412 60<254 326.602>
LayerCount: 2
Fore
SplineSet
-152 -216 m 1
 214 397 l 1
 13 147 l 1
 0 156 l 1
 27 192 96 279 210 418 c 0
 224 434 244 457 268 488 c 1
 326 585 l 1
 419 585 l 1
 161 133 l 1
 316 297 l 1
 353 331 384 348 409 348 c 0
 447 348 472 309 472 269 c 0
 472 239 461 205 439 166 c 0
 428 146 408 115 379 75 c 0
 357 45 346 26 346 19 c 0
 346 12 351 9 361 9 c 0
 387 9 420 29 457 69 c 0
 469 82 493 113 530 162 c 1
 543 153 l 1
 490 77 445 29 410 7 c 0
 393 -3 375 -8 355 -8 c 0
 307 -8 283 18 283 69 c 0
 283 104 294 141 316 179 c 0
 327 197 348 226 379 264 c 0
 401 292 412 311 412 321 c 0
 412 325 409 327 403 327 c 0
 384 327 359 312 326 281 c 0
 300 257 244 199 160 107 c 2
 122 65 l 1
 -38 -216 l 1
 -152 -216 l 1
EndSplineSet
Validated: 1
EndChar

StartChar: q
Encoding: 113 113 42
Width: 469
VWidth: 487
Flags: W
HStem: -216 17<194 260.685> -9 16<100.45 144.203> 329 18<264.938 311.97>
VStem: 18 80<18.5 106.4> 150 67<-198.873 -122.634> 320 16<-123.737 -15.7205>
LayerCount: 2
Fore
SplineSet
0 155 m 1
 91 283 180 347 269 347 c 0
 316 347 342 325 347 282 c 1
 376 333 l 1
 496 344 l 1
 312 22 l 1
 356 31 410 78 474 161 c 1
 488 152 l 1
 426 72 371 24 321 7 c 1
 331 -20 336 -47 336 -75 c 0
 336 -155 292 -216 216 -216 c 0
 172 -216 150 -193 150 -147 c 0
 150 -99 171 -36 214 44 c 1
 173 8 137 -9 106 -9 c 0
 52 -9 18 38 18 94 c 0
 18 117 23 145 35 176 c 1
 13 146 l 1
 0 155 l 1
98 24 m 0
 98 13 104 7 115 7 c 0
 136 7 161 19 191 44 c 0
 218 67 243 98 265 135 c 0
 308 208 330 257 330 282 c 0
 330 307 314 329 290 329 c 0
 259 329 219 286 169 202 c 0
 121 121 98 62 98 24 c 0
217 -186 m 0
 217 -194 221 -199 230 -199 c 0
 289 -199 320 -134 320 -71 c 0
 320 -44 315 -17 305 9 c 1
 246 -101 217 -165 217 -186 c 0
EndSplineSet
Validated: 1
EndChar

StartChar: r
Encoding: 114 114 43
Width: 376
VWidth: 487
Flags: W
HStem: -7 19<183 247.335>
VStem: 130 82<16.8497 90.5> 157 56<355.98 411.348> 236 85<255.5 311.5>
LayerCount: 2
Fore
SplineSet
0 157 m 1xd0
 17 181 45 215 82 260 c 1
 168 352 l 1
 161 360 157 368 157 377 c 256
 157 395 177 417 195 417 c 0
 207 417 213 411 213 399 c 0xb0
 213 391 206 376 192 355 c 1
 212 346 232 336 253 327 c 0
 280 315 299 305 308 296 c 0
 317 287 321 276 321 263 c 0
 321 248 317 231 308 212 c 1
 283 167 l 1
 236 77 212 28 212 21 c 0
 212 15 215 12 221 12 c 0
 253 12 306 62 381 163 c 1
 395 154 l 1
 388 145 l 2
 341 83 306 41 281 22 c 0
 256 3 230 -7 204 -7 c 0
 162 -7 130 31 130 73 c 0
 130 108 148 154 183 212 c 0
 218 270 236 302 236 309 c 0
 236 314 218 324 182 343 c 1
 87 242 l 1
 70 222 46 191 14 148 c 1
 0 157 l 1xd0
EndSplineSet
Validated: 1
EndChar

StartChar: s
Encoding: 115 115 44
Width: 331
VWidth: 487
Flags: W
HStem: -7 28<57.685 148>
VStem: -1 41<34.9016 108> 181 60<384.443 415.954>
LayerCount: 2
Fore
SplineSet
-1 91 m 0
 -1 125 14 142 45 142 c 0
 69 142 91 124 91 100 c 0
 91 84 82 72 65 62 c 0
 48 52 40 45 40 42 c 0
 40 30 58 21 71 21 c 0
 95 21 121 49 150 105 c 0
 174 152 187 202 187 256 c 0
 187 272 181 327 181 344 c 1
 114 272 58 206 14 148 c 1
 0 157 l 1
 38 207 98 278 181 369 c 1
 187 407 204 425 229 425 c 0
 237 425 241 422 241 415 c 0
 241 410 227 392 199 362 c 1
 199 357 198 354 198 354 c 1
 198 341 211 312 237 266 c 0
 263 220 276 180 276 146 c 0
 276 122 270 97 259 71 c 1
 274 84 299 115 335 163 c 1
 349 154 l 1
 309 100 278 64 255 44 c 0
 215 10 172 -7 124 -7 c 0
 58 -7 -1 29 -1 91 c 0
EndSplineSet
Validated: 1
EndChar

StartChar: t
Encoding: 116 116 45
Width: 297
VWidth: 487
Flags: W
HStem: -7 19<124.602 167.334> 463 17<375 469>
VStem: 56 68<14.1516 79.6045>
LayerCount: 2
Fore
SplineSet
0 157 m 1
 24 190 91 273 200 405 c 0
 216 423 239 452 269 489 c 1
 275 498 282 510 293 527 c 0
 316 563 337 593 355 618 c 1
 466 627 l 1
 375 480 l 1
 469 480 l 1
 469 463 l 1
 363 463 l 1
 203 197 124 51 124 23 c 0
 124 16 130 12 140 12 c 0
 163 12 193 32 230 73 c 0
 239 83 264 114 302 163 c 1
 315 155 l 1
 234 54 l 1
 195 13 160 -7 129 -7 c 0
 87 -7 56 27 56 70 c 0
 56 99 72 142 104 200 c 2
 217 401 l 1
 13 149 l 1
 0 157 l 1
EndSplineSet
Validated: 1
EndChar

StartChar: u
Encoding: 117 117 46
Width: 535
VWidth: 487
Flags: W
HStem: -6 18<92.5233 144.354 344.001 405.864> 328 20G<162 274.5 407 527.321> 328 20G<162 274.5 407 527.321>
VStem: 42 73<12.209 74.9223> 292 75<11.4225 76.1328>
LayerCount: 2
Fore
SplineSet
0 156 m 1xb8
 85 263 l 1
 101 281 127 306 162 340 c 1
 290 348 l 1
 259 298 214 220 157 117 c 1
 129 61 115 29 115 22 c 0
 115 15 119 12 126 12 c 0
 143 12 175 37 221 86 c 0
 270 139 333 224 407 341 c 1
 539 348 l 1
 459 211 l 2
 428 157 404 110 386 70 c 0
 373 42 367 25 367 20 c 0
 367 14 370 11 377 11 c 0
 400 11 430 32 467 72 c 0
 478 84 503 113 540 162 c 1
 553 154 l 1
 532 131 514 105 495 80 c 1
 473 53 454 34 438 22 c 0
 413 3 387 -7 361 -7 c 0
 321 -7 292 23 292 63 c 0
 292 88 300 121 319 161 c 1
 367 253 l 1
 305 161 252 93 206 48 c 0
 170 12 136 -6 108 -6 c 0
 70 -6 42 26 42 64 c 0
 42 105 78 188 151 310 c 1
 116 278 71 224 14 148 c 1
 0 156 l 1xb8
EndSplineSet
Validated: 1
EndChar

StartChar: v
Encoding: 118 118 47
Width: 459
VWidth: 487
Flags: W
HStem: -7 16<162.346 221.19> 81 15<354.257 403.51> 265 82<368.029 434.042> 326 21<168.795 225.5>
VStem: 88 72<22.3443 104> 198 66<253.5 325.718> 294 18<123.27 190.695> 422 28<231.137 315.5>
LayerCount: 2
Fore
SplineSet
0 156 m 1xdf
 57 230 84 272 139 317 c 0
 163 337 185 347 206 347 c 0xdf
 245 347 264 321 264 272 c 0
 264 235 247 187 212 127 c 0
 177 67 160 32 160 25 c 0
 160 14 168 9 185 9 c 0
 222 9 270 37 329 94 c 1
 306 109 294 133 294 167 c 0
 294 217 313 264 351 308 c 0
 373 334 394 347 413 347 c 0xef
 438 347 450 331 450 300 c 0
 450 266 439 230 418 192 c 0
 406 170 385 139 354 98 c 1
 361 96 366 96 372 96 c 0
 391 96 408 103 425 118 c 0
 433 125 446 140 464 162 c 1
 477 154 l 1
 458 130 443 113 432 104 c 0
 413 88 393 81 372 81 c 0
 362 81 352 82 342 86 c 1
 280 24 227 -7 181 -7 c 0
 122 -7 88 31 88 90 c 0
 88 118 97 151 116 188 c 0
 127 208 144 236 169 272 c 0
 188 300 198 317 198 323 c 0
 198 325 195 326 190 326 c 0
 162 326 104 267 14 148 c 1
 0 156 l 1xdf
312 156 m 0
 312 135 321 117 338 105 c 1
 394 172 422 220 422 248 c 0
 422 259 416 265 405 265 c 0xef
 363 265 312 199 312 156 c 0
EndSplineSet
Validated: 1
EndChar

StartChar: w
Encoding: 119 119 48
Width: 660
VWidth: 487
Flags: W
HStem: -7 16<368.38 426.177> -1 17<89.5 147.714> 84 15<559.316 605.4> 272 83<581.552 644.124> 327 20G<161 260 401 522> 327 20G<161 260 401 522>
VStem: 44 68<16.2863 80.5681> 302 65<17.5 105.5> 509 20<119.907 202.286> 629 34<240.39 325>
LayerCount: 2
Fore
SplineSet
0 156 m 1x63c0
 84 263 l 1
 101 282 127 308 161 340 c 1
 293 347 l 1
 227 251 172 160 130 73 c 0
 118 47 112 31 112 25 c 0
 112 18 116 16 124 16 c 0
 171 16 262 124 401 340 c 1
 534 347 l 1x67c0
 510 312 477 259 437 184 c 0
 390 98 367 43 367 22 c 0
 367 13 374 9 389 9 c 0
 429 9 478 39 535 100 c 1
 517 115 509 137 509 169 c 0
 509 214 524 258 555 302 c 0
 580 337 604 355 626 355 c 0
 650 355 663 340 663 310 c 0
 663 257 628 188 559 103 c 1
 566 101 573 99 580 99 c 0
 603 99 631 120 665 162 c 1
 678 154 l 1
 660 131 645 115 636 107 c 0
 618 92 600 84 580 84 c 0
 570 84 559 86 548 90 c 1
 489 25 436 -7 389 -7 c 0xb3c0
 339 -7 302 37 302 88 c 0
 302 123 319 172 353 238 c 1
 271 125 l 1
 237 80 204 46 175 23 c 0
 154 7 132 -1 110 -1 c 0
 69 -1 44 31 44 72 c 0
 44 112 80 192 151 310 c 1
 116 278 70 224 13 148 c 1
 0 156 l 1x63c0
529 154 m 0
 529 136 534 122 545 111 c 1
 568 137 629 219 629 256 c 0
 629 267 624 272 613 272 c 0x33c0
 597 272 580 261 561 239 c 0
 540 213 529 184 529 154 c 0
EndSplineSet
Validated: 1
EndChar

StartChar: x
Encoding: 120 120 49
Width: 439
VWidth: 487
Flags: W
HStem: -7 51<29.5 92.3094> -7 18<267.378 310.826> 310 37<369.912 427.5> 326 21<170.422 228>
VStem: 195 96<182.818 231.552> 383 82<259.702 309.978>
LayerCount: 2
Fore
SplineSet
-12 45 m 0x8c
 -12 75 4 90 35 90 c 0
 54 90 67 82 75 67 c 0
 83 52 89 44 92 44 c 0
 105 44 131 80 170 154 c 1
 173 187 180 232 191 288 c 0
 194 301 195 310 195 316 c 0
 195 323 191 326 184 326 c 0
 160 326 103 267 13 148 c 1
 0 156 l 1
 43 213 74 252 91 271 c 0
 138 322 176 347 206 347 c 0x9c
 250 347 278 307 289 228 c 1
 333 307 374 347 413 347 c 0
 442 347 465 327 465 298 c 0
 465 270 451 256 422 256 c 0
 403 256 390 263 383 279 c 1
 383 279 378 310 373 310 c 0
 354 310 301 214 291 192 c 1
 291 183 l 2
 291 162 284 121 270 62 c 0
 267 50 265 40 265 31 c 0
 265 18 271 11 282 11 c 0
 305 11 335 31 372 72 c 0
 384 85 408 115 444 162 c 1
 457 154 l 1
 450 145 l 1
 406 85 369 43 342 21 c 0
 318 2 295 -7 270 -7 c 0x6c
 220 -7 187 37 172 124 c 1
 125 37 82 -7 44 -7 c 0
 15 -7 -12 16 -12 45 c 0x8c
EndSplineSet
Validated: 1
EndChar

StartChar: y
Encoding: 121 121 50
Width: 546
VWidth: 487
Flags: W
HStem: -216 14<79.0878 123.9> -9 16<129.605 163.539> 327 20<171.699 202.861>
VStem: 35 31<-196.724 -138.674> 69 60<9.45294 111> 203 59<257.5 326.833>
LayerCount: 2
Fore
SplineSet
0 155 m 1
 96 283 163 347 201 347 c 0
 238 347 262 311 262 272 c 0
 262 243 251 208 228 167 c 0
 215 145 194 113 164 72 c 0
 141 40 129 22 129 15 c 0
 129 10 133 7 140 7 c 0
 176 7 247 81 353 230 c 0
 368 251 389 286 417 335 c 1
 542 345 l 1
 520 308 488 251 447 176 c 1
 362 7 l 1
 370 10 382 13 397 19 c 0
 441 37 492 85 551 161 c 1
 564 152 l 1
 487 52 435 14 353 -12 c 1
 281 -148 198 -216 105 -216 c 0
 70 -216 35 -198 35 -166 c 0
 35 -136 62 -105 118 -74 c 0
 138 -64 179 -46 243 -20 c 1
 352 202 l 1
 306 139 274 98 257 78 c 0
 207 20 166 -9 134 -9 c 0
 93 -9 69 28 69 71 c 0
 69 151 122 216 168 272 c 0
 191 300 203 315 203 319 c 0
 203 324 200 327 193 327 c 0
 164 327 104 266 14 146 c 1
 0 155 l 1
66 -174 m 0
 66 -190 84 -202 100 -202 c 0
 141 -202 186 -147 235 -39 c 1
 123 -91 66 -136 66 -174 c 0
EndSplineSet
Validated: 1
EndChar

StartChar: z
Encoding: 122 122 51
Width: 428
VWidth: 487
Flags: W
HStem: -216 18<73.4142 109.802> 22 66<93.7658 179.4> 177 15<216.77 286.245> 326 21<170.966 225> 327 20G<423.5 442>
VStem: 45 24<-196.846 -125.248> 155 61<193.493 246.5> 188 71<281.85 325.682>
LayerCount: 2
Fore
SplineSet
0 155 m 1xf5
 55 227 85 272 139 316 c 0
 164 336 187 347 208 347 c 0
 242 347 259 329 259 295 c 0xf5
 259 278 252 259 238 237 c 0
 224 215 216 203 216 201 c 0
 216 195 225 192 242 192 c 0
 260 192 282 196 309 202 c 1
 369 299 411 347 436 347 c 0
 448 347 454 341 454 329 c 0
 454 316 446 299 430 278 c 0
 406 246 371 218 324 193 c 1
 292 141 260 104 228 80 c 1
 259 67 280 50 288 31 c 1
 327 43 375 86 433 161 c 1
 446 152 l 1
 386 75 335 30 294 17 c 1
 300 -1 303 -19 303 -36 c 0
 303 -89 280 -132 233 -167 c 0
 190 -199 142 -216 87 -216 c 0
 64 -216 45 -189 45 -166 c 0
 45 -93 167 -13 231 13 c 1
 233 22 235 29 235 36 c 0
 235 51 229 62 218 71 c 1
 193 53 176 41 168 37 c 0
 149 27 130 22 110 22 c 0
 90 22 81 29 81 45 c 0
 81 74 137 88 171 88 c 0
 185 88 199 87 214 84 c 1
 245 109 274 144 301 188 c 1
 274 181 251 177 233 177 c 0
 190 177 155 198 155 239 c 0xee
 155 254 160 271 171 291 c 0
 182 311 188 322 188 323 c 0
 188 325 187 326 185 326 c 0
 161 326 103 266 13 146 c 1
 0 155 l 1xf5
69 -166 m 0
 69 -187 75 -198 87 -198 c 0
 139 -198 209 -57 227 -4 c 1
 122 -63 69 -117 69 -166 c 0
EndSplineSet
Validated: 1
EndChar

StartChar: Be
Encoding: 1041 1041 53
Width: 876
VWidth: 487
Flags: W
HStem: -10 16<152.062 252.721 583.801 615.697> 301 17<225.578 289.451> 362 14<643.63 711.396> 593 73<696.219 866.755> 673 27<453.016 578.712>
VStem: 43 42<55.5371 147.5> 160 15<368.067 449.653> 429 36<475.09 573.602> 538 16<32.4181 97.3713> 753 106<169.952 278.914>
LayerCount: 2
Fore
SplineSet
43 122 m 0
 43 173 78 215 129 215 c 0
 161 215 193 190 193 160 c 0
 193 139 184 124 165 115 c 1
 113 98 l 2
 94 92 85 82 85 69 c 0
 85 50 100 34 131 21 c 0
 156 11 180 6 203 6 c 0
 252 6 295 26 331 65 c 0
 355 91 380 132 408 189 c 1
 429 235 463 300 510 386 c 1
 567 476 629 542 698 583 c 1
 706 571 l 1
 683 552 663 521 647 479 c 0
 641 462 631 427 617 373 c 0
 596 294 575 233 553 193 c 0
 507 110 445 53 368 21 c 0
 317 0 265 -10 213 -10 c 0
 123 -10 43 37 43 122 c 0
160 405 m 0
 160 446 176 488 210 532 c 0
 296 644 419 700 577 700 c 0
 616 700 664 694 719 682 c 0
 770 671 809 666 835 666 c 0
 870 666 895 675 912 694 c 1
 924 686 l 1
 897 624 851 593 787 593 c 0
 758 593 715 605 659 630 c 0
 595 658 542 673 498 673 c 0
 394 673 285 598 231 533 c 0
 194 489 175 446 175 404 c 0
 175 359 208 318 253 318 c 0
 294 318 335 347 374 406 c 0
 410 461 429 510 429 554 c 0
 429 563 426 578 421 600 c 1
 434 604 l 1
 455 562 465 522 465 485 c 0
 465 433 446 390 409 354 c 0
 372 318 327 301 275 301 c 0
 207 301 160 339 160 405 c 0
538 61 m 0
 538 119 573 167 643 205 c 1
 651 191 l 1
 608 168 554 119 554 60 c 0
 554 34 573 10 598 10 c 0
 624 10 655 37 690 91 c 0
 732 155 753 217 753 276 c 0
 753 311 747 343 715 354 c 0
 703 358 686 362 668 362 c 0
 661 362 646 359 640 352 c 9
 630 363 l 17
 635 372 647 376 667 376 c 0
 681 376 710 371 736 362 c 0
 784 346 859 281 859 217 c 0
 859 162 832 111 777 63 c 0
 724 16 669 -7 613 -7 c 0
 572 -7 538 20 538 61 c 0
EndSplineSet
Validated: 1
EndChar

StartChar: Zhe
Encoding: 1046 1046 59
Width: 1295
VWidth: 487
Flags: W
HStem: -9 15<133.801 232.342 1055.91 1147.35> 119 65<76.7343 150.5> 242 19<197.032 273.555> 653 14<1381.74 1429.06> 685 15<434.16 538.801>
VStem: 47 16<60.3451 116.114> 133 15<316.196 403.415> 432 34<467.651 578.075> 595 93<465.213 594.59> 886 107<94.5036 207.909> 1430 70<584.5 644.998>
LayerCount: 2
Fore
SplineSet
47 95 m 0
 47 145 85 184 135 184 c 0
 166 184 198 163 198 131 c 0
 198 100 175 81 144 81 c 0
 128 81 114 87 101 100 c 0
 88 113 81 119 78 119 c 0
 68 119 63 110 63 92 c 0
 63 37 122 6 182 6 c 0
 212 6 239 13 265 26 c 0
 291 39 317 60 345 89 c 0
 441 189 595 417 595 585 c 0
 595 651 560 685 491 685 c 0
 364 685 256 586 200 499 c 0
 165 445 148 396 148 353 c 0
 148 304 182 261 230 261 c 0
 247 261 262 264 275 271 c 0
 305 287 339 324 375 383 c 0
 413 446 432 504 432 555 c 0
 432 568 430 584 426 603 c 1
 441 606 l 1
 458 553 466 509 466 473 c 0
 466 411 444 357 402 312 c 0
 359 266 307 242 245 242 c 0
 179 242 133 288 133 354 c 0
 133 400 152 450 188 507 c 0
 247 598 357 700 490 700 c 0
 555 700 606 677 643 631 c 0
 673 594 688 553 688 507 c 0
 688 487 685 464 679 437 c 1
 679 437 662 382 636 327 c 1
 737 351 l 1
 921 668 l 1
 1038 673 l 1
 873 383 l 1
 976 407 l 1
 1016 460 1058 499 1108 543 c 8
 1167 596 1210 617 1284 647 c 24
 1332 667 1378 667 1417 667 c 0
 1460 667 1500 639 1500 600 c 0
 1500 569 1475 544 1444 544 c 0
 1420 544 1396 563 1396 587 c 0
 1396 601 1401 614 1413 624 c 0
 1425 634 1430 640 1430 642 c 0
 1430 649 1424 653 1412 653 c 0
 1334 653 1152 476 1072 335 c 0
 1048 292 1028 244 1019 220 c 0
 1002 176 993 135 993 97 c 0
 993 36 1028 6 1121 6 c 0
 1159 6 1225 61 1301 163 c 1
 1314 154 l 1
 1232 48 1169 -8 1129 -8 c 0
 1026 -8 988 9 948 45 c 0
 906 82 886 129 886 183 c 0
 886 229 901 292 937 350 c 1
 960 385 l 1
 861 363 l 1
 653 -2 l 1
 528 -7 l 1
 555 36 638 180 726 332 c 1
 627 309 l 1
 615 286 602 264 588 246 c 0
 489 123 400 53 292 14 c 0
 250 -1 212 -9 178 -9 c 0
 110 -9 47 30 47 95 c 0
EndSplineSet
Validated: 1
EndChar

StartChar: Ze
Encoding: 1047 1047 60
Width: 586
VWidth: 487
Flags: W
HStem: -9 19<163.225 265.72> 301 14<190.206 248.487> 372 14<320.806 394.998> 414 13<321.786 386.551> 475 15<299.069 354.448> 691 13<440.191 518.652>
VStem: 48 19<83.6019 174.293> 266 17<504.611 563.405> 274 48<177.929 292.02> 287 30<388.453 410.775> 430 26<560.28 633.398> 472 112<202.651 309.267> 570 107<521.449 634.381>
LayerCount: 2
Fore
SplineSet
48 122 m 0xfe30
 48 201 115 286 190 308 c 0
 205 313 220 315 234 315 c 0
 284 315 322 287 322 242 c 0
 322 209 304 175 269 139 c 0
 252 122 232 106 208 91 c 1
 194 95 l 1
 247 151 274 200 274 245 c 0
 274 282 252 301 221 301 c 0
 209 301 196 298 182 293 c 0
 127 271 67 200 67 128 c 0
 67 116 68 105 72 94 c 0
 88 49 143 10 212 10 c 0
 266 10 319 37 371 90 c 0
 421 141 452 194 466 248 c 0
 470 265 472 281 472 296 c 0xfeb0
 472 330 461 357 439 379 c 1
 409 374 382 372 360 372 c 0
 334 372 287 377 287 397 c 0
 287 401 290 406 295 411 c 0
 306 422 325 427 346 427 c 0
 378 427 415 417 436 409 c 1
 504 446 570 519 570 605 c 0
 570 657 538 691 480 691 c 0
 462 691 443 687 423 680 c 0
 365 660 300 607 285 546 c 0
 284 541 283 536 283 531 c 0
 283 506 299 490 324 490 c 0
 332 490 341 491 350 495 c 0
 397 513 430 565 430 615 c 0
 430 620 430 626 429 631 c 1
 447 638 l 1
 453 624 456 610 456 596 c 0
 456 570 445 546 424 524 c 0
 404 503 365 475 325 475 c 0
 290 475 266 495 266 525 c 0
 266 529 266 534 267 539 c 0
 280 616 374 684 445 699 c 0
 461 702 476 704 492 704 c 0
 518 704 544 700 569 691 c 0
 629 671 664 639 674 595 c 0
 676 588 677 581 677 573 c 0xff68
 677 540 661 505 629 473 c 0
 593 436 543 407 479 388 c 1
 543 350 584 297 584 237 c 0
 584 197 565 154 523 111 c 0
 472 59 408 24 330 4 c 0
 297 -4 265 -9 235 -9 c 0
 203 -9 173 -4 144 6 c 0
 80 27 48 67 48 122 c 0xfe30
317 399 m 0xfe60
 317 389 339 386 351 386 c 0
 368 386 388 390 412 398 c 1
 401 404 372 414 348 414 c 0
 336 414 317 411 317 399 c 0xfe60
EndSplineSet
Validated: 1
EndChar

StartChar: El
Encoding: 1051 1051 64
Width: 873
VWidth: 487
Flags: W
HStem: -8 14<66.7366 164.419> -4 18<679.906 736.791> 95 113<14.991 89.2031> 683 20G<962 1010.5>
VStem: -30 42<49.9529 142> 627 76<24 146>
LayerCount: 2
Fore
SplineSet
-30 117 m 0xbc
 -30 167 7 208 58 208 c 0
 88 208 117 185 117 155 c 0
 117 134 108 120 90 111 c 1
 73 105 56 100 39 95 c 1
 21 88 12 77 12 63 c 0
 12 26 71 6 112 6 c 0xbc
 196 6 282 57 372 158 c 1
 372 158 467 271 531 340 c 24
 612 427 690 511 744 557 c 0
 832 631 918 680 1006 703 c 1
 1015 703 1020 699 1020 692 c 0
 1020 685 1013 674 1002 658 c 0
 983 631 961 598 938 557 c 0
 911 509 890 469 873 434 c 0
 760 198 703 63 703 29 c 0
 703 19 708 14 717 14 c 0
 760 14 850 131 878 169 c 1
 892 161 l 1
 810 51 748 -4 705 -4 c 0x7c
 656 -4 627 54 627 106 c 0
 627 186 672 288 762 412 c 0
 805 472 880 560 986 678 c 1
 933 668 803 589 729 523 c 0
 687 486 610 405 530 314 c 18
 382 146 l 17
 289 43 199 -8 112 -8 c 0
 35 -8 -30 43 -30 117 c 0xbc
EndSplineSet
Validated: 1
EndChar

StartChar: Pecyril
Encoding: 1055 1055 68
Width: 858
VWidth: 487
Flags: W
HStem: -10 16<152.062 252.721 665.5 720.557> 301 17<225.578 289.451> 594 73<820.851 1043.29> 673 27<453.016 634.762>
VStem: 43 42<55.5371 147.5> 160 15<368.067 449.653> 429 36<475.09 573.602> 612 76<18 113.616>
LayerCount: 2
Fore
SplineSet
43 122 m 0
 43 173 78 215 129 215 c 0
 161 215 193 190 193 160 c 0
 193 139 184 124 165 115 c 1
 113 98 l 2
 94 92 85 82 85 69 c 0
 85 50 100 34 131 21 c 0
 156 11 180 6 203 6 c 0
 252 6 295 26 331 65 c 0
 355 91 380 132 408 189 c 1
 429 235 463 300 510 386 c 1
 567 476 629 542 698 583 c 1
 706 571 l 1
 683 552 663 521 647 479 c 0
 641 462 631 427 617 373 c 0
 596 294 575 233 553 193 c 0
 507 110 445 53 368 21 c 0
 317 0 265 -10 213 -10 c 0
 123 -10 43 37 43 122 c 0
160 405 m 0
 160 446 176 488 210 532 c 0
 296 644 419 700 577 700 c 0
 616 700 742 694 834 682 c 0
 937 669 986 667 1012 667 c 0
 1047 667 1072 676 1089 695 c 1
 1101 687 l 1
 1074 625 1028 594 964 594 c 2
 961 594 l 2
 931 594 872 595 774 630 c 0
 698 657 542 673 498 673 c 0
 394 673 285 598 231 533 c 0
 194 489 175 446 175 404 c 0
 175 359 208 318 253 318 c 0
 294 318 335 347 374 406 c 0
 410 461 429 510 429 554 c 0
 429 563 426 578 421 600 c 1
 434 604 l 1
 455 562 465 522 465 485 c 0
 465 433 446 390 409 354 c 0
 372 318 327 301 275 301 c 0
 207 301 160 339 160 405 c 0
612 100 m 0
 612 180 650 272 740 396 c 8
 794 470 842 496 908 560 c 17
 923 551 l 25
 894 513 865 489 848 454 c 0
 735 218 688 57 688 23 c 0
 688 13 693 8 702 8 c 0
 745 8 836 125 863 163 c 1
 877 155 l 5
 795 45 733 -10 690 -10 c 0
 641 -10 612 48 612 100 c 0
EndSplineSet
Validated: 1
EndChar

StartChar: Te
Encoding: 1058 1058 71
Width: 1039
VWidth: 487
Flags: W
HStem: -10 16<152.062 252.721 846.5 901.557> 301 17<225.578 289.451> 594 73<920.594 1192.88> 673 27<453.016 687.005>
VStem: 43 42<55.5371 147.5> 160 15<368.067 449.653> 429 36<475.09 573.602> 793 76<18 113.616>
LayerCount: 2
Fore
SplineSet
43 122 m 0
 43 173 78 215 129 215 c 0
 161 215 193 190 193 160 c 0
 193 139 184 124 165 115 c 1
 113 98 l 2
 94 92 85 82 85 69 c 0
 85 50 100 34 131 21 c 0
 156 11 180 6 203 6 c 0
 252 6 295 26 331 65 c 0
 355 91 380 132 408 189 c 1
 429 235 463 300 510 386 c 1
 567 476 629 542 698 583 c 1
 706 571 l 1
 683 552 663 521 647 479 c 0
 641 462 631 427 617 373 c 0
 596 294 575 233 553 193 c 0
 507 110 445 53 368 21 c 0
 317 0 265 -10 213 -10 c 0
 123 -10 43 37 43 122 c 0
160 405 m 0
 160 446 176 488 210 532 c 0
 296 644 419 700 577 700 c 0
 799 700 780 692 872 680 c 0
 969 667 1117 667 1156 667 c 2
 1162 667 l 2
 1197 667 1222 676 1239 695 c 1
 1251 687 l 1
 1224 626 1179 594 1117 594 c 0
 999 594 876 604 812 628 c 0
 737 656 637 673 498 673 c 0
 394 673 285 598 231 533 c 0
 194 489 175 446 175 404 c 0
 175 359 208 318 253 318 c 0
 294 318 335 347 374 406 c 0
 410 461 429 510 429 554 c 0
 429 563 426 578 421 600 c 1
 434 604 l 1
 455 562 465 522 465 485 c 0
 465 433 446 390 409 354 c 0
 372 318 327 301 275 301 c 0
 207 301 160 339 160 405 c 0
558 -9 m 0
 558 -8 566 5 581 30 c 0
 597 57 611 106 622 177 c 0
 629 219 636 225 644 248 c 0
 671 323 708 385 785 467 c 8
 822 507 835 527 881 568 c 1
 891 559 l 1
 846 494 l 1
 823 457 815 378 780 310 c 24
 718 189 682 95 600 13 c 8
 588 1 575 -18 568 -18 c 0
 562 -18 558 -15 558 -9 c 0
793 100 m 0
 793 180 831 272 921 396 c 8
 975 470 1023 496 1089 560 c 17
 1104 551 l 25
 1075 513 1046 489 1029 454 c 0
 916 218 869 57 869 23 c 0
 869 13 874 8 883 8 c 0
 926 8 1017 125 1044 163 c 1
 1058 155 l 1
 976 45 914 -10 871 -10 c 0
 822 -10 793 48 793 100 c 0
EndSplineSet
Validated: 1
EndChar

StartChar: Ef
Encoding: 1060 1060 73
Width: 782
VWidth: 487
Flags: W
HStem: -8 15<78.6999 182.35> 114 99<64.7333 105.089> 145 19<457.346 531.623> 157 14<265.732 319.873> 589 14<622.265 701.433> 614 19<462.525 529.763>
VStem: -31 40<52.6576 145> 144 68<236 374> 759 68<380 518>
LayerCount: 2
Fore
SplineSet
-31 118 m 0xaf80
 -31 172 4 213 58 213 c 0
 90 213 117 190 117 158 c 0
 117 137 108 123 89 114 c 1xcf80
 37 99 l 2
 18 93 9 82 9 67 c 0
 9 46 25 31 58 20 c 0
 82 12 107 7 133 7 c 0
 180 7 220 23 253 56 c 0
 272 75 294 109 320 158 c 1
 316 158 311 157 307 157 c 0x9f80
 263 157 218 180 181 221 c 0
 149 256 144 299 144 336 c 0
 144 412 177 479 243 536 c 0
 318 601 398 633 484 633 c 0
 527 633 561 612 572 577 c 1
 657 673 l 1
 669 664 l 1
 651 644 635 622 620 596 c 1
 635 601 651 603 664 603 c 0
 708 603 753 575 790 533 c 0
 821 498 827 455 827 418 c 0
 827 342 794 275 728 218 c 0
 653 153 578 145 492 145 c 0
 476 145 461 148 448 153 c 1
 388 65 276 -8 143 -8 c 0
 49 -8 -31 31 -31 118 c 0xaf80
212 239 m 0
 212 233 212 229 214 226 c 0
 232 190 258 171 303 171 c 0x9f80
 311 171 320 172 328 173 c 1
 337 191 346 210 356 232 c 0
 412 355 475 460 546 547 c 1
 555 557 l 1
 555 560 555 563 555 566 c 0
 555 595 532 614 503 614 c 0
 458 614 406 579 348 509 c 0
 304 455 272 397 241 341 c 0
 231 323 212 268 212 239 c 0
457 166 m 1
 462 165 467 164 473 164 c 0xaf80
 518 164 565 175 623 245 c 0
 667 299 699 357 730 413 c 0
 740 431 759 486 759 515 c 0
 759 521 759 525 757 528 c 0
 739 564 713 589 668 589 c 0
 651 589 628 585 610 578 c 1
 591 542 575 502 561 456 c 2
 494 239 l 1
 483 213 471 188 457 166 c 1
EndSplineSet
Validated: 1
EndChar

StartChar: Tse
Encoding: 1062 1062 75
Width: 1001
VWidth: 487
Flags: W
HStem: -212 14<608.725 655.651> -10 15<412.969 464.686 667 711.223> 242 17<141.973 210.813> 681 15<400.709 520.955>
VStem: 80 16<305.649 395.992> 342 65<21.5 137> 376 33<471.785 581.194> 564 32<-193.324 -135.199> 583 74<490 607.723> 619 68<15.5407 81.495>
LayerCount: 2
Fore
SplineSet
80 343 m 0xfa80
 80 467 205 592 294 646 c 0
 349 679 405 696 462 696 c 0
 571 696 657 631 657 525 c 0xfa80
 657 455 623 402 581 340 c 2
 513 242 l 2
 442 139 407 68 407 30 c 0
 407 13 416 5 434 5 c 0
 447 5 462 10 481 20 c 0
 530 45 588 109 654 212 c 1
 786 429 l 2
 824 493 865 555 908 615 c 1
 943 619 983 621 1027 623 c 1
 974 546 922 462 871 372 c 2
 764 181 l 2
 751 159 732 126 708 81 c 1
 694 51 687 30 687 19 c 0
 687 13 690 10 697 10 c 0
 712 10 733 20 761 40 c 0
 802 70 840 111 875 163 c 1
 889 155 l 1
 855 71 860 27 854 4 c 1
 921 28 949 84 1006 159 c 1
 1020 150 l 1
 957 65 926 5 850 -16 c 1
 841 -60 804 -122 784 -141 c 0
 734 -189 684 -212 635 -212 c 0
 600 -212 564 -195 564 -162 c 0
 564 -132 592 -102 649 -71 c 0
 667 -61 709 -43 775 -16 c 1
 809 61 l 1
 767 20 721 -8 688 -8 c 0
 646 -8 619 35 619 79 c 0
 619 100 626 128 640 161 c 1
 601 110 570 74 550 54 c 0
 507 12 469 -10 434 -10 c 0
 376 -10 342 54 342 117 c 0xfd40
 342 157 354 200 380 247 c 0
 390 265 415 301 455 357 c 0
 495 414 524 458 542 489 c 0
 570 538 583 576 583 605 c 0
 583 659 525 681 465 681 c 0
 378 681 295 642 215 565 c 0
 135 488 96 414 96 343 c 0
 96 296 128 259 175 259 c 0
 221 259 267 298 313 375 c 0
 355 446 376 505 376 554 c 0
 376 561 375 577 372 598 c 1
 387 600 l 1
 402 554 409 512 409 474 c 0
 409 406 384 349 335 303 c 0
 292 262 244 242 190 242 c 0
 125 242 80 279 80 343 c 0xfa80
596 -170 m 0xf9
 596 -186 613 -198 629 -198 c 0
 672 -198 718 -144 767 -36 c 1
 653 -89 596 -133 596 -170 c 0xf9
EndSplineSet
Validated: 1
EndChar

StartChar: Che
Encoding: 1063 1063 76
Width: 741
VWidth: 487
Flags: W
HStem: -8 18<537 596.856> 237 15<437.365 487.63> 336 16<141.678 202.78> 685 15<362.684 473.226>
VStem: 105 16<374.4 455.183> 348 13<563.333 603> 368 67<261.5 345> 489 69<15.5407 81.6202> 509 69<553 653>
LayerCount: 2
Fore
SplineSet
105 411 m 0xfe80
 105 516 214 623 291 666 c 0
 332 689 375 700 420 700 c 0
 505 700 578 648 578 567 c 0xfe80
 578 539 571 512 558 486 c 1
 558 486 435 293 435 266 c 0
 435 257 442 252 455 252 c 0
 502 252 565 304 644 408 c 1
 687 479 731 548 779 615 c 1
 814 619 853 621 897 623 c 1
 844 546 792 462 741 372 c 2
 634 181 l 2
 621 159 603 126 579 81 c 1
 565 51 558 30 558 19 c 0
 558 13 561 10 568 10 c 0
 583 10 604 20 632 40 c 0
 673 70 711 111 746 163 c 1
 759 155 l 1
 718 97 631 -8 558 -8 c 0
 516 -8 489 35 489 79 c 0xff
 489 100 496 167 525 212 c 0
 532 222 553 257 589 317 c 1
 581 308 573 299 566 293 c 0
 525 256 487 237 451 237 c 0
 404 237 368 281 368 328 c 0
 368 362 380 400 404 446 c 0
 410 457 433 494 473 556 c 0
 497 594 509 621 509 637 c 0
 509 669 480 685 421 685 c 0
 347 685 279 653 216 591 c 0
 177 552 121 477 121 411 c 0
 121 372 137 352 172 352 c 0
 234 352 292 445 319 499 c 0
 335 532 345 567 348 603 c 1
 361 603 l 1
 363 583 364 570 364 563 c 0
 364 509 347 459 314 413 c 0
 278 362 235 336 183 336 c 0
 131 336 105 361 105 411 c 0xfe80
EndSplineSet
Validated: 1
EndChar

StartChar: Sha
Encoding: 1064 1064 77
Width: 1158
VWidth: 487
Flags: W
HStem: -10 15<412.969 464.686 700.969 753.944 955 997.977> 242 17<141.973 210.813> 681 15<400.709 520.955>
VStem: 80 16<305.649 395.992> 342 65<21.5 137> 376 33<471.785 581.194> 583 74<490 607.723> 630 65<21.5 124> 907 68<15.5407 80.9901>
LayerCount: 2
Fore
SplineSet
80 343 m 0xf680
 80 467 205 592 294 646 c 0
 349 679 405 696 462 696 c 0
 571 696 657 631 657 525 c 0xf680
 657 455 623 402 581 340 c 2
 513 242 l 2
 442 139 407 68 407 30 c 0
 407 13 416 5 434 5 c 0
 447 5 462 10 481 20 c 0
 530 45 588 109 654 212 c 1
 786 429 l 2
 824 493 865 555 908 615 c 1
 943 619 983 621 1027 623 c 1
 974 546 922 462 871 372 c 2
 804 252 l 1
 795 231 781 212 771 194 c 2
 764 181 l 1
 724 113 695 59 695 30 c 0
 695 13 704 5 722 5 c 0
 735 5 751 10 770 20 c 0
 819 45 876 109 942 212 c 1
 1074 429 l 2
 1112 493 1153 555 1196 615 c 1
 1231 619 1271 621 1315 623 c 1
 1262 546 1210 462 1159 372 c 2
 1052 181 l 2
 1039 159 1021 126 997 81 c 1
 983 51 975 30 975 19 c 0
 975 13 978 10 985 10 c 0
 1000 10 1021 20 1049 40 c 0
 1090 70 1128 111 1163 163 c 1
 1177 155 l 1
 1136 97 1049 -8 976 -8 c 0
 934 -8 907 35 907 79 c 0
 907 100 914 128 928 161 c 1
 889 110 858 74 838 54 c 0
 795 12 757 -10 722 -10 c 0
 664 -10 630 54 630 117 c 0
 630 131 631 143 635 155 c 1
 598 107 569 73 550 54 c 0
 507 12 469 -10 434 -10 c 0
 376 -10 342 54 342 117 c 0xf980
 342 157 354 200 380 247 c 0
 390 265 415 301 455 357 c 0
 495 414 524 458 542 489 c 0
 570 538 583 576 583 605 c 0
 583 659 525 681 465 681 c 0
 378 681 295 642 215 565 c 0
 135 488 96 414 96 343 c 0
 96 296 128 259 175 259 c 0
 221 259 267 298 313 375 c 0
 355 446 376 505 376 554 c 0
 376 561 375 577 372 598 c 1
 387 600 l 1
 402 554 409 512 409 474 c 0
 409 406 384 349 335 303 c 0
 292 262 244 242 190 242 c 0
 125 242 80 279 80 343 c 0xf680
EndSplineSet
Validated: 1
EndChar

StartChar: Shcha
Encoding: 1065 1065 78
Width: 1290
VWidth: 487
Flags: W
HStem: -212 14<896.725 943.651> -10 15<412.969 464.686 700.969 753.944 955 999.223> 242 17<141.973 210.813> 681 15<400.709 520.955>
VStem: 80 16<305.649 395.992> 342 65<21.5 137> 376 33<471.785 581.194> 583 74<490 607.723> 630 65<21.5 124> 852 32<-193.324 -135.199> 907 68<15.5407 80.9901>
LayerCount: 2
Fore
SplineSet
80 343 m 0xfb60
 80 467 205 592 294 646 c 0
 349 679 405 696 462 696 c 0
 571 696 657 631 657 525 c 0xfb60
 657 455 623 402 581 340 c 2
 513 242 l 2
 442 139 407 68 407 30 c 0
 407 13 416 5 434 5 c 0
 447 5 462 10 481 20 c 0
 530 45 588 109 654 212 c 1
 786 429 l 2
 824 493 865 555 908 615 c 1
 943 619 983 621 1027 623 c 1
 974 546 922 462 871 372 c 2
 804 252 l 1
 795 231 781 212 771 194 c 2
 764 181 l 1
 724 113 695 59 695 30 c 0
 695 13 704 5 722 5 c 0
 735 5 751 10 770 20 c 0
 819 45 876 109 942 212 c 1
 1074 429 l 2
 1112 493 1153 555 1196 615 c 1
 1231 619 1271 621 1315 623 c 1
 1262 546 1210 462 1159 372 c 2
 1052 181 l 2
 1039 159 1021 126 997 81 c 1
 983 51 975 30 975 19 c 0
 975 13 978 10 985 10 c 0
 1000 10 1021 20 1049 40 c 0
 1090 70 1128 111 1163 163 c 1
 1164 163 l 1
 1177 155 l 1
 1143 71 1148 27 1142 4 c 1
 1209 28 1237 84 1294 159 c 1
 1308 150 l 1
 1245 65 1214 5 1138 -16 c 1
 1129 -60 1092 -122 1072 -141 c 0
 1022 -189 972 -212 923 -212 c 0
 888 -212 852 -195 852 -162 c 0
 852 -132 880 -102 937 -71 c 0
 955 -61 997 -43 1063 -16 c 1
 1097 61 l 1
 1055 20 1009 -8 976 -8 c 0
 934 -8 907 35 907 79 c 0
 907 100 914 128 928 161 c 1
 889 110 858 74 838 54 c 0
 795 12 757 -10 722 -10 c 0
 664 -10 630 54 630 117 c 0
 630 131 631 143 635 155 c 1
 598 107 569 73 550 54 c 0
 507 12 469 -10 434 -10 c 0
 376 -10 342 54 342 117 c 0xfce0
 342 157 354 200 380 247 c 0
 390 265 415 301 455 357 c 0
 495 414 524 458 542 489 c 0
 570 538 583 576 583 605 c 0
 583 659 525 681 465 681 c 0
 378 681 295 642 215 565 c 0
 135 488 96 414 96 343 c 0
 96 296 128 259 175 259 c 0
 221 259 267 298 313 375 c 0
 355 446 376 505 376 554 c 0
 376 561 375 577 372 598 c 1
 387 600 l 1
 402 554 409 512 409 474 c 0
 409 406 384 349 335 303 c 0
 292 262 244 242 190 242 c 0
 125 242 80 279 80 343 c 0xfb60
884 -170 m 0
 884 -186 901 -198 917 -198 c 0
 960 -198 1006 -144 1055 -36 c 1
 941 -89 884 -133 884 -170 c 0
EndSplineSet
Validated: 1
EndChar

StartChar: Hard
Encoding: 1066 1066 79
Width: 797
VWidth: 487
Flags: W
HStem: -11 15<494.675 582.698> 369 15<724.316 785.613> 417 17<324 371.859> 588 16<315.477 352.774>
VStem: 290 52<434.402 470.526> 353 47<548.609 587.575> 374 91<46.5 208.808> 566 15<98 148.754> 805 29<232.653 345.447>
LayerCount: 2
Fore
SplineSet
130 426 m 1xfd80
 226 544 299 604 350 604 c 0
 378 604 400 584 400 556 c 0xfd80
 400 533 390 508 371 481 c 0
 352 454 342 440 342 439 c 0
 342 436 344 434 349 434 c 0
 367 434 410 460 477 511 c 0
 551 567 611 621 657 673 c 1
 669 664 l 1
 624 613 588 544 561 456 c 2
 494 239 l 1
 482 195 465 91 465 68 c 0
 465 25 487 4 531 4 c 0
 621 4 714 65 787 224 c 0
 801 255 805 293 805 317 c 0
 805 352 789 369 757 369 c 0
 724 369 676 340 643 299 c 24
 607 255 601 217 591 164 c 0
 589 153 585 131 581 98 c 1
 566 98 l 1
 572 180 581 238 629 309 c 24
 661 357 716 384 757 384 c 0
 808 384 834 338 834 284 c 0
 834 258 823 205 785 152 c 0
 712 51 614 -11 532 -11 c 0
 430 -11 374 81 374 189 c 0xfb80
 374 291 458 450 546 547 c 1
 487 497 436 460 394 436 c 0
 372 424 352 417 336 417 c 0
 312 417 290 437 290 461 c 0
 290 481 300 505 321 534 c 0
 342 563 353 578 353 579 c 0
 353 586 348 588 340 588 c 0
 300 588 234 532 143 417 c 1
 130 426 l 1xfd80
EndSplineSet
Validated: 1
EndChar

StartChar: Yeri
Encoding: 1067 1067 80
Width: 812
VWidth: 487
Flags: W
HStem: -11 15<212.675 300.698> -7 19<624 681.09> 369 15<442.428 504.25> 657 20G<908 1008.61> 691 14<567.516 632.243>
VStem: 92 91<46.5 240> 284 15<98 148.754> 523 29<232.653 346.546> 576 69<12.5011 75.6972> 634 70<622.5 683.016>
LayerCount: 2
Fore
SplineSet
92 189 m 0xbf80
 92 291 136 390 224 487 c 0
 310 581 465 705 617 705 c 0
 661 705 704 680 704 638 c 0
 704 607 679 582 648 582 c 0
 624 582 600 601 600 625 c 0
 600 639 605 652 617 662 c 0
 629 672 634 678 634 680 c 0
 634 687 628 691 616 691 c 0
 556 691 495 659 430 597 c 0
 383 552 337 485 292 397 c 0
 251 317 221 241 201 169 c 0
 189 125 183 91 183 68 c 0
 183 25 205 4 249 4 c 0xbf40
 339 4 432 65 505 224 c 0
 519 255 523 293 523 317 c 0
 523 352 507 369 475 369 c 0
 442 369 394 340 361 299 c 0
 325 255 319 217 309 164 c 0
 307 153 303 131 299 98 c 1
 284 98 l 1
 290 180 299 238 347 309 c 0
 379 357 434 384 475 384 c 0
 477 384 479 384 481 384 c 0
 510 387 568 389 608 404 c 0
 665 426 696 444 742 485 c 0
 814 549 908 669 908 669 c 1
 1021 677 l 1
 881 451 l 1
 829 369 742 215 670 83 c 1
 654 51 645 30 645 21 c 0
 645 15 648 12 655 12 c 0
 680 12 711 35 750 82 c 2
 816 163 l 1
 830 154 l 1
 784 96 757 63 749 55 c 0
 710 14 675 -7 644 -7 c 0x7f80
 604 -7 576 23 576 63 c 0
 576 89 585 122 604 160 c 0
 620 194 777 451 867 601 c 1
 833 561 786 508 746 472 c 0
 683 417 623 378 517 371 c 1
 541 353 552 320 552 284 c 0
 552 258 541 205 503 152 c 0
 430 51 332 -11 250 -11 c 0
 148 -11 92 81 92 189 c 0xbf80
EndSplineSet
Validated: 1
EndChar

StartChar: Soft
Encoding: 1068 1068 81
Width: 515
VWidth: 487
Flags: W
HStem: -11 15<212.675 300.698> 369 15<442.316 503.613> 691 14<567.516 632.243>
VStem: 92 91<46.5 240> 284 15<98 148.754> 523 29<232.653 345.447> 634 70<622.5 683.016>
LayerCount: 2
Fore
SplineSet
92 189 m 0
 92 291 136 390 224 487 c 0
 310 581 465 705 617 705 c 0
 661 705 704 680 704 638 c 0
 704 607 679 582 648 582 c 0
 624 582 600 601 600 625 c 0
 600 639 605 652 617 662 c 0
 629 672 634 678 634 680 c 0
 634 687 628 691 616 691 c 0
 556 691 495 659 430 597 c 0
 383 552 337 485 292 397 c 0
 251 317 221 241 201 169 c 0
 189 125 183 91 183 68 c 0
 183 25 205 4 249 4 c 0
 339 4 432 65 505 224 c 0
 519 255 523 293 523 317 c 0
 523 352 507 369 475 369 c 0
 442 369 394 340 361 299 c 24
 325 255 319 217 309 164 c 0
 307 153 303 131 299 98 c 1
 284 98 l 1
 290 180 299 238 347 309 c 24
 379 357 434 384 475 384 c 0
 526 384 552 338 552 284 c 4
 552 258 541 205 503 152 c 0
 430 51 332 -11 250 -11 c 0
 148 -11 92 81 92 189 c 0
EndSplineSet
Validated: 1
EndChar

StartChar: Ecyrilrev
Encoding: 1069 1069 82
Width: 598
VWidth: 487
Flags: W
HStem: -9 15<133.801 232.342> 119 65<76.7343 150.5> 274 17<386 434.005> 387 16<338.335 375.774> 470 15<297.069 352.448> 685 15<438.256 538.801>
VStem: 47 16<60.3451 116.114> 264 17<499.611 558.405> 352 52<291.402 364.564> 376 47<333.466 386.575> 428 26<555.28 628.398> 595 93<463.725 594.59>
LayerCount: 2
Fore
SplineSet
47 95 m 0xffb0
 47 145 85 184 135 184 c 0
 166 184 198 163 198 131 c 0
 198 100 175 81 144 81 c 0
 128 81 114 87 101 100 c 0
 88 113 81 119 78 119 c 0
 68 119 63 110 63 92 c 0
 63 37 122 6 182 6 c 0
 212 6 239 13 265 26 c 0
 291 39 317 60 345 89 c 0
 406 153 461 230 510 320 c 1
 517 332 l 1
 495 316 474 304 456 293 c 1
 434 281 414 274 398 274 c 0
 374 274 352 294 352 318 c 0xffb0
 352 330 356 341 361 354 c 0
 365 364 376 377 376 378 c 0
 376 385 371 387 363 387 c 0
 338 387 304 365 260 322 c 1
 249 331 l 1
 299 379 341 403 373 403 c 0
 401 403 423 383 423 355 c 0xff70
 423 344 421 334 417 321 c 0
 414 311 404 297 404 296 c 0
 404 293 406 291 411 291 c 0
 428 291 469 315 532 363 c 1
 574 449 595 522 595 585 c 0
 595 651 560 685 491 685 c 0
 463 685 447 684 421 675 c 0
 363 655 298 602 283 541 c 0
 282 536 281 531 281 526 c 0
 281 501 297 485 322 485 c 0
 330 485 339 486 348 490 c 0
 395 508 428 560 428 610 c 0
 428 615 428 621 427 626 c 1
 445 633 l 1
 451 619 454 605 454 591 c 0
 454 565 443 541 422 519 c 0
 402 498 363 470 323 470 c 0
 288 470 264 490 264 520 c 0
 264 524 264 529 265 534 c 0
 278 611 372 679 443 694 c 0
 461 698 472 700 490 700 c 0
 555 700 606 677 643 631 c 0
 673 594 688 553 688 507 c 0
 688 487 685 464 679 437 c 1
 679 437 640 310 588 246 c 0
 489 123 400 53 292 14 c 0
 250 -1 212 -9 178 -9 c 0
 110 -9 47 30 47 95 c 0xffb0
EndSplineSet
Validated: 1
EndChar

StartChar: Iu
Encoding: 1070 1070 83
Width: 1091
VWidth: 487
Flags: W
HStem: -8 15<78.6999 184.147 717.997 820.455> 114 99<64.7333 105.089> 320 18<590.5 629> 396 21<551.04 594> 417 17<324 371.859> 570 15<1066.13 1128.61> 588 16<315.477 352.774> 691 14<1078.97 1165.28>
VStem: -31 40<52.6576 145> 290 52<434.402 470.526> 353 47<548.609 587.575> 557 54<338.272 395.999> 602 91<46.5 212> 794 15<98 147.427> 1148 29<437.083 546.447> 1220 18<575.388 649.577>
LayerCount: 2
Fore
SplineSet
-31 118 m 0xf7f7
 -31 172 4 213 58 213 c 0
 90 213 117 190 117 158 c 0
 117 137 108 123 89 114 c 1
 37 99 l 2
 18 93 9 82 9 67 c 0
 9 46 25 31 58 20 c 0
 82 12 107 7 133 7 c 0
 180 7 220 23 253 56 c 0
 280 83 315 141 356 232 c 0
 412 355 475 460 546 547 c 1
 487 497 436 460 394 436 c 0
 372 424 352 417 336 417 c 0
 312 417 290 437 290 461 c 0
 290 481 300 505 321 534 c 0
 342 563 353 578 353 579 c 0
 353 586 348 588 340 588 c 0
 300 588 234 532 143 417 c 1
 130 426 l 1
 226 544 299 604 350 604 c 0
 378 604 400 584 400 556 c 0
 400 533 390 508 371 481 c 0
 352 454 342 440 342 439 c 0
 342 436 344 434 349 434 c 0xeff7
 367 434 410 460 477 511 c 0
 551 567 611 621 657 673 c 1
 669 664 l 1
 624 613 588 544 561 456 c 2
 546 408 l 1
 557 413 569 417 579 417 c 0
 609 417 611 413 611 388 c 2
 611 378 l 2xf7f7
 611 361 609 351 609 349 c 0
 609 344 615 338 625 338 c 0
 628 338 631 339 635 340 c 1
 688 458 802 567 911 634 c 0
 989 682 1062 705 1127 705 c 0
 1183 705 1238 670 1238 618 c 0
 1238 603 1233 583 1223 560 c 1
 1207 565 l 1
 1216 585 1220 603 1220 617 c 0
 1220 663 1174 691 1126 691 c 0
 1066 691 1005 659 940 597 c 0
 893 552 847 485 802 397 c 0
 761 317 731 241 711 169 c 0
 699 125 693 91 693 68 c 0
 693 25 715 4 759 4 c 0
 870 4 974 98 1071 286 c 0
 1122 386 1148 463 1148 518 c 0
 1148 553 1132 570 1100 570 c 0
 1067 570 1030 547 986 500 c 0
 951 462 916 409 883 342 c 0
 850 276 829 217 819 164 c 0
 817 153 813 131 809 98 c 1
 794 98 l 1
 801 193 835 293 895 398 c 0
 966 523 1035 585 1100 585 c 0
 1151 585 1177 539 1177 485 c 0
 1177 403 1135 309 1054 201 c 0
 948 60 850 -11 760 -11 c 0
 658 -11 602 81 602 189 c 0xf7ef
 602 235 611 281 629 326 c 1
 617 323 604 320 594 320 c 0
 587 320 580 322 574 326 c 0
 557 337 557 343 557 364 c 0
 557 379 559 392 559 393 c 0
 559 395 558 396 556 396 c 0
 552 396 547 394 541 391 c 1
 494 239 l 1
 439 104 320 -8 143 -8 c 0
 49 -8 -31 31 -31 118 c 0xf7f7
639 328 m 1
 639 328 l 1
EndSplineSet
Validated: 1
EndChar

StartChar: Ia
Encoding: 1071 1071 84
Width: 699
VWidth: 487
Flags: W
HStem: -9 15<55.3249 160.501 506.5 560.36> 107 103<48.4167 98.7458> 691 14<540.455 655.047>
VStem: -38 37<47.7846 136.5> 260 92<365.908 531.762> 453 76<18 140> 710 18<616.016 649.496>
LayerCount: 2
Fore
SplineSet
-38 110 m 0
 -38 163 -1 210 51 210 c 0
 83 210 111 187 111 156 c 0
 111 135 100 119 77 107 c 1
 28 95 l 2
 8 90 -1 80 -1 64 c 0
 -1 24 61 6 107 6 c 0
 161 6 211 26 258 66 c 0
 287 91 320 128 358 174 c 2
 438 274 l 1
 387 279 317 313 290 352 c 0
 268 385 260 410 260 454 c 2
 260 470 l 1
 262 526 326 609 404 660 c 0
 470 704 542 705 604 705 c 2
 617 705 l 2
 673 705 728 670 728 618 c 2
 728 616 l 1
 758 646 785 668 808 685 c 0
 819 693 827 697 832 697 c 0
 841 697 846 693 846 686 c 0
 846 679 839 668 828 652 c 0
 809 625 787 592 764 551 c 0
 737 503 716 463 699 428 c 0
 586 192 529 57 529 23 c 0
 529 13 534 8 543 8 c 0
 586 8 677 125 704 163 c 1
 718 155 l 1
 636 45 574 -10 531 -10 c 0
 482 -10 453 48 453 100 c 0
 453 180 498 282 588 406 c 0
 631 466 695 542 801 660 c 1
 707 580 600 457 478 293 c 2
 410 202 l 2
 384 167 359 138 337 115 c 0
 260 32 183 -9 105 -9 c 0
 26 -9 -38 34 -38 110 c 0
352 376 m 0
 352 333 406 288 450 288 c 1
 643 526 l 1
 707 595 l 1
 709 603 710 610 710 617 c 0
 710 663 664 691 616 691 c 0
 556 691 498 685 433 623 c 0
 387 580 370 542 358 480 c 0
 352 448 352 399 352 376 c 0
EndSplineSet
Validated: 1
EndChar

StartChar: be
Encoding: 1073 1073 86
Width: 386
VWidth: 487
Flags: W
HStem: -7 18<116.214 175.204> 44 17<264.081 298.236> 329 18<263.972 317.245> 491 74<478.986 610.294> 505 60<444.874 555.102>
VStem: 19 93<26.5 124.016>
LayerCount: 2
Fore
SplineSet
0 156 m 1xec
 91 283 181 347 269 347 c 0
 303 347 327 339 343 322 c 1
 375 454 l 2
 386 499 408 524 449 546 c 0
 479 562 504 565 532 565 c 0
 547 565 562 564 579 564 c 0
 614 564 639 573 656 592 c 1
 668 584 l 1
 641 522 595 491 531 491 c 0xf4
 522 491 499 505 478 505 c 0
 471 505 465 503 459 500 c 0
 425 479 412 452 403 413 c 2
 364 240 l 2
 352 186 325 126 264 64 c 1
 267 61 269 61 274 61 c 0
 299 61 338 95 391 162 c 1
 405 154 l 1
 377 119 357 95 345 83 c 0
 317 57 291 44 265 44 c 0
 258 44 252 45 246 47 c 1
 205 11 166 -7 131 -7 c 0
 67 -7 19 45 19 109 c 0
 19 127 24 150 35 177 c 1
 13 148 l 1
 0 156 l 1xec
112 34 m 0
 112 19 121 11 139 11 c 0
 168 11 198 25 230 55 c 1
 226 61 225 66 225 72 c 0
 225 91 234 101 255 101 c 0
 257 101 260 101 263 100 c 1
 309 172 331 231 331 276 c 0
 331 311 318 329 292 329 c 0
 257 329 217 288 173 207 c 0
 132 131 112 74 112 34 c 0
EndSplineSet
Validated: 1
EndChar

StartChar: ve
Encoding: 1074 1074 87
Width: 424
VWidth: 487
Flags: W
HStem: -7 17<133.971 186.204> 81 15<318.16 368.51> 261 88<333.703 395.242> 656 15<460.111 508.898>
VStem: 58 75<17.4985 95.9596> 260 20<124.302 204.848> 377 38<219.559 318> 511 42<578.648 655.946>
LayerCount: 2
Fore
SplineSet
0 156 m 1
 19 184 60 213 123 242 c 1
 171 337 223 422 278 497 c 0
 364 614 436 671 495 671 c 0
 525 671 553 650 553 620 c 0
 553 600 544 574 527 544 c 0
 480 460 382 364 229 256 c 1
 213 219 189 170 160 109 c 1
 142 66 133 39 133 23 c 0
 133 14 140 10 153 10 c 0
 190 10 237 38 293 94 c 1
 271 114 260 139 260 169 c 0
 260 214 279 261 317 309 c 0
 338 336 359 349 379 349 c 0
 403 349 415 334 415 302 c 0
 415 243 382 175 318 98 c 1
 324 96 330 96 337 96 c 0
 356 96 373 103 390 118 c 0
 397 125 411 140 429 163 c 1
 442 155 l 1
 423 130 407 113 397 105 c 0
 378 89 358 81 337 81 c 0
 327 81 318 82 308 86 c 1
 245 24 189 -7 141 -7 c 0
 92 -7 58 27 58 76 c 0
 58 87 60 100 64 115 c 1
 62 119 62 121 64 121 c 1
 77 153 90 180 110 218 c 1
 62 195 30 171 13 147 c 1
 0 156 l 1
240 283 m 1
 309 332 361 379 396 425 c 0
 442 484 476 542 498 597 c 0
 506 618 511 633 511 640 c 0
 511 651 504 656 491 656 c 0
 459 656 428 634 397 590 c 0
 376 560 349 510 316 442 c 0
 298 407 273 354 240 283 c 1
280 159 m 0
 280 138 288 119 304 105 c 1
 353 163 377 207 377 236 c 0
 377 249 365 261 352 261 c 0
 333 261 315 249 300 224 c 0
 286 202 280 180 280 159 c 0
EndSplineSet
Validated: 1
EndChar

StartChar: ge
Encoding: 1075 1075 88
Width: 322
VWidth: 487
Flags: W
HStem: -7 18<140.166 190.807> 326 21<168.945 226.5>
VStem: 74 66<11.4562 93.5> 191 74<267.646 325.874>
LayerCount: 2
Fore
SplineSet
0 156 m 1
 55 228 85 273 139 317 c 0
 164 337 186 347 207 347 c 0
 246 347 265 326 265 283 c 0
 265 257 256 224 241 190 c 24
 225 152 221 147 187 98 c 0
 156 52 140 26 140 21 c 0
 140 14 145 11 156 11 c 0
 184 11 216 30 252 69 c 0
 262 79 287 110 327 162 c 1
 340 154 l 1
 282 80 l 2
 260 53 241 34 226 22 c 0
 201 3 174 -7 147 -7 c 0
 98 -7 74 22 74 78 c 0
 74 109 84 143 106 180 c 0
 117 199 146 230 167 264 c 24
 179 283 191 307 191 317 c 0
 191 323 189 326 184 326 c 0
 160 326 103 267 13 148 c 1
 0 156 l 1
EndSplineSet
Validated: 1
EndChar

StartChar: zhe
Encoding: 1078 1078 92
Width: 904
VWidth: 487
Flags: W
HStem: -7 18<658.109 740.528> 0 17<71.6288 122.735> 328 20G<507 619.5> 330 17<810.336 861.227> 335 19<191.85 277.112>
VStem: 19 51<25.6786 88> 281 94<225.421 320.5> 559 93<26.5 121.346> 863 52<259 321.212>
LayerCount: 2
Fore
SplineSet
0 156 m 1x4f80
 55 228 85 273 139 317 c 0
 147 323 153 329 161 333 c 0
 172 340 184 343 194 345 c 1
 212 351 230 354 252 354 c 0x4f80
 320 354 375 305 375 238 c 0
 375 219 370 198 361 177 c 1
 366 184 372 192 378 199 c 2
 430 263 l 1
 446 281 472 306 507 340 c 1
 635 348 l 1x2780
 604 298 559 220 502 117 c 0
 498 109 494 102 488 96 c 1
 488 95 l 1
 509 123 531 146 551 169 c 1
 638 288 726 347 814 347 c 0
 867 347 915 322 915 273 c 0
 915 245 894 223 866 223 c 0
 843 223 820 242 820 265 c 0
 820 285 830 299 848 307 c 0
 858 311 863 314 863 316 c 0
 863 325 854 330 838 330 c 0
 803 330 763 289 717 208 c 0
 674 132 652 74 652 34 c 0
 652 19 663 11 684 11 c 0
 730 11 772 27 813 59 c 0
 839 79 871 113 909 162 c 1
 922 154 l 1
 880 100 846 62 820 42 c 0
 778 9 732 -7 681 -7 c 0
 613 -7 559 41 559 108 c 0
 559 128 564 149 573 171 c 1
 555 148 l 2
 521 104 480 57 439 7 c 1
 305 -7 l 1x9780
 362 78 405 147 435 200 c 1
 451 232 472 269 497 310 c 1
 469 285 433 245 391 191 c 1
 392 190 l 1
 302 63 210 0 119 0 c 0
 66 0 19 25 19 74 c 0
 19 102 39 124 67 124 c 0
 90 124 113 105 113 82 c 0
 113 62 103 48 85 40 c 0
 75 36 70 32 70 30 c 0
 70 21 79 17 95 17 c 0
 130 17 170 58 216 139 c 0
 259 215 281 273 281 313 c 0
 281 328 271 335 250 335 c 0
 226 335 202 330 181 322 c 16
 153 312 100 264 13 148 c 1
 0 156 l 1x4f80
EndSplineSet
Validated: 1
EndChar

StartChar: ze
Encoding: 1079 1079 93
Width: 428
VWidth: 487
Flags: W
HStem: -216 18<73.4142 109.802> 78 66<102.766 225.484> 334 19<187.026 258.383>
VStem: 45 24<-196.846 -125.248> 279 81<181.42 305.428>
LayerCount: 2
Fore
SplineSet
0 155 m 1
 55 227 85 272 139 316 c 0
 160 333 179 343 197 346 c 1
 214 351 221 353 242 353 c 0
 310 353 360 304 360 237 c 0
 360 218 359 211 350 190 c 8
 333 151 299 137 268 118 c 1
 281 109 304 62 308 42 c 1
 347 54 375 86 433 161 c 1
 446 152 l 1
 386 75 352 41 311 28 c 1
 313 21 315 11 315 -2 c 0
 315 -24 311 -51 301 -75 c 8
 284 -116 280 -132 233 -167 c 0
 190 -199 142 -216 87 -216 c 0
 64 -216 45 -189 45 -166 c 0
 45 -93 167 -13 231 13 c 1
 234 27 243 71 243 97 c 2
 243 105 l 1
 210 90 175 81 142 80 c 0
 135 79 127 78 119 78 c 0
 99 78 90 85 90 101 c 0
 90 130 146 144 180 144 c 2
 194 144 l 2
 204 144 215 143 226 140 c 1
 240 152 248 166 260 186 c 0
 278 219 279 243 279 279 c 2
 279 286 l 2
 279 301 261 334 240 334 c 0
 216 334 210 331 185 326 c 0
 153 320 100 262 13 146 c 1
 0 155 l 1
69 -166 m 0
 69 -187 75 -198 87 -198 c 0
 139 -198 209 -57 227 -4 c 1
 122 -63 69 -117 69 -166 c 0
EndSplineSet
Validated: 1
EndChar

StartChar: ka
Encoding: 1082 1082 96
Width: 533
VWidth: 487
Flags: W
HStem: -7 19<322.5 402.828> 189 31<253.583 311.745> 326 21<168.945 226.5> 333 16<447.722 488.5>
VStem: 191 74<253.353 325.874> 266 98<12.528 86.7146> 317 79<136.999 190.654>
LayerCount: 2
Fore
SplineSet
0 156 m 1xe8
 55 228 85 273 139 317 c 0
 164 337 186 347 207 347 c 0
 246 347 265 326 265 283 c 0
 265 257 257 226 241 190 c 0
 235 176 201 106 181 68 c 0
 169 46 145 7 145 7 c 1
 10 -7 l 1
 130 172 191 280 191 317 c 0
 191 323 189 326 184 326 c 0
 160 326 103 267 13 148 c 1
 0 156 l 1xe8
251 198 m 0
 251 210 272 217 312 220 c 0
 320 221 329 225 339 234 c 1
 401 304 l 1
 429 334 453 349 474 349 c 0
 503 349 537 324 537 295 c 0
 537 270 517 250 492 250 c 0
 471 250 451 267 451 288 c 0
 451 297 454 306 462 315 c 2
 474 329 l 1
 474 332 472 333 468 333 c 0
 453 333 429 314 399 277 c 0
 374 247 354 226 336 215 c 1
 376 198 396 173 396 139 c 0xda
 396 122 391 99 380 70 c 0
 369 41 364 25 364 22 c 0
 364 15 368 12 375 12 c 0
 399 12 429 33 466 73 c 0
 475 83 499 113 538 163 c 1
 551 155 l 1
 493 81 l 2
 455 34 421 -7 351 -7 c 0
 294 -7 266 13 266 53 c 0xdc
 266 72 274 98 291 129 c 0
 308 160 317 180 317 189 c 0xda
 317 194 315 198 312 203 c 1
 307 202 274 189 264 189 c 0
 256 189 251 192 251 198 c 0
EndSplineSet
Validated: 1
EndChar

StartChar: el
Encoding: 1083 1083 97
Width: 577
VWidth: 487
Flags: W
HStem: -7 18<386.001 445.346> 0 17<18.0826 111.244> 328 20G<453 569.321> 328 20G<453 569.321>
VStem: -35 52<25.6786 88> 333 76<11.4753 76.1328>
LayerCount: 2
Fore
SplineSet
-35 74 m 0x4c
 -35 102 -15 124 13 124 c 0
 36 124 59 105 59 82 c 0
 59 62 50 48 32 40 c 0
 22 36 17 32 17 30 c 0
 17 21 25 17 41 17 c 0x4c
 76 17 158 18 246 109 c 0
 272 136 318 192 324 199 c 2
 376 263 l 1
 392 281 418 306 453 340 c 1
 581 348 l 1
 501 211 l 2
 470 157 446 110 428 70 c 0
 415 42 409 25 409 20 c 0
 409 14 412 11 419 11 c 0
 442 11 472 32 509 72 c 0
 520 84 545 113 582 162 c 1
 595 154 l 1
 574 131 556 105 537 80 c 1
 515 53 496 34 480 22 c 0
 455 3 429 -7 403 -7 c 0x9c
 363 -7 333 23 333 63 c 0
 333 88 342 121 361 161 c 1
 385 207 419 264 443 310 c 1
 415 285 380 245 338 191 c 1
 338 190 l 1
 248 63 156 0 65 0 c 0
 12 0 -35 25 -35 74 c 0x4c
EndSplineSet
Validated: 1
EndChar

StartChar: em
Encoding: 1084 1084 98
Width: 826
VWidth: 487
Flags: W
HStem: -7 18<635.001 694.346> 0 17<18.0826 111.244 383.501 446.5> 328 20G<453 565.5 698 818.321> 328 20G<453 565.5 698 818.321>
VStem: -35 52<25.6786 88> 333 73<12.209 74.9223> 583 75<11.4225 76.1328>
LayerCount: 2
Fore
SplineSet
-35 74 m 0x4e
 -35 102 -15 124 13 124 c 0
 36 124 59 105 59 82 c 0
 59 62 50 48 32 40 c 0
 22 36 17 32 17 30 c 0
 17 21 25 17 41 17 c 0x4e
 76 17 158 18 246 109 c 0
 272 136 318 192 324 199 c 2
 376 263 l 1
 392 281 418 306 453 340 c 5
 581 348 l 1
 550 298 505 220 448 117 c 1
 420 61 406 29 406 22 c 0
 406 15 410 12 417 12 c 0
 434 12 466 37 512 86 c 0
 561 139 624 224 698 341 c 1
 830 348 l 1
 750 211 l 2
 719 157 695 110 677 70 c 0
 664 42 658 25 658 20 c 0
 658 14 661 11 668 11 c 0
 691 11 721 32 758 72 c 0
 769 84 794 113 831 162 c 1
 844 154 l 1
 823 131 805 105 786 80 c 1
 764 53 745 34 729 22 c 0
 704 3 678 -7 652 -7 c 0x9e
 612 -7 583 23 583 63 c 0
 583 88 591 121 610 161 c 1
 658 253 l 1
 596 161 543 93 497 48 c 0
 461 12 427 -6 399 -6 c 0
 361 -6 333 26 333 64 c 0
 333 105 369 188 442 310 c 1
 415 285 380 245 338 191 c 1
 338 190 l 1
 248 63 156 0 65 0 c 0
 12 0 -35 25 -35 74 c 0x4e
EndSplineSet
Validated: 1
EndChar

StartChar: en
Encoding: 1085 1085 99
Width: 535
VWidth: 487
Flags: W
HStem: -7 18<341 403.346> 181 13<243 329> 326 21<168.945 226.5> 328 20G<407 527.321>
VStem: 191 74<253.247 325.874> 292 75<11.4225 76.1328>
LayerCount: 2
Fore
SplineSet
0 156 m 1xec
 55 228 85 273 139 317 c 0
 164 337 186 347 207 347 c 0xec
 246 347 265 326 265 283 c 0
 265 258 258 228 243 194 c 1
 336 194 l 1
 359 241 388 304 407 341 c 1
 539 348 l 1xdc
 459 211 l 2
 428 157 404 110 386 70 c 0
 373 42 367 25 367 20 c 0
 367 14 370 11 377 11 c 0
 400 11 430 32 467 72 c 0
 478 84 503 113 540 162 c 1
 553 154 l 1
 532 131 514 105 495 80 c 1
 473 53 454 34 438 22 c 0
 413 3 387 -7 361 -7 c 0
 321 -7 292 23 292 63 c 0
 292 88 300 121 319 161 c 2
 329 181 l 1
 237 181 l 1
 221 148 166 46 145 7 c 1
 10 -7 l 1
 130 172 191 280 191 317 c 0
 191 323 189 326 184 326 c 0
 160 326 103 267 13 148 c 1
 0 156 l 1xec
EndSplineSet
Validated: 1
EndChar

StartChar: ef
Encoding: 1092 1092 106
Width: 665
VWidth: 487
Flags: W
HStem: -7 19<100.479 157.187 394.61 455.227> 44 17<543.059 578.258> 326 21<229.242 330.167 535.442 599.438>
VStem: 18 79<24.5 97.8993> 610 34<197.968 315.024>
LayerCount: 2
Fore
SplineSet
0 156 m 1
 91 283 183 347 276 347 c 0
 331 347 360 327 362 288 c 1
 362 288 360 283 356 275 c 2
 541 585 l 1
 634 585 l 1
 493 339 l 1
 511 344 529 347 548 347 c 0
 612 347 644 316 644 255 c 0
 644 195 610 132 543 64 c 1
 545 62 549 61 554 61 c 0
 579 61 617 95 670 162 c 1
 684 154 l 1
 656 119 636 95 624 83 c 0
 596 57 570 44 544 44 c 0
 537 44 531 45 525 47 c 1
 484 11 446 -7 411 -7 c 0
 372 -7 341 10 321 37 c 1
 177 -216 l 1
 63 -216 l 1
 218 45 l 1
 183 11 148 -7 114 -7 c 0
 60 -7 18 41 18 95 c 0
 18 120 24 146 35 175 c 1
 14 148 l 1
 0 156 l 1
97 31 m 0
 97 18 106 12 124 12 c 0
 180 12 253 106 281 153 c 0
 324 224 345 268 345 284 c 0
 345 308 326 326 302 326 c 0
 276 326 237 289 188 215 c 0
 127 123 97 62 97 31 c 0
391 34 m 0
 391 19 400 11 418 11 c 0
 447 11 477 25 509 55 c 1
 505 61 504 66 504 72 c 0
 504 91 514 101 535 101 c 0
 537 101 539 101 542 100 c 1
 588 172 610 231 610 276 c 0
 610 311 597 329 571 329 c 0
 536 329 497 288 453 207 c 0
 412 131 391 74 391 34 c 0
EndSplineSet
Validated: 1
EndChar

StartChar: tse
Encoding: 1094 1094 108
Width: 665
VWidth: 487
Flags: W
HStem: -213 14<272.725 319.651> -6 18<92.5233 144.354 344.001 405.707> 328 20G<162 274.5 407 527.321> 328 20G<162 274.5 407 527.321>
VStem: 42 73<12.0339 74.9223> 228 32<-194.324 -136.199> 292 75<11.4225 76.1328>
LayerCount: 2
Fore
SplineSet
0 156 m 1xde
 85 263 l 1
 101 281 127 306 162 340 c 1
 290 348 l 1
 259 298 214 220 157 117 c 1
 129 61 115 29 115 22 c 0
 115 15 119 12 126 12 c 0
 143 12 175 37 221 86 c 0
 270 139 333 224 407 341 c 1
 539 348 l 1
 459 211 l 2
 428 157 404 110 386 70 c 0
 373 42 367 25 367 20 c 0
 367 14 370 11 377 11 c 0
 400 11 430 32 467 72 c 0
 478 84 503 113 540 162 c 1
 553 154 l 1
 519 70 524 26 518 3 c 1
 585 27 613 83 670 158 c 1
 684 149 l 1
 621 64 590 4 514 -17 c 1
 505 -61 468 -123 448 -142 c 0
 398 -190 348 -213 299 -213 c 0
 264 -213 228 -196 228 -163 c 0
 228 -133 256 -103 313 -72 c 0
 331 -62 373 -44 439 -17 c 1
 469 51 l 1
 442 22 405 -7 361 -7 c 0
 321 -7 292 23 292 63 c 0
 292 88 300 121 319 161 c 1
 367 253 l 1
 305 161 252 93 206 48 c 0
 170 12 136 -6 108 -6 c 0
 70 -6 42 25 42 64 c 0
 42 105 78 188 151 310 c 1
 116 278 71 224 14 148 c 1
 0 156 l 1xde
260 -171 m 0
 260 -187 277 -199 293 -199 c 0
 336 -199 382 -145 431 -37 c 1
 317 -90 260 -134 260 -171 c 0
EndSplineSet
Validated: 1
EndChar

StartChar: che
Encoding: 1095 1095 109
Width: 423
VWidth: 487
Flags: W
HStem: -7 18<230 294.307> 307 17<240.974 285.198> 328 20G<295 415.467> 328 20G<295 415.467>
VStem: 157 56<355.98 411.348> 180 76<11.4753 76.1328>
LayerCount: 2
Fore
SplineSet
0 157 m 1xd4
 17 181 45 215 82 260 c 1
 168 352 l 1
 161 360 157 368 157 377 c 256
 157 395 177 417 195 417 c 0
 207 417 213 411 213 399 c 0xd8
 213 391 206 376 192 355 c 1
 212 346 232 336 253 327 c 0
 256 325 260 324 264 324 c 0
 276 324 287 333 295 341 c 1
 427 348 l 1
 348 211 l 2
 317 157 293 110 275 70 c 0
 262 42 256 25 256 20 c 0
 256 14 259 11 266 11 c 0
 289 11 319 32 356 72 c 0
 367 84 391 113 428 162 c 1
 441 154 l 1
 383 80 l 1
 347 37 311 -7 250 -7 c 0
 210 -7 180 23 180 63 c 0
 180 88 189 121 208 161 c 1
 287 316 l 1
 279 311 269 307 260 307 c 0
 257 307 254 307 251 308 c 0
 232 315 218 324 182 343 c 1
 87 242 l 1
 70 222 46 191 14 148 c 1
 0 157 l 1xd4
EndSplineSet
Validated: 1
EndChar

StartChar: sha
Encoding: 1096 1096 110
Width: 784
VWidth: 487
Flags: W
HStem: -6 18<92.5233 144.354 341.523 393.354 593.001 654.864> 328 20G<162 274.5 407 523.5 656 776.321> 328 20G<162 274.5 407 523.5 656 776.321>
VStem: 42 73<12.0339 74.9223> 291 73<12.0339 75.3474> 541 75<11.4225 76.1328>
LayerCount: 2
Fore
SplineSet
0 156 m 1xbc
 85 263 l 1
 101 281 127 306 162 340 c 1
 290 348 l 1
 259 298 214 220 157 117 c 1
 129 61 115 29 115 22 c 0
 115 15 119 12 126 12 c 0
 143 12 175 37 221 86 c 0
 270 139 333 224 407 341 c 1
 539 348 l 1
 508 298 463 220 406 117 c 1
 378 61 364 29 364 22 c 0
 364 15 368 12 375 12 c 0
 392 12 424 37 470 86 c 0
 519 139 582 224 656 341 c 1
 788 348 l 1
 708 211 l 2
 677 157 653 110 635 70 c 0
 622 42 616 25 616 20 c 0
 616 14 619 11 626 11 c 0
 649 11 679 32 716 72 c 0
 727 84 752 113 789 162 c 1
 802 154 l 1
 744 80 l 2
 722 53 703 34 687 22 c 0
 662 3 636 -7 610 -7 c 0
 570 -7 541 23 541 63 c 0
 541 88 549 121 568 161 c 1
 616 253 l 1
 554 161 501 93 455 48 c 0
 419 12 385 -6 357 -6 c 0
 319 -6 291 25 291 64 c 0
 291 105 294 131 367 253 c 1
 305 161 252 93 206 48 c 0
 170 12 136 -6 108 -6 c 0
 70 -6 42 25 42 64 c 0
 42 105 78 188 151 310 c 1
 116 278 71 224 14 148 c 1
 0 156 l 1xbc
EndSplineSet
Validated: 1
EndChar

StartChar: shcha
Encoding: 1097 1097 111
Width: 915
VWidth: 487
Flags: W
HStem: -213 14<521.725 568.651> -6 18<92.5233 144.354 341.523 393.354 593.001 654.707> 328 20G<162 274.5 407 523.5 656 776.321> 328 20G<162 274.5 407 523.5 656 776.321>
VStem: 42 73<12.0339 74.9223> 291 73<12.0339 75.3474> 477 32<-194.324 -136.199> 541 75<11.4225 76.1328>
LayerCount: 2
Fore
SplineSet
0 156 m 1xdf
 85 263 l 1
 101 281 127 306 162 340 c 1
 290 348 l 1
 259 298 214 220 157 117 c 1
 129 61 115 29 115 22 c 0
 115 15 119 12 126 12 c 0
 143 12 175 37 221 86 c 0
 270 139 333 224 407 341 c 1
 539 348 l 1
 508 298 463 220 406 117 c 1
 378 61 364 29 364 22 c 0
 364 15 368 12 375 12 c 0
 392 12 424 37 470 86 c 0
 519 139 582 224 656 341 c 1
 788 348 l 1
 708 211 l 2
 677 157 653 110 635 70 c 0
 622 42 616 25 616 20 c 0
 616 14 619 11 626 11 c 0
 649 11 679 32 716 72 c 0
 727 84 752 113 789 162 c 1
 802 154 l 1
 768 70 773 26 767 3 c 1
 834 27 862 83 919 158 c 1
 933 149 l 1
 870 64 839 4 763 -17 c 1
 754 -61 717 -123 697 -142 c 0
 647 -190 597 -213 548 -213 c 0
 513 -213 477 -196 477 -163 c 0
 477 -133 505 -103 562 -72 c 0
 580 -62 622 -44 688 -17 c 1
 718 51 l 1
 691 22 654 -7 610 -7 c 0
 570 -7 541 23 541 63 c 0
 541 88 549 121 568 161 c 1
 616 253 l 1
 554 161 501 93 455 48 c 0
 419 12 385 -6 357 -6 c 0
 319 -6 291 25 291 64 c 0
 291 105 294 131 367 253 c 1
 305 161 252 93 206 48 c 0
 170 12 136 -6 108 -6 c 0
 70 -6 42 25 42 64 c 0
 42 105 78 188 151 310 c 1
 116 278 71 224 14 148 c 1
 0 156 l 1xdf
509 -171 m 0
 509 -187 526 -199 542 -199 c 0
 585 -199 631 -145 680 -37 c 1
 566 -90 509 -134 509 -171 c 0
EndSplineSet
Validated: 1
EndChar

StartChar: hard
Encoding: 1098 1098 112
Width: 478
VWidth: 487
Flags: W
HStem: -9 18<298.198 359.213> 179 17<339.382 407.228> 307 17<240.974 285.198> 328 20G<295 415.421> 328 20G<295 415.421>
VStem: 157 56<355.98 411.348> 201 78<40.1699 121.344> 422 34<73.554 167.222>
LayerCount: 2
Fore
SplineSet
0 157 m 1xeb
 17 181 45 215 82 260 c 1
 168 352 l 1
 161 360 157 368 157 377 c 0
 157 395 177 417 195 417 c 0
 207 417 213 411 213 399 c 0xed
 213 391 206 376 192 355 c 1
 212 346 232 336 253 327 c 0
 256 325 260 324 264 324 c 0
 276 324 287 333 295 341 c 1
 427 348 l 1
 339 196 l 1
 343 196 l 2
 348 196 353 197 358 197 c 0
 418 197 456 170 456 117 c 0
 456 40 377 -9 323 -9 c 0
 255 -9 201 39 201 106 c 0
 201 126 206 147 215 169 c 1
 239 215 263 270 287 316 c 1
 279 311 269 307 260 307 c 0
 257 307 254 307 251 308 c 0
 232 315 218 324 182 343 c 1
 87 242 l 1
 70 222 46 191 14 148 c 1
 0 157 l 1xeb
279 42 m 2xe3
 279 27 305 9 326 9 c 0
 372 9 408 51 421 126 c 0
 422 130 422 134 422 138 c 0
 422 165 404 179 381 179 c 2
 371 179 l 2
 358 179 344 178 329 173 c 1
 297 115 l 1
 280 87 279 70 279 53 c 2
 279 42 l 2xe3
EndSplineSet
Validated: 1
EndChar

StartChar: yeri
Encoding: 1099 1099 113
Width: 618
VWidth: 487
Flags: W
HStem: -7 18<158.402 219.213 424.5 487.093> 181 18<203.095 268.546> 328 20G<162 278.4 501 570> 328 20G<162 278.4 501 570>
VStem: 61 79<42.1699 125.112> 282 34<74.2865 169.302> 376 73<12.1416 76.9842>
LayerCount: 2
Fore
SplineSet
0 156 m 1xde
 85 263 l 1
 101 281 127 306 162 340 c 1
 290 348 l 1
 203 198 l 1
 208 198 214 199 219 199 c 0
 236 199 249 194 266 194 c 0
 313 194 370 223 394 240 c 0
 437 271 470 313 501 342 c 1
 630 348 l 1
 510 155 449 47 449 21 c 0
 449 15 453 12 461 12 c 0
 495 12 546 60 616 154 c 1
 623 163 l 1
 636 154 l 1
 578 81 l 1
 542 38 506 -7 445 -7 c 0
 404 -7 376 26 376 68 c 0
 376 98 397 148 438 219 c 2
 491 311 l 1
 470 291 441 260 406 233 c 0
 370 206 320 187 283 183 c 1
 304 170 316 149 316 120 c 0
 316 42 237 -7 183 -7 c 0
 115 -7 61 41 61 108 c 0
 61 128 66 149 75 171 c 1
 75 171 78 188 151 310 c 1
 116 278 71 224 14 148 c 1
 0 156 l 1xde
140 44 m 2
 140 29 165 11 186 11 c 0
 232 11 268 53 281 128 c 0
 282 132 282 136 282 140 c 0
 282 167 265 181 242 181 c 2
 232 181 l 2
 219 181 205 180 190 175 c 1
 157 117 l 2
 142 91 140 75 140 59 c 2
 140 44 l 2
EndSplineSet
Validated: 1
EndChar

StartChar: soft
Encoding: 1100 1100 114
Width: 338
VWidth: 487
Flags: W
HStem: -7 18<158.402 219.213> 181 18<203.095 268.084> 328 20G<162 278.4> 328 20G<162 278.4>
VStem: 61 79<42.1699 125.112> 282 34<75.554 169.559>
LayerCount: 2
Fore
SplineSet
0 156 m 1xdc
 85 263 l 1
 101 281 127 306 162 340 c 1
 290 348 l 1
 203 198 l 1
 208 198 214 199 219 199 c 0
 279 199 316 172 316 119 c 0
 316 42 237 -7 183 -7 c 0
 115 -7 61 41 61 108 c 0
 61 128 66 149 75 171 c 1
 75 171 78 188 151 310 c 1
 116 278 71 224 14 148 c 1
 0 156 l 1xdc
140 44 m 2
 140 29 165 11 186 11 c 0
 232 11 268 53 281 128 c 0
 282 132 282 136 282 140 c 0
 282 167 265 181 242 181 c 2
 232 181 l 2
 219 181 205 180 190 175 c 1
 157 117 l 2
 142 91 140 75 140 59 c 2
 140 44 l 2
EndSplineSet
Validated: 1
EndChar

StartChar: ecyrilrev
Encoding: 1101 1101 115
Width: 332
VWidth: 487
Flags: W
HStem: 0 17<17.6288 68.6698> 44 17<220 244.056> 147 18<127.5 169.682> 222 21<80.0766 132> 335 19<137.604 223.112>
VStem: -35 51<25.6786 88> 95 54<165.074 222> 227 94<227.428 320.5>
LayerCount: 2
Fore
SplineSet
-35 74 m 0
 -35 102 -15 124 13 124 c 0
 36 124 59 105 59 82 c 0
 59 62 49 48 31 40 c 0
 21 36 16 32 16 30 c 0
 16 21 25 17 41 17 c 0
 76 17 116 58 162 139 c 2
 170 153 l 1
 159 149 141 147 131 147 c 0
 124 147 118 148 112 152 c 0
 96 163 95 169 95 188 c 2
 95 191 l 2
 95 206 97 219 97 220 c 0
 97 222 96 222 94 222 c 0
 82 222 62 208 35 180 c 1
 21 189 l 1
 45 213 85 243 117 243 c 0
 147 243 149 239 149 214 c 2
 149 204 l 2
 149 187 147 178 147 176 c 0
 147 171 153 165 163 165 c 0
 168 165 174 167 178 169 c 1
 210 231 227 278 227 313 c 0
 227 328 217 335 196 335 c 0
 172 335 153 331 127 322 c 0
 113 317 93 303 66 276 c 1
 55 290 l 1
 66 301 76 309 85 317 c 0
 93 323 99 329 107 333 c 0
 118 340 130 343 140 345 c 1
 158 351 176 354 198 354 c 0
 266 354 321 305 321 238 c 0
 321 219 316 198 307 177 c 0
 287 130 256 91 220 61 c 1
 245 61 284 95 337 162 c 1
 351 154 l 1
 323 119 303 95 291 83 c 0
 263 57 237 44 211 44 c 0
 207 44 203 44 199 45 c 1
 157 16 109 0 65 0 c 0
 12 0 -35 25 -35 74 c 0
EndSplineSet
Validated: 1
EndChar

StartChar: iu
Encoding: 1102 1102 116
Width: 675
VWidth: 487
Flags: W
HStem: -7 18<405.214 464.204> 44 17<553.081 587.236> 181 13<243 326> 329 18<171.62 226.5 553.067 605.329>
VStem: 191 74<253.247 325.874> 308 93<26.5 124.269> 620 34<197.968 315.024>
LayerCount: 2
Fore
SplineSet
0 156 m 1
 55 228 85 273 139 317 c 0
 164 337 186 347 207 347 c 0
 246 347 265 326 265 283 c 0
 265 258 258 228 243 194 c 1
 332 194 l 1
 391 309 474 347 558 347 c 0
 622 347 654 316 654 255 c 0
 654 195 620 132 553 64 c 1
 556 61 558 61 563 61 c 0
 588 61 627 95 680 162 c 1
 694 154 l 1
 666 119 646 95 634 83 c 0
 606 57 580 44 554 44 c 0
 547 44 541 45 535 47 c 1
 494 11 455 -7 420 -7 c 0
 356 -7 308 45 308 109 c 0
 308 128 315 157 326 181 c 1
 237 181 l 1
 221 148 166 46 145 7 c 1
 10 -7 l 1
 130 172 191 280 191 317 c 0
 191 323 189 326 184 326 c 0
 160 326 103 267 13 148 c 1
 0 156 l 1
401 34 m 0
 401 19 410 11 428 11 c 0
 457 11 487 25 519 55 c 1
 515 61 514 66 514 72 c 0
 514 91 523 101 544 101 c 0
 546 101 549 101 552 100 c 1
 598 172 620 231 620 276 c 0
 620 311 607 329 581 329 c 0
 546 329 506 288 462 207 c 0
 421 131 401 74 401 34 c 0
EndSplineSet
Validated: 1
EndChar

StartChar: ia
Encoding: 1103 1103 117
Width: 508
VWidth: 487
Flags: W
HStem: -7 19<316 378.65> 0 17<18.0826 110.776> 126 19<185.479 241.784> 326 21<255.5 330.167> 327 20G<453 453>
VStem: -35 52<25.6786 88> 103 79<157.5 228.59> 268 69<12.4338 76.6037>
LayerCount: 2
Fore
SplineSet
-35 74 m 0x67
 -35 102 -15 124 13 124 c 0
 36 124 59 105 59 82 c 0
 59 62 50 48 32 40 c 0
 22 36 17 32 17 30 c 0
 17 21 25 17 41 17 c 0
 76 17 158 18 246 109 c 0
 264 128 292 160 309 181 c 1
 311 185 l 1
 273 146 235 126 199 126 c 0
 145 126 103 174 103 228 c 0
 103 253 120 290 151 309 c 0
 191 333 235 347 276 347 c 0x77
 331 347 360 327 362 288 c 1
 388 330 l 1
 452 339 l 1
 453 340 l 1
 453 339 l 1
 511 347 l 1
 395 153 337 44 337 21 c 0
 337 15 341 12 348 12 c 0
 373 12 404 32 440 71 c 0
 450 82 475 112 513 162 c 1
 527 154 l 1
 469 80 l 2
 447 53 428 34 412 22 c 0
 387 3 361 -7 335 -7 c 0xaf
 297 -7 268 21 268 59 c 0
 268 73 271 91 276 113 c 1
 206 38 135 0 65 0 c 0
 12 0 -35 25 -35 74 c 0x67
182 164 m 0
 182 151 191 145 209 145 c 0
 234 145 263 163 298 199 c 0
 324 226 319 219 330 241 c 0
 340 262 345 276 345 284 c 0
 345 307 326 326 302 326 c 0
 284 326 250 300 229 271 c 0
 202 234 182 182 182 164 c 0
EndSplineSet
Validated: 1
EndChar

StartChar: zero
Encoding: 48 48 118
Width: 510
VWidth: 742
Flags: W
HStem: -16 27<201.622 324.677> 320 27<293.703 418.784>
VStem: 72 108<28.4495 151.405> 442 106<185.762 301.784>
LayerCount: 2
Fore
SplineSet
72 90 m 0
 72 126 88 168 97 190 c 0
 133 278 207 347 372 347 c 0
 502 347 548 304 548 239 c 0
 548 209 530 121 478 64 c 0
 447 30 386 -16 248 -16 c 0
 118 -16 72 26 72 90 c 0
180 59 m 0
 180 20 226 11 259 11 c 0
 297 11 337 23 360 47 c 0
 389 77 442 240 442 273 c 0
 442 309 397 320 361 320 c 0
 321 320 284 308 263 287 c 1
 234 260 180 100 180 59 c 0
EndSplineSet
Validated: 1
Colour: ffff00
EndChar

StartChar: one
Encoding: 49 49 119
Width: 510
VWidth: 742
Flags: W
HStem: 0 36<84.2053 220.999 330 451.85> 271 36<163.253 294.237>
LayerCount: 2
Fore
SplineSet
84 15 m 0
 84 34 102 36 115 36 c 2
 146 36 l 2
 219 36 217 37 221 52 c 1
 297 277 l 1
 263 273 229 271 194 271 c 2
 192 271 l 2
 180 271 163 271 163 286 c 0
 163 308 185 306 209 307 c 0
 357 310 381 339 406 339 c 0
 418 339 426 333 426 325 c 0
 426 320 423 313 422 309 c 2
 330 37 l 1
 353 36 376 36 399 36 c 2
 424 36 l 2
 439 36 452 33 452 20 c 0
 452 13 448 0 425 0 c 0
 408 0 358 2 257 2 c 0
 169 2 124 0 110 0 c 0
 87 0 84 9 84 15 c 0
EndSplineSet
Validated: 1
Colour: ffff00
EndChar

StartChar: two
Encoding: 50 50 120
Width: 510
VWidth: 742
Flags: W
HStem: -16 79<266.968 466.154> 33 27<173 224.391> 162 27<180.388 233.011> 320 27<272.868 402.566>
VStem: 123 56<189.164 257.225> 255 37<205.349 277.743> 426 114<207.473 297.938>
LayerCount: 2
Fore
SplineSet
49 -4 m 0xbe
 49 0 53 8 60 20 c 0
 109 100 240 132 277 143 c 0
 407 182 414 217 422 245 c 0
 424 253 426 261 426 270 c 0
 426 309 378 320 338 320 c 0
 249 320 179 254 179 210 c 0
 179 197 186 189 199 189 c 0
 222 189 255 212 255 239 c 0
 255 255 243 265 243 273 c 0
 243 279 253 287 263 287 c 0
 280 287 292 259 292 240 c 0
 292 204 250 162 193 162 c 0
 155 162 123 183 123 214 c 0
 123 267 211 347 343 347 c 4
 441 347 540 320 540 247 c 0
 540 141 296 127 173 60 c 1x7e
 270 61 328 63 366 63 c 2
 383 63 l 2
 523 63 468 95 514 96 c 1
 520 96 l 2
 534 96 546 95 546 84 c 0
 546 59 480 -16 370 -16 c 0xbe
 292 -16 216 33 161 33 c 0x7e
 112 33 111 -4 98 -13 c 0
 93 -16 86 -16 78 -16 c 2
 73 -16 l 2
 64 -16 49 -15 49 -4 c 0xbe
EndSplineSet
Validated: 1
Colour: ffff00
EndChar

StartChar: three
Encoding: 51 51 121
Width: 510
Flags: W
HStem: -212 30<112.051 248.61> -127 95<75.1334 121.205> 58 39<215.625 335.509> 141 30<177.875 231.391> 317 30<286.3 418.688>
VStem: 16 122<-107.985 -50.4443> 122 55<171.599 244.557> 254 37<189.502 270.434> 346 111<-83.0443 35.8579> 439 99<179.791 296.521>
LayerCount: 2
Fore
SplineSet
16 -105 m 0xfd
 16 -48 60 -32 90 -32 c 0
 116 -32 138 -46 138 -69 c 0xfd
 138 -92 118 -121 75 -127 c 1
 95 -172 141 -182 177 -182 c 0
 203 -182 272 -176 307 -120 c 0
 325 -91 346 -21 346 8 c 0xfb80
 346 55 299 58 279 58 c 2
 238 58 l 2
 226 58 215 59 215 71 c 0
 215 83 220 97 242 97 c 2
 284 97 l 2
 306 97 358 99 394 138 c 0
 418 165 439 235 439 263 c 0
 439 306 397 317 364 317 c 0
 274 317 177 257 177 193 c 0
 177 182 181 171 198 171 c 0
 220 171 254 196 254 228 c 0
 254 244 243 256 243 265 c 0
 243 273 252 281 261 281 c 0
 279 281 291 249 291 229 c 0
 291 186 247 141 192 141 c 0
 154 141 122 164 122 198 c 0
 122 268 229 347 368 347 c 0
 461 347 538 313 538 237 c 0xfb40
 538 181 492 101 386 72 c 1
 416 56 457 33 457 -27 c 0
 457 -120 353 -212 177 -212 c 0xfb80
 84 -212 16 -169 16 -105 c 0xfd
EndSplineSet
Validated: 1
Colour: ffff00
EndChar

StartChar: four
Encoding: 52 52 122
Width: 510
Flags: W
HStem: -55 44<402 503.935> -42 38<154.606 287> -34 46<14.3065 93.7415> -25 39<152 283.666> 326 20G<384 408> 326 20G<384 408>
LayerCount: 2
Fore
SplineSet
14 -12 m 0x20
 14 0 41 7 52 12 c 0x20
 286 112 335 308 340 317 c 0
 349 333 371 346 397 346 c 0
 419 346 442 334 442 313 c 0
 442 297 427 262 410 233 c 0
 355 140 259 68 152 14 c 1x18
 208 14 238 7 299 -4 c 1x40
 341 134 336 125 349 138 c 0
 361 149 379 158 398 158 c 0
 423 158 443 144 443 123 c 0
 443 110 436 95 402 -15 c 1
 450 -15 468 -11 479 -11 c 0
 494 -11 504 -27 504 -32 c 0
 504 -43 489 -44 480 -46 c 0
 454 -50 427 -55 396 -55 c 2
 390 -55 l 1x80
 355 -180 352 -170 344 -177 c 0
 332 -187 315 -194 298 -194 c 0
 273 -194 253 -179 253 -159 c 0
 253 -148 259 -136 287 -42 c 1x40
 215 -30 200 -25 141 -25 c 0x10
 48 -25 47 -34 38 -34 c 0
 26 -34 14 -19 14 -12 c 0x20
EndSplineSet
Validated: 1
Colour: ffff00
EndChar

StartChar: five
Encoding: 53 53 123
Width: 510
Flags: W
HStem: -212 36<116.303 246.238> -115 104<87.2504 141.999> 117 30<227.042 340.001> 224 121<225.34 313.035> 224 97<224.332 406.909>
VStem: 29 134<-94.082 -35.0469> 353 122<-29.7837 89.5457>
LayerCount: 2
Fore
SplineSet
29 -96 m 0xf6
 29 -29 78 -11 110 -11 c 0
 141 -11 163 -27 163 -52 c 0
 163 -73 145 -110 87 -115 c 1
 105 -175 161 -176 176 -176 c 0
 214 -176 248 -162 268 -145 c 0
 332 -94 353 65 353 71 c 0
 353 88 343 117 302 117 c 0
 289 117 229 116 173 71 c 0
 161 62 157 53 138 53 c 0
 125 53 115 59 115 70 c 0
 115 76 118 82 119 88 c 2
 192 327 l 2
 195 334 198 345 211 345 c 0xf6
 224 345 269 321 359 321 c 0xee
 449 321 510 345 523 345 c 0
 531 345 537 341 537 334 c 0
 537 321 520 309 511 302 c 0
 456 260 375 224 284 224 c 0
 264 224 245 226 226 229 c 1
 192 121 l 1
 224 136 259 147 307 147 c 0
 407 147 475 103 475 20 c 0
 475 -86 372 -212 175 -212 c 0
 83 -212 29 -160 29 -96 c 0xf6
EndSplineSet
Validated: 1
Colour: ffff00
EndChar

StartChar: six
Encoding: 54 54 124
Width: 510
Flags: W
HStem: -22 44<214.331 326.633> 392 37<327.303 428.862> 627 39<433.408 553.074>
VStem: 99 102<48.7917 190.72> 440 111<240.214 364.136> 494 125<514.197 577.971>
LayerCount: 2
Fore
SplineSet
99 146 m 0xf8
 99 225 124 323 160 402 c 0
 236 573 376 666 510 666 c 0
 599 666 619 617 619 579 c 0
 619 519 579 485 540 485 c 0
 513 485 494 503 494 530 c 0xf4
 494 556 515 592 558 601 c 1
 548 617 535 627 505 627 c 0
 480 627 409 616 351 537 c 1
 314 489 293 426 273 364 c 1
 321 424 369 429 396 429 c 0
 520 429 551 341 551 283 c 0
 551 242 534 165 492 105 c 0
 464 65 411 18 357 -4 c 0
 328 -15 296 -22 256 -22 c 0
 175 -22 99 18 99 146 c 0xf8
201 87 m 0
 201 58 215 22 260 22 c 0
 362 22 384 127 412 218 c 1
 420 248 440 307 440 337 c 0xf8
 440 363 430 392 384 392 c 0
 248 392 201 115 201 87 c 0
EndSplineSet
Validated: 1
Colour: ffff00
EndChar

StartChar: seven
Encoding: 55 55 125
Width: 510
Flags: W
HStem: 228 30<405.767 458.901> 259 87<233.601 382.106>
LayerCount: 2
Fore
SplineSet
52 159 m 0
 52 164 52 165 154 326 c 0
 164 342 167 346 186 346 c 2
 192 346 l 2
 211 346 216 342 216 335 c 0
 216 327 208 316 204 311 c 1
 236 327 281 346 333 346 c 0
 415 346 379 258 433 258 c 0
 486 258 549 329 554 334 c 0
 562 341 566 347 584 347 c 0
 587 347 589 347 592 346 c 1
 604 346 614 345 614 335 c 0
 614 328 606 321 601 316 c 0
 399 98 349 -143 332 -175 c 1
 320 -195 294 -212 262 -212 c 0
 234 -212 210 -197 210 -172 c 0
 210 -158 221 -128 233 -100 c 0
 291 41 411 179 460 232 c 1
 449 230 438 228 427 228 c 0
 376 228 360 259 314 259 c 0
 292 259 186 252 118 172 c 0
 104 155 105 147 77 147 c 0
 65 147 52 149 52 159 c 0
EndSplineSet
Validated: 1
Colour: ffff00
EndChar

StartChar: eight
Encoding: 56 56 126
Width: 510
Flags: W
HStem: -22 43<187.303 347.62> 627 39<362.966 508.718>
VStem: 73 87<47.1562 189.461> 202 97<417.5 524.264> 432 106<142.173 273.5> 531 76<478.769 606.859>
LayerCount: 2
Fore
SplineSet
73 106 m 0xf8
 73 199 135 278 254 330 c 1
 217 359 202 397 202 438 c 0
 202 532 290 666 453 666 c 0
 534 666 607 635 607 555 c 0xf4
 607 477 554 411 460 369 c 1
 460 368 l 1
 485 350 538 313 538 234 c 0
 538 125 437 -22 249 -22 c 0
 159 -22 73 14 73 106 c 0xf8
160 107 m 0
 160 62 183 21 259 21 c 0
 365 21 432 96 432 160 c 0xf8
 432 198 407 217 398 223 c 2
 293 302 l 1
 215 262 160 180 160 107 c 0
299 518 m 0
 299 480 334 463 424 396 c 1
 425 396 l 1
 514 450 531 515 531 556 c 0xf4
 531 605 495 627 446 627 c 0
 356 627 299 572 299 518 c 0
EndSplineSet
Validated: 1
Colour: ffff00
EndChar

StartChar: nine
Encoding: 57 57 127
Width: 510
Flags: W
HStem: -212 35<102.274 232.383> -158 94<100.424 139.397> -19 29<212.508 310.822> 314 33<302.432 409.46>
VStem: 33 122<-141.233 -83.5> 84 114<40.574 154.592> 426 105<157.846 283.435>
LayerCount: 2
Fore
SplineSet
33 -136 m 0xfa
 33 -92 66 -64 106 -64 c 0
 139 -64 155 -83 155 -102 c 0xfa
 155 -120 141 -148 100 -158 c 1
 109 -165 125 -177 162 -177 c 0
 217 -177 270 -145 301 -107 c 0
 333 -68 355 -4 367 33 c 1
 329 -4 295 -19 247 -19 c 0
 117 -19 84 60 84 107 c 0xf6
 84 134 97 195 132 240 c 0
 153 268 227 347 370 347 c 0
 453 347 531 312 531 197 c 0
 531 158 514 68 480 -2 c 0
 404 -159 262 -212 159 -212 c 0
 97 -212 33 -193 33 -136 c 0xfa
198 58 m 0xf6
 198 21 229 10 258 10 c 0
 393 10 426 237 426 257 c 0
 426 283 412 314 367 314 c 0
 327 314 290 297 266 268 c 1
 239 233 198 90 198 58 c 0xf6
EndSplineSet
Validated: 1
Colour: ffff00
EndChar

StartChar: exclam
Encoding: 33 33 129
Width: 305
Flags: W
HStem: 0 148<134.664 214.76>
VStem: 98 152<36.1959 112.115> 271 153<598.831 681.948>
LayerCount: 2
Fore
SplineSet
98 57 m 0
 98 106 146 148 192 148 c 4
 228 148 250 123 250 91 c 0
 250 44 205 0 157 0 c 4
 121 0 98 25 98 57 c 0
195 235 m 0
 195 242 199 251 200 259 c 2
 271 636 l 2
 284 702 341 716 365 716 c 0
 399 716 424 696 424 664 c 0
 424 649 419 638 415 627 c 2
 258 249 l 2
 245 217 241 220 220 219 c 0
 206 219 195 221 195 235 c 0
EndSplineSet
Validated: 1
Colour: ffff00
EndChar

StartChar: numbersign
Encoding: 35 35 131
Width: 863
Flags: W
HStem: 120 37<84.0131 279 341 526 587 845.988> 343 36<140.012 399 461 646 707 901.988>
LayerCount: 2
Fore
SplineSet
84 139 m 0
 84 156 102 157 113 157 c 2
 300 157 l 1
 399 343 l 1
 170 343 l 2
 157 343 140 343 140 361 c 0
 140 378 156 379 168 379 c 2
 420 379 l 1
 425 391 431 402 437 413 c 2
 571 661 l 2
 583 683 588 693 600 693 c 0
 610 693 617 686 617 676 c 0
 617 666 609 654 604 645 c 2
 461 379 l 1
 666 379 l 1
 672 391 678 402 684 413 c 2
 818 661 l 2
 829 683 835 693 847 693 c 0
 856 693 863 686 863 676 c 0
 863 666 856 654 851 645 c 2
 707 379 l 1
 876 379 l 2
 898 379 902 368 902 361 c 0
 902 344 885 343 874 343 c 2
 687 343 l 1
 587 157 l 1
 818 157 l 2
 830 157 846 156 846 139 c 0
 846 122 831 120 819 120 c 2
 567 120 l 1
 416 -160 l 2
 403 -184 398 -193 387 -193 c 0
 377 -193 370 -185 370 -175 c 0
 370 -166 377 -155 382 -146 c 2
 526 120 l 1
 321 120 l 1
 170 -160 l 2
 157 -184 152 -193 140 -193 c 0
 130 -193 123 -185 123 -175 c 0
 123 -166 131 -155 136 -146 c 2
 279 120 l 1
 111 120 l 2
 88 120 84 131 84 139 c 0
341 157 m 1
 546 157 l 1
 646 343 l 1
 440 343 l 1
 341 157 l 1
EndSplineSet
Validated: 1
Colour: ffff00
EndChar

StartChar: dollar
Encoding: 36 36 132
Width: 510
Flags: W
HStem: -10 47<184.073 227> 128 117<152.821 199.909> 657 47<492 538.565>
VStem: 95 57<68.0992 129.447> 191 97<462.162 533.76> 436 97<169.445 287.5> 443 55<704.421 748.042> 499 128<496.222 556.86>
LayerCount: 2
Fore
SplineSet
95 125 m 0xfc
 95 221 146 245 177 245 c 0
 210 245 223 226 223 202 c 0
 223 186 213 136 152 128 c 1
 155 49 218 41 241 37 c 1
 321 297 l 1
 293 304 191 327 191 443 c 0
 191 447 192 451 192 455 c 0
 197 542 272 691 443 705 c 1
 453 735 454 750 476 750 c 0
 493 750 498 742 498 732 c 0
 498 721 494 713 492 704 c 1
 575 696 627 654 627 578 c 0
 627 489 577 463 545 463 c 0
 520 463 499 480 499 507 c 0xfb
 499 535 521 574 569 580 c 1
 564 633 521 652 477 657 c 1
 407 424 l 1
 524 398 533 306 533 269 c 0
 533 158 443 7 275 -10 c 1
 266 -41 264 -55 242 -55 c 0
 226 -55 221 -49 221 -39 c 0
 221 -29 224 -20 227 -10 c 1
 112 3 95 79 95 125 c 0xfc
288 513 m 0
 288 467 322 446 362 436 c 1
 428 656 l 1
 334 643 288 568 288 513 c 0
291 39 m 1
 388 55 436 142 436 202 c 0xfc
 436 223 429 272 365 286 c 1
 291 39 l 1
EndSplineSet
Validated: 1
Colour: ffff00
EndChar

StartChar: percent
Encoding: 37 37 133
Width: 863
Flags: W
HStem: -55 36<641.539 709.042> 310 37<732.875 806.528> 347 37<292.405 365.205> 610 36<582.057 774.438> 713 37<382.927 457.157>
VStem: 201 85<390.443 531.741> 469 55<534.871 678.206> 550 85<-13.5894 128.631> 818 55<132.835 302.663>
LayerCount: 2
Fore
SplineSet
130 -27 m 0xbf80
 130 -9 146 4 157 14 c 2
 777 627 l 1
 748 618 715 610 674 610 c 0
 615 610 570 625 523 651 c 1
 524 643 524 634 524 626 c 0
 519 524 442 347 313 347 c 0
 269 347 201 371 201 467 c 0
 201 581 287 750 427 750 c 0
 476 750 498 720 509 710 c 0
 536 684 591 646 676 646 c 0
 752 646 828 679 874 723 c 0
 888 736 898 749 913 749 c 0
 929 749 942 739 942 722 c 0
 942 704 927 692 916 681 c 2
 191 -35 l 2
 181 -45 171 -55 157 -55 c 0
 141 -55 130 -41 130 -27 c 0xbf80
286 431 m 0
 286 393 306 384 320 384 c 0
 398 384 469 549 469 644 c 0
 469 691 450 713 425 713 c 0
 361 713 329 602 317 563 c 0
 304 520 286 470 286 431 c 0
550 64 m 0
 550 181 639 347 776 347 c 0xdf80
 817 347 873 324 873 234 c 0
 873 122 790 -55 663 -55 c 0
 617 -55 550 -32 550 64 c 0
635 27 m 0
 635 -4 649 -19 669 -19 c 0
 678 -19 688 -16 699 -10 c 0
 776 32 818 176 818 241 c 0
 818 299 792 310 774 310 c 0
 757 310 718 298 688 222 c 0
 669 175 635 69 635 27 c 0
EndSplineSet
Validated: 1
Colour: ffff00
EndChar

StartChar: ampersand
Encoding: 38 38 134
Width: 804
Flags: W
HStem: -22 36<298.228 540.911> 236 120<600.248 673.296> 306 37<314.167 389.842> 434 37<339.506 409.872> 680 36<408.37 501.202>
VStem: 107 116<86.5472 249.848> 410 54<357.898 433.546> 455 124<538.29 603.76> 531 167<262.519 319.603> 751 59<208.146 389.46> 766 124<582.016 670.205>
LayerCount: 2
Fore
SplineSet
107 167 m 0xdc40
 107 171 108 174 108 178 c 0
 111 232 149 331 214 393 c 1
 209 412 208 426 208 437 c 0
 208 561 307 716 458 716 c 0
 529 716 579 672 579 606 c 0
 579 536 533 511 502 511 c 0
 476 511 455 528 455 555 c 0xdd40
 455 584 478 619 522 627 c 1
 510 668 480 680 456 680 c 0
 433 680 410 667 392 651 c 0
 364 624 346 589 309 455 c 1
 328 462 360 471 392 471 c 0
 451 471 464 436 464 410 c 0
 464 361 420 306 349 306 c 0
 318 306 291 313 271 323 c 1
 239 243 223 186 223 142 c 0
 223 66 275 14 408 14 c 0
 564 14 682 70 736 222 c 0
 745 248 751 274 751 304 c 0xbe40
 751 358 728 393 707 429 c 1
 593 376 591 345 587 321 c 1
 601 339 621 356 651 356 c 0
 679 356 698 339 698 312 c 0
 698 280 670 236 619 236 c 0
 574 236 531 266 531 315 c 0
 531 414 667 461 722 498 c 0
 753 518 780 545 802 576 c 1
 779 581 766 598 766 620 c 0
 766 662 805 694 841 694 c 0
 868 694 890 678 890 650 c 0xdca0
 890 609 846 522 759 460 c 1
 783 424 810 375 810 313 c 0
 810 213 750 101 657 42 c 0
 570 -14 473 -22 395 -22 c 0
 257 -22 107 24 107 167 c 0xdc40
303 382 m 1
 309 363 323 343 355 343 c 0
 402 343 410 407 410 416 c 0xbe
 410 430 400 434 388 434 c 0
 372 434 339 425 303 382 c 1
EndSplineSet
Validated: 1
Colour: ffff00
EndChar

StartChar: quotesingle
Encoding: 39 39 135
Width: 274
Flags: W
HStem: 686 20G<329.5 354.5>
LayerCount: 2
Fore
SplineSet
228 359 m 0
 228 368 271 644 276 658 c 0
 285 683 314 706 345 706 c 0
 364 706 393 697 393 660 c 2
 393 656 l 2
 393 649 392 645 378 613 c 0
 258 342 262 342 244 342 c 0
 236 342 228 349 228 359 c 0
EndSplineSet
Validated: 1
Colour: ffff00
EndChar

StartChar: parenleft
Encoding: 40 40 136
Width: 392
Flags: W
VStem: 131 81<-102.264 146.693>
LayerCount: 2
Fore
SplineSet
131 42 m 0
 131 52 132 62 132 72 c 0
 144 293 276 582 520 738 c 0
 527 743 536 749 547 749 c 0
 555 749 564 746 564 736 c 0
 562 714 512 704 422 585 c 0
 281 399 220 142 213 14 c 0
 213 3 212 -8 212 -18 c 0
 212 -168 270 -215 270 -235 c 0
 270 -244 261 -250 252 -250 c 0
 226 -250 131 -145 131 42 c 0
EndSplineSet
Validated: 1
Colour: ffff00
EndChar

StartChar: parenright
Encoding: 41 41 137
Width: 392
Flags: W
VStem: 330 81<346.018 602.052>
LayerCount: 2
Fore
SplineSet
-20 -237 m 0
 -19 -217 17 -212 99 -113 c 0
 255 75 322 349 329 486 c 0
 329 498 330 509 330 520 c 0
 330 660 279 712 274 730 c 0
 271 741 279 749 290 749 c 0
 316 749 411 645 411 458 c 0
 411 448 410 438 410 428 c 0
 399 219 276 -76 20 -240 c 0
 14 -244 5 -250 -4 -250 c 0
 -13 -250 -20 -245 -20 -237 c 0
EndSplineSet
Validated: 1
Colour: ffff00
EndChar

StartChar: asterisk
Encoding: 42 42 138
Width: 510
Flags: W
VStem: 316 79<313.061 391.555> 434 79<667.031 743.367>
LayerCount: 2
Fore
SplineSet
188 427 m 0
 188 470 216 471 376 528 c 1
 252 583 243 584 243 602 c 0
 243 632 273 660 299 660 c 0
 320 660 334 633 405 561 c 1
 428 706 425 709 434 723 c 0
 444 739 462 750 480 750 c 0
 497 750 513 739 513 723 c 0
 513 706 501 689 443 562 c 1
 593 659 594 660 609 660 c 0
 628 660 640 645 640 628 c 0
 640 585 612 584 453 528 c 1
 577 473 586 471 586 454 c 0
 586 424 555 395 529 395 c 0
 508 395 489 427 423 494 c 1
 408 396 404 346 395 333 c 0
 385 317 366 306 348 306 c 0
 330 306 316 317 316 333 c 0
 316 351 326 366 385 494 c 1
 235 397 235 395 219 395 c 0
 200 395 188 410 188 427 c 0
EndSplineSet
Validated: 1
Colour: ffff00
EndChar

StartChar: plus
Encoding: 43 43 139
Width: 804
Flags: W
HStem: 232 36<125.058 453 502 828.942>
LayerCount: 2
Fore
SplineSet
125 249 m 0
 125 267 145 268 160 268 c 2
 464 268 l 1
 554 566 l 2
 559 580 563 602 580 602 c 0
 590 602 597 592 595 580 c 0
 592 565 524 348 502 268 c 1
 791 268 l 2
 809 268 829 268 829 251 c 0
 829 234 810 232 797 232 c 2
 490 232 l 1
 483 204 430 32 401 -66 c 0
 396 -81 392 -102 375 -102 c 0
 363 -102 359 -92 359 -83 c 2
 359 -80 l 2
 359 -78 360 -74 376 -21 c 2
 453 232 l 1
 161 232 l 2
 144 232 125 232 125 249 c 0
EndSplineSet
Validated: 1
Colour: ffff00
EndChar

StartChar: comma
Encoding: 44 44 140
Width: 274
Flags: W
HStem: 0 148<119.969 189.388>
VStem: 83 156<16.2438 110.378>
LayerCount: 2
Fore
SplineSet
40 -175 m 0
 41 -151 129 -131 190 14 c 1
 177 7 160 0 141 0 c 0
 104 0 83 23 83 54 c 0
 83 102 127 148 178 148 c 0
 221 148 239 114 239 74 c 0
 239 12 193 -96 87 -176 c 0
 67 -190 62 -193 56 -193 c 0
 46 -193 40 -182 40 -175 c 0
EndSplineSet
Validated: 1
Colour: ffff00
EndChar

StartChar: hyphen
Encoding: 45 45 141
Width: 333
Flags: W
HStem: 176 93<75.8846 343.474>
VStem: 61 298<184.454 260.523>
LayerCount: 2
Fore
SplineSet
61 193 m 0
 61 203 70 228 75 245 c 0
 81 262 86 269 108 269 c 2
 334 269 l 2
 350 269 359 263 359 251 c 2
 359 249 l 2
 359 244 350 216 343 195 c 0
 338 181 330 176 314 176 c 2
 87 176 l 2
 73 176 61 178 61 193 c 0
EndSplineSet
Validated: 1
Colour: ffff00
EndChar

StartChar: period
Encoding: 46 46 142
Width: 274
Flags: W
HStem: 0 148<120.815 197.801>
VStem: 83 152<37.2351 110.765>
LayerCount: 2
Fore
SplineSet
83 56 m 0
 83 102 129 148 178 148 c 0
 214 148 235 123 235 92 c 0
 235 46 190 0 141 0 c 0
 106 0 83 25 83 56 c 0
EndSplineSet
Validated: 1
Colour: ffff00
EndChar

StartChar: slash
Encoding: 47 47 143
Width: 510
Flags: W
LayerCount: 2
Fore
SplineSet
-20 -231 m 0
 -20 -224 -14 -216 -12 -213 c 2
 620 700 l 2
 643 732 651 749 664 749 c 0
 673 749 681 740 681 731 c 0
 681 726 679 722 666 703 c 2
 27 -220 l 2
 15 -238 8 -249 -4 -249 c 0
 -13 -249 -20 -240 -20 -231 c 0
EndSplineSet
Validated: 1
Colour: ffff00
EndChar

StartChar: colon
Encoding: 58 58 144
Width: 274
Flags: W
HStem: 0 148<80.8148 157.801> 297 148<210.248 287.801>
VStem: 43 152<37.2351 110.765> 174 151<333.812 408.684>
LayerCount: 2
Fore
SplineSet
174 353 m 0xd0
 174 402 221 445 268 445 c 4
 303 445 325 421 325 389 c 0
 325 342 280 297 231 297 c 4
 196 297 174 322 174 353 c 0xd0
EndSplineSet
Refer: 142 46 S 1 0 0 1 -40 0 2
Validated: 1
Colour: ffff00
EndChar

StartChar: semicolon
Encoding: 59 59 145
Width: 274
Flags: W
HStem: 0 148<79.9688 149.388> 297 148<210.248 287.801>
VStem: 43 156<16.2438 110.378> 174 151<333.812 408.684>
LayerCount: 2
Fore
SplineSet
174 353 m 0xd0
 174 402 221 445 268 445 c 4
 303 445 325 421 325 389 c 0
 325 342 280 297 231 297 c 4
 196 297 174 322 174 353 c 0xd0
EndSplineSet
Refer: 140 44 S 1 0 0 1 -40 0 2
Validated: 1
Colour: ffff00
EndChar

StartChar: less
Encoding: 60 60 146
Width: 804
Flags: W
LayerCount: 2
Fore
SplineSet
155 249 m 0
 155 264 173 270 181 273 c 2
 852 565 l 2
 859 568 867 572 875 572 c 0
 883 572 892 567 892 557 c 0
 892 542 874 536 866 532 c 2
 213 248 l 1
 686 -32 l 2
 695 -37 707 -44 707 -55 c 2
 707 -56 l 2
 707 -64 699 -73 689 -73 c 0
 681 -73 680 -72 590 -19 c 2
 176 226 l 2
 167 231 155 238 155 249 c 0
EndSplineSet
Validated: 1
Colour: ffff00
EndChar

StartChar: equal
Encoding: 61 61 147
Width: 804
Flags: W
HStem: 120 37<91.0578 787.766> 343 36<159.057 861.945>
LayerCount: 2
Fore
SplineSet
91 139 m 0
 92 155 108 157 121 157 c 2
 754 157 l 2
 778 157 783 156 788 153 c 0
 797 147 797 135 790 127 c 0
 784 121 776 121 768 120 c 1
 118 120 l 2
 94 120 91 131 91 139 c 0
159 361 m 0
 160 377 175 379 189 379 c 2
 822 379 l 2
 843 379 862 379 862 362 c 0
 862 345 846 343 836 343 c 2
 186 343 l 2
 162 343 159 354 159 361 c 0
EndSplineSet
Validated: 1
Colour: ffff00
EndChar

StartChar: greater
Encoding: 62 62 148
Width: 804
Flags: W
LayerCount: 2
Fore
SplineSet
62 -58 m 0
 62 -42 80 -36 88 -32 c 2
 741 252 l 1
 268 531 l 2
 259 537 247 543 247 554 c 0
 247 565 256 572 265 572 c 0
 275 572 283 565 290 561 c 2
 781 272 l 2
 790 267 799 260 799 251 c 0
 799 236 782 230 774 226 c 2
 103 -65 l 2
 96 -68 87 -73 79 -73 c 0
 70 -73 62 -67 62 -58 c 0
EndSplineSet
Validated: 1
Colour: ffff00
EndChar

StartChar: question
Encoding: 63 63 149
Width: 510
Flags: W
HStem: 0 148<198.815 275.801> 219 38<316.128 378.835> 680 36<393.716 525.669>
VStem: 161 152<37.2351 110.765> 200 120<467.748 553.156> 548 57<551.523 662.467>
LayerCount: 2
Fore
SplineSet
200 488 m 0xec
 200 558 316 716 469 716 c 0
 551 716 605 675 605 600 c 2
 605 592 l 1
 603 563 592 489 508 428 c 0
 398 348 319 329 316 276 c 0
 315 266 319 257 333 257 c 0
 354 257 390 274 407 310 c 0
 413 321 416 328 433 328 c 2
 439 328 l 2
 448 328 465 328 465 314 c 0
 465 277 398 219 327 219 c 0
 278 219 259 249 259 286 c 0
 259 323 278 366 303 391 c 0
 334 422 468 494 504 526 c 0
 528 548 548 578 548 616 c 0
 548 660 511 680 465 680 c 0
 431 680 353 666 284 560 c 1
 304 555 320 542 320 517 c 0
 320 476 281 444 246 444 c 0
 221 444 200 461 200 488 c 0xec
EndSplineSet
Refer: 142 46 N 1 0 0 1 78 0 2
Validated: 1
Colour: ffff00
EndChar

StartChar: at
Encoding: 64 64 150
Width: 884
Flags: W
HStem: -11 36<346.063 606.08> 51 38<723.983 812.922> 125 37<445.443 554.782 674.5 763.697> 533 37<553.729 659.868> 669 37<534.152 749.143>
VStem: 175 54<125.891 347.276> 323 101<189.637 356.399> 687 108<395.175 482.421> 863 56<344.97 568.172>
LayerCount: 2
Fore
SplineSet
175 227 m 2
 175 244 l 1
 180 347 231 480 329 575 c 0
 422 665 541 706 652 706 c 0
 814 705 919 621 919 469 c 2
 919 450 l 1
 915 368 855 125 712 125 c 0
 637 125 618 163 614 168 c 1
 572 141 533 125 482 125 c 0
 416 125 323 155 323 271 c 0
 323 409 436 570 609 570 c 0
 680 570 723 535 739 483 c 1
 746 483 753 484 761 484 c 2
 767 484 l 2
 782 484 795 482 795 470 c 0
 795 454 714 213 713 184 c 0
 712 167 718 162 727 162 c 0
 806 162 863 392 863 470 c 0
 863 629 743 669 647 669 c 0
 399 669 240 433 230 241 c 0
 230 236 229 230 229 225 c 0
 229 95 313 25 451 25 c 0
 626 25 728 89 771 89 c 2
 797 89 l 1
 811 88 815 82 815 76 c 0
 814 61 789 55 779 51 c 0
 661 9 546 -11 448 -11 c 0
 236 -11 175 112 175 227 c 2
424 250 m 2
 424 176 461 162 488 162 c 0
 549 162 603 211 615 232 c 0
 618 237 687 453 687 469 c 0
 687 495 656 533 608 533 c 0
 504 533 431 364 424 259 c 1
 424 250 l 2
EndSplineSet
Validated: 1
Colour: ffff00
EndChar

StartChar: bracketleft
Encoding: 91 91 151
Width: 275
Flags: W
HStem: -250 37<123 188.941> 713 37<402 479.985>
LayerCount: 2
Fore
SplineSet
17 -232 m 0
 17 -222 25 -201 29 -183 c 1
 303 719 l 2
 309 738 310 750 337 750 c 2
 454 750 l 2
 468 750 480 747 480 733 c 2
 480 732 l 2
 480 724 475 714 455 713 c 1
 402 713 l 1
 123 -213 l 1
 167 -213 l 1
 183 -214 189 -223 189 -231 c 0
 188 -249 171 -250 162 -250 c 2
 43 -250 l 2
 28 -250 17 -247 17 -232 c 0
EndSplineSet
Validated: 1
Colour: ffff00
EndChar

StartChar: backslash
Encoding: 92 92 152
Width: 510
Flags: W
VStem: 272 35<642.111 748.988>
LayerCount: 2
Fore
SplineSet
271 728 m 0
 272 740 279 749 289 749 c 0
 305 749 307 732 307 719 c 1
 389 -211 l 2
 390 -216 390 -222 390 -228 c 0
 389 -240 382 -249 372 -249 c 0
 355 -249 354 -232 353 -219 c 2
 272 711 l 2
 271 716 271 722 271 728 c 0
EndSplineSet
Validated: 1
Colour: ffff00
EndChar

StartChar: bracketright
Encoding: 93 93 153
Width: 275
Flags: W
HStem: -250 37<-53.9219 24> 713 37<237.057 304>
LayerCount: 2
Fore
SplineSet
-54 -233 m 0
 -54 -224 -50 -214 -28 -213 c 1
 24 -213 l 1
 304 713 l 1
 260 713 l 1
 243 714 237 722 237 731 c 0
 238 748 253 750 265 750 c 2
 384 750 l 2
 398 750 409 747 409 732 c 2
 409 730 l 2
 409 722 402 698 397 683 c 2
 125 -219 l 2
 118 -239 116 -250 90 -250 c 2
 -28 -250 l 2
 -42 -250 -54 -247 -54 -233 c 0
EndSplineSet
Validated: 1
Colour: ffff00
EndChar

StartChar: asciicircum
Encoding: 94 94 154
Width: 628
Flags: W
HStem: 548 83<453.488 523.291>
LayerCount: 2
Fore
SplineSet
249 489 m 0
 250 505 269 512 283 520 c 0
 488 628 491 631 500 631 c 0
 511 631 525 617 544 603 c 2
 656 516 l 2
 666 507 675 501 675 492 c 0
 675 479 655 456 642 456 c 0
 622 456 504 545 486 548 c 1
 485 548 l 2
 463 548 289 456 271 456 c 0
 252 456 249 485 249 489 c 0
EndSplineSet
Validated: 1
Colour: ffff00
EndChar

StartChar: underscore
Encoding: 95 95 155
Width: 804
Flags: W
HStem: -308 61<11.4531 653.643>
LayerCount: 2
Fore
SplineSet
10 -278 m 0
 10 -267 16 -247 49 -247 c 2
 617 -247 l 2
 652 -247 655 -270 655 -278 c 0
 655 -290 649 -308 616 -308 c 2
 51 -308 l 2
 29 -308 10 -302 10 -278 c 0
EndSplineSet
Validated: 1
Colour: ffff00
EndChar

StartChar: grave
Encoding: 96 96 156
Width: 510
Flags: W
HStem: 515 160
VStem: 286 186<549 607>
LayerCount: 2
Fore
SplineSet
286 607 m 0
 286 641 319 675 352 675 c 0
 374 675 388 659 399 646 c 0
 471 559 472 558 472 549 c 0
 471 537 452 515 438 515 c 0
 431 515 414 524 329 562 c 1
 308 573 286 581 286 607 c 0
EndSplineSet
Validated: 1
Colour: ffff00
EndChar

StartChar: braceleft
Encoding: 123 123 157
Width: 510
Flags: W
HStem: -250 37<300.386 378.874> 231 41<135.496 215.662> 706 44<554.543 668.08>
VStem: 163 106<-187.641 -58.6272> 244 106<70.1272 205.076>
LayerCount: 2
Fore
SplineSet
135 247 m 0xf0
 135 272 163 267 185 272 c 0
 237 283 287 316 309 363 c 0
 321 389 382 612 399 644 c 0
 438 717 540 750 647 750 c 0
 660 750 669 747 669 736 c 0
 669 706 643 717 601 706 c 1
 561 694 522 668 502 633 c 0
 485 603 430 388 412 351 c 0
 385 296 330 266 267 249 c 1
 305 234 350 210 350 154 c 0xe8
 350 110 269 -101 269 -142 c 0
 269 -184 306 -208 357 -213 c 0
 368 -214 379 -216 379 -229 c 0
 379 -248 363 -250 352 -250 c 0
 281 -250 163 -233 163 -145 c 0xf0
 163 -102 244 116 244 156 c 0xe8
 244 188 221 224 163 231 c 0
 151 232 135 231 135 247 c 0xf0
EndSplineSet
Validated: 1
Colour: ffff00
EndChar

StartChar: bar
Encoding: 124 124 158
Width: 274
Flags: W
LayerCount: 2
Fore
SplineSet
42 -221 m 0
 42 -210 46 -198 49 -186 c 2
 319 704 l 2
 325 724 330 749 356 749 c 0
 371 749 384 738 384 721 c 2
 384 719 l 2
 384 710 379 701 378 693 c 1
 103 -216 l 2
 94 -247 76 -249 69 -249 c 0
 54 -249 42 -238 42 -221 c 0
EndSplineSet
Validated: 1
Colour: ffff00
EndChar

StartChar: braceright
Encoding: 125 125 159
Width: 510
Flags: W
HStem: -250 44<-9.04671 106.392> 228 41<444.193 523.521> 713 37<281.126 361.167>
VStem: 311 106<293.87 429.517> 391 107<555.869 688.119>
LayerCount: 2
Fore
SplineSet
-10 -236 m 0xf0
 -10 -207 17 -217 59 -206 c 1
 156 -177 169 -107 172 -96 c 0
 246 146 242 135 248 147 c 0
 277 212 341 235 394 251 c 1
 357 263 311 289 311 345 c 0xf0
 311 387 391 605 391 643 c 0xe8
 391 691 342 710 304 713 c 0
 292 714 281 716 281 729 c 0
 281 749 299 750 308 750 c 2
 311 750 l 2xf0
 379 750 498 732 498 645 c 0xe8
 498 598 417 386 417 344 c 0
 417 296 459 274 497 269 c 0
 507 268 524 270 524 253 c 0
 524 228 497 233 475 228 c 0
 424 217 373 184 351 137 c 0
 346 126 278 -102 277 -104 c 0
 272 -120 263 -165 208 -201 c 0
 177 -222 117 -249 17 -250 c 1
 13 -250 l 2
 1 -250 -10 -248 -10 -236 c 0xf0
EndSplineSet
Validated: 1
Colour: ffff00
EndChar

StartChar: asciitilde
Encoding: 126 126 160
Width: 628
Flags: W
HStem: 575 58<539.669 658.145> 636 58<350.495 469.998>
LayerCount: 2
Fore
SplineSet
258 593 m 0
 259 604 275 617 289 628 c 0
 324 658 371 694 428 694 c 0
 505 694 544 633 607 633 c 0
 671 633 716 693 735 693 c 0
 744 693 751 684 751 676 c 0
 751 668 744 662 737 655 c 0
 707 628 648 575 582 575 c 0
 504 575 466 636 403 636 c 0
 338 636 294 576 274 576 c 0
 265 576 258 585 258 593 c 0
EndSplineSet
Validated: 1
Colour: ffff00
EndChar

StartChar: Yat
Encoding: 1122 1122 163
Width: 1052
VWidth: 487
Flags: W
HStem: -8 15<78.6999 184.147 744.997 846.009> 114 99<64.7333 105.089> 369 15<979.316 1040.61> 417 17<324 371.859> 588 16<315.477 352.774> 606 16<635.707 674.774>
VStem: -31 40<52.6576 145> 290 52<434.402 470.526> 353 47<548.609 587.575> 629 91<46.5 208.808> 651 52<509.959 583.564> 675 47<552.466 605.575> 821 15<98 148.754> 1060 29<232.653 345.447>
LayerCount: 2
Fore
SplineSet
-31 118 m 0xff9c
 -31 172 4 213 58 213 c 0
 90 213 117 190 117 158 c 0
 117 137 108 123 89 114 c 1
 37 99 l 2
 18 93 9 82 9 67 c 0
 9 46 25 31 58 20 c 0
 82 12 107 7 133 7 c 0
 180 7 220 23 253 56 c 0
 280 83 315 141 356 232 c 0
 412 355 475 460 546 547 c 1
 487 497 436 460 394 436 c 0
 372 424 352 417 336 417 c 0
 312 417 290 437 290 461 c 0
 290 481 300 505 321 534 c 0
 342 563 353 578 353 579 c 0
 353 586 348 588 340 588 c 0
 300 588 234 532 143 417 c 1
 130 426 l 1
 226 544 299 604 350 604 c 0
 378 604 400 584 400 556 c 0
 400 533 390 508 371 481 c 0
 352 454 342 440 342 439 c 0
 342 436 344 434 349 434 c 0
 367 434 410 460 477 511 c 0
 551 567 611 621 657 673 c 1
 669 664 l 1
 655 648 641 631 629 611 c 1xffcc
 645 619 659 622 672 622 c 0
 700 622 722 602 722 574 c 0xff9c
 722 563 720 553 716 540 c 0
 713 530 703 516 703 515 c 0xffac
 703 512 707 509 710 510 c 0
 760 522 866 621 912 673 c 1
 924 664 l 1
 879 613 843 544 816 456 c 2
 749 239 l 1
 737 195 720 91 720 68 c 0
 720 25 742 4 786 4 c 0
 876 4 969 65 1042 224 c 0
 1056 255 1060 293 1060 317 c 0
 1060 352 1044 369 1012 369 c 0
 979 369 931 340 898 299 c 0
 862 255 856 217 846 164 c 0
 844 153 840 131 836 98 c 1
 821 98 l 1
 827 180 836 238 884 309 c 0
 916 357 971 384 1012 384 c 0
 1063 384 1089 338 1089 284 c 0
 1089 258 1078 205 1040 152 c 0
 967 51 869 -11 787 -11 c 0
 685 -11 629 81 629 189 c 0xffcc
 629 291 713 450 801 547 c 1
 779 531 775 522 755 512 c 0
 734 501 713 493 697 493 c 0
 673 493 651 513 651 537 c 0xffac
 651 549 655 560 660 573 c 0
 664 583 675 596 675 597 c 0
 675 604 670 606 662 606 c 0
 649 606 634 600 616 589 c 1
 595 551 577 506 561 456 c 2
 494 239 l 1
 439 104 320 -8 143 -8 c 0
 49 -8 -31 31 -31 118 c 0xff9c
EndSplineSet
Validated: 1
EndChar

StartChar: yat
Encoding: 1123 1123 164
Width: 606
VWidth: 487
Flags: W
HStem: -7 18<426.402 487.213> 181 18<471.095 536.084> 326 21<168.945 218.499 384.896 421.894>
VStem: 191 74<253.353 325.874> 329 79<42.1699 124.942> 422 62<266.638 325.373> 550 34<75.554 169.559>
LayerCount: 2
Fore
SplineSet
0 156 m 1
 55 228 85 273 139 317 c 0
 164 337 186 347 207 347 c 0
 246 347 265 326 265 283 c 0
 265 257 257 226 241 190 c 0
 235 176 219 148 195 104 c 1
 255 183 270 225 331 291 c 24
 358 321 389 347 418 347 c 0
 459 347 484 313 484 271 c 0
 484 247 482 227 471 198 c 1
 476 198 482 199 487 199 c 0
 547 199 584 172 584 119 c 0
 584 42 505 -7 451 -7 c 0
 383 -7 329 41 329 108 c 0
 329 128 332 148 343 171 c 24
 364 216 355 188 409 280 c 0
 413 286 422 304 422 315 c 0
 422 321 419 326 411 326 c 0
 358 326 292 219 145 7 c 1
 10 -7 l 1
 130 172 191 280 191 317 c 0
 191 323 189 326 184 326 c 0
 160 326 103 267 13 148 c 1
 0 156 l 1
408 44 m 2
 408 29 433 11 454 11 c 0
 500 11 536 53 549 128 c 0
 550 132 550 136 550 140 c 0
 550 167 533 181 510 181 c 2
 500 181 l 2
 487 181 473 180 458 175 c 1
 425 117 l 2
 410 91 408 75 408 59 c 2
 408 44 l 2
EndSplineSet
Validated: 1
EndChar

StartChar: Fita
Encoding: 1138 1138 165
Width: 581
VWidth: 487
Flags: W
HStem: -11 15<212.675 300.994> 277 17<428 475.59> 390 16<385.331 417.774> 570 15<590 617.975> 691 14<567.516 655.281>
VStem: 92 91<46.5 240> 394 52<294.402 367.564> 418 47<336.466 389.575> 638 29<437.39 546.447> 710 18<575.388 649.577>
LayerCount: 2
Fore
SplineSet
92 189 m 0xfec0
 92 291 136 390 224 487 c 0
 310 581 465 705 617 705 c 0
 673 705 728 670 728 618 c 0
 728 603 723 583 713 560 c 1
 697 565 l 1
 706 585 710 603 710 617 c 0
 710 663 664 691 616 691 c 0
 556 691 495 659 430 597 c 0
 383 552 337 485 292 397 c 0
 279 372 268 348 257 324 c 1
 312 365 389 406 415 406 c 0
 443 406 465 386 465 358 c 0xfdc0
 465 347 463 337 459 324 c 0
 456 314 446 300 446 299 c 0
 446 296 448 294 453 294 c 0
 469 294 545 340 606 385 c 1
 627 439 638 483 638 518 c 0
 638 553 622 570 590 570 c 1
 590 585 l 1
 641 585 667 539 667 485 c 0
 667 403 625 309 544 201 c 0
 438 60 340 -11 250 -11 c 0
 148 -11 92 81 92 189 c 0xfec0
183 68 m 0
 183 25 205 4 249 4 c 0
 360 4 464 98 561 286 c 0
 574 311 585 335 595 357 c 1
 567 338 514 306 498 296 c 1
 476 284 456 277 440 277 c 0
 416 277 394 297 394 321 c 0xfec0
 394 333 398 344 403 357 c 0
 407 367 418 380 418 381 c 0
 418 388 413 390 405 390 c 0
 382 390 293 339 245 297 c 1
 227 253 212 210 201 169 c 0
 189 125 183 91 183 68 c 0
EndSplineSet
Validated: 1
EndChar

StartChar: fita
Encoding: 1139 1139 166
Width: 386
VWidth: 487
Flags: W
HStem: -7 18<116.214 175.204> 44 17<264.081 298.236> 131 18<244.5 289.168> 206 21<196.669 249> 329 18<264.046 316.329>
VStem: 19 93<26.5 123.665> 212 54<149.138 206> 331 34<206.538 315.024>
LayerCount: 2
Fore
SplineSet
0 156 m 1
 91 283 181 347 269 347 c 0
 333 347 365 316 365 255 c 0
 365 195 331 132 264 64 c 1
 267 61 269 61 274 61 c 0
 299 61 338 95 391 162 c 1
 405 154 l 1
 377 119 357 95 345 83 c 0
 317 57 291 44 265 44 c 0
 258 44 252 45 246 47 c 1
 205 11 166 -7 131 -7 c 0
 67 -7 19 45 19 109 c 0
 19 127 24 150 35 177 c 1
 13 148 l 1
 0 156 l 1
112 34 m 0
 112 19 121 11 139 11 c 0
 168 11 198 25 230 55 c 1
 226 61 225 66 225 72 c 0
 225 91 234 101 255 101 c 0
 257 101 260 101 263 100 c 1
 271 112 278 124 285 136 c 1
 274 133 257 131 248 131 c 0
 241 131 235 132 229 136 c 0
 212 147 212 154 212 175 c 0
 212 190 214 203 214 204 c 0
 214 206 213 206 211 206 c 0
 200 206 177 191 153 168 c 1
 126 111 112 67 112 34 c 0
169 200 m 1
 190 215 214 227 234 227 c 0
 264 227 266 223 266 198 c 2
 266 188 l 2
 266 171 264 162 264 160 c 0
 264 155 270 149 280 149 c 0
 284 149 291 154 294 154 c 1
 319 202 328 267 331 276 c 1
 331 311 318 329 292 329 c 0
 255 329 212 280 169 200 c 1
EndSplineSet
Validated: 1
EndChar

StartChar: numero
Encoding: 8470 8470 169
Width: 1190
VWidth: 0
Flags: W
HStem: -9 15<56.8127 157.676> 28 61<750.845 1174.1> 106 102<9.75811 112.525> 143 18<968.214 1027.2> 194 17<1116.08 1150.24> 479 18<1115.97 1168.33> 542 54<970.091 1055.44> 682 20G<753.5 759.5>
VStem: -32 34<50.801 134.5> 871 93<176.5 274.016> 1183 34<347.968 465.024>
LayerCount: 2
Fore
SplineSet
-32 108 m 0xe7e0
 -32 161 13 208 66 208 c 0
 98 208 127 182 127 150 c 0
 127 131 118 116 100 106 c 0
 97 104 78 102 41 98 c 0
 15 95 2 84 2 65 c 0
 2 26 61 6 105 6 c 0
 152 6 196 22 236 55 c 0
 271 84 323 148 391 251 c 1
 530 471 l 2
 589 564 655 636 727 687 c 0
 742 697 751 702 756 702 c 0
 763 702 766 699 766 693 c 0
 766 689 765 684 762 678 c 0
 753 659 745 637 740 615 c 0
 735 595 731 551 725 481 c 2
 701 183 l 1
 799 350 l 2
 813 375 836 410 867 458 c 1
 929 550 982 596 1025 596 c 0
 1045 596 1056 587 1056 570 c 0
 1056 551 1044 542 1021 542 c 0
 1014 542 991 543 984 543 c 0
 967 543 950 535 931 516 c 0
 913 499 886 460 849 401 c 0
 812 342 762 257 700 144 c 1
 693 48 l 1
 563 -11 l 1
 574 138 582 254 600 364 c 0
 613 441 630 501 650 546 c 0
 667 582 692 623 725 666 c 1
 656 613 596 546 546 466 c 0
 531 443 502 391 457 312 c 0
 402 217 355 147 316 104 c 0
 248 28 179 -9 106 -9 c 0
 32 -9 -32 37 -32 108 c 0xe7e0
750 58 m 0
 750 69 753 89 775 89 c 2
 1150 89 l 2
 1173 89 1175 66 1175 58 c 0
 1175 46 1172 28 1150 28 c 2
 777 28 l 2
 762 28 750 34 750 58 c 0
852 306 m 1
 943 433 1033 497 1121 497 c 0
 1185 497 1217 466 1217 405 c 0
 1217 345 1183 282 1116 214 c 1
 1119 211 1121 211 1126 211 c 0
 1151 211 1190 245 1243 312 c 1
 1257 304 l 1
 1229 269 1209 245 1197 233 c 0
 1169 207 1143 194 1117 194 c 0
 1110 194 1104 195 1098 197 c 1
 1057 161 1018 143 983 143 c 0xdfe0
 919 143 871 195 871 259 c 0
 871 277 876 300 887 327 c 1
 865 298 l 1
 852 306 l 1
964 184 m 0
 964 169 973 161 991 161 c 0
 1020 161 1050 175 1082 205 c 1
 1078 211 1077 216 1077 222 c 0
 1077 241 1086 251 1107 251 c 0
 1109 251 1112 251 1115 250 c 1
 1161 322 1183 381 1183 426 c 0
 1183 461 1170 479 1144 479 c 0
 1109 479 1069 438 1025 357 c 0
 984 281 964 224 964 184 c 0
EndSplineSet
Validated: 1
Colour: ffffff
EndChar

StartChar: quoteleft
Encoding: 8216 8216 171
Width: 275
Flags: W
HStem: 352 148<231.659 304.069>
VStem: 184 158<389.468 480.925>
LayerCount: 2
Fore
SplineSet
184 428 m 2
 184 435 l 1
 187 489 230 598 337 676 c 0
 357 690 363 693 369 693 c 0
 379 693 385 683 385 676 c 0
 385 665 372 658 367 654 c 0
 307 612 260 557 231 483 c 1
 245 492 263 500 284 500 c 0
 318 500 342 480 342 446 c 0
 342 401 300 352 247 352 c 0
 202 352 184 388 184 428 c 2
EndSplineSet
Validated: 1
Colour: ffff00
EndChar

StartChar: quoteright
Encoding: 8217 8217 172
Width: 275
Flags: W
HStem: 547 147<284.068 357.387>
VStem: 248 157<564.641 657.811>
LayerCount: 2
Fore
SplineSet
204 371 m 0
 204 382 218 389 223 393 c 0
 281 433 333 493 358 563 c 1
 345 555 327 547 306 547 c 0
 269 547 248 570 248 601 c 2
 248 605 l 1
 250 645 287 694 342 694 c 0
 386 694 405 661 405 619 c 2
 405 611 l 1
 402 563 363 452 251 371 c 1
 232 356 227 354 221 354 c 0
 211 354 204 364 204 371 c 0
EndSplineSet
Validated: 1
Colour: ffff00
EndChar

StartChar: quotereversed
Encoding: 8219 8219 174
Width: 275
Flags: W
HStem: 547 147<317.346 383.541>
VStem: 230 41<417.188 559.249>
LayerCount: 2
Fore
SplineSet
230 483 m 0
 230 487 230 491 230 495 c 0
 236 606 308 694 379 694 c 0
 412 694 430 675 430 648 c 0
 430 596 375 547 322 547 c 0
 305 547 293 551 281 563 c 1
 276 545 273 528 272 511 c 0
 272 507 271 503 271 499 c 0
 271 420 314 393 314 377 c 0
 314 376 313 374 313 373 c 0
 307 363 293 354 284 354 c 0
 273 354 230 402 230 483 c 0
EndSplineSet
Validated: 1
Colour: ffff00
EndChar

StartChar: guilsinglleft
Encoding: 8249 8249 179
Width: 452
Flags: W
VStem: 180 299
LayerCount: 2
Fore
SplineSet
180 235 m 0
 180 262 287 280 431 447 c 0
 445 463 452 472 464 472 c 0
 472 472 479 468 479 459 c 2
 479 458 l 1
 478 441 388 313 288 234 c 1
 336 147 345 66 345 30 c 2
 345 10 l 1
 342 4 334 1 327 1 c 0
 291 1 322 100 198 212 c 0
 191 218 180 225 180 235 c 0
EndSplineSet
Validated: 1
Colour: ffff00
EndChar

StartChar: guilsinglright
Encoding: 8250 8250 180
Width: 452
Flags: W
VStem: 113 299
LayerCount: 2
Fore
SplineSet
113 14 m 0
 113 31 200 154 303 238 c 1
 254 336 246 404 246 438 c 0
 246 442 247 446 247 449 c 0
 247 466 252 472 265 472 c 0
 282 472 284 453 285 450 c 0
 319 299 412 257 412 236 c 1
 413 236 l 1
 412 226 399 220 390 215 c 0
 197 105 161 1 129 1 c 0
 121 1 113 5 113 14 c 0
EndSplineSet
Validated: 1
Colour: ffff00
EndChar

StartChar: guillemotleft
Encoding: 171 171 181
Width: 570
Flags: W
LayerCount: 2
Fore
SplineSet
173 221 m 0
 173 235 183 236 251 279 c 4
 308 315 363 353 417 394 c 5
 460 428 l 6
 468 434 479 444 490 444 c 4
 499 444 507 438 507 430 c 4
 507 426 504 422 501 419 c 4
 495 410 486 402 479 395 c 6
 438 355 l 5
 378 300 l 5
 340 268 302 235 282 220 c 5
 320 161 352 98 379 29 c 4
 380 24 382 19 381 12 c 4
 379 4 371 1 364 1 c 4
 347.128 1 342.921 14.6944 336 23 c 5
 311 60 l 5
 283 97 253 132 221 166 c 5
 184 203 l 6
 179 208 173 213 173 221 c 0
365 221 m 0
 365 239 404 251 524 353 c 4
 569 392 574 402 590 402 c 4
 598 402 605 398 605 390 c 2
 605 389 l 5
 604 376 525 288 449 220 c 5
 460 196 505 90 505 58 c 2
 505 56 l 6
 505 48 496 42 488 42 c 4
 464 42 459 88 395 174 c 4
 373 204 365 211 365 221 c 0
EndSplineSet
Validated: 1
Colour: ffff00
EndChar

StartChar: guillemotright
Encoding: 187 187 182
Width: 570
Flags: W
LayerCount: 2
Fore
SplineSet
97 55 m 0
 97 66 116 86 144 115 c 0
 190 164 215 191 254 225 c 1
 232 270 214 317 200 369 c 0
 198 374 197 379 197 383 c 0
 197 394 203 402 214 402 c 0
 229 402 234 389 239 379 c 2
 254 351 l 2
 282 300 304 275 331 239 c 0
 335 235 338 230 338 224 c 0
 338 223 338 222 338 221 c 0
 337 213 329 208 323 203 c 2
 282 174 l 1
 197 111 159 73 145 62 c 0
 136 54 125 42 112 42 c 0
 104 42 97 46 97 55 c 0
196 13 m 0
 196 27 229 53 265 89 c 1
 325 144 l 1
 366 179 388 199 421 224 c 1
 400 257 l 1
 371 307 346 359 325 416 c 0
 323 420 323 424 323 428 c 0
 323 437 327 444 338 444 c 0
 355 444 359 430 366 420 c 2
 392 384 l 2
 419 347 450 312 481 279 c 1
 519 241 l 2
 524 236 530 231 530 223 c 2
 530 222 l 2
 530 217 526 214 524 211 c 0
 518 205 495 193 452 165 c 0
 395 129 340 91 287 51 c 2
 242 17 l 2
 234 11 225 2 215 1 c 1
 212 1 l 2
 204 1 196 4 196 13 c 0
EndSplineSet
Validated: 1
Colour: ffff00
EndChar

StartChar: emdash
Encoding: 8212 8212 183
Width: 1182
Flags: W
HStem: 257 36<130.012 1186.99>
LayerCount: 2
Fore
SplineSet
130 275 m 0
 130 282 134 293 157 293 c 2
 1160 293 l 2
 1183 293 1187 282 1187 275 c 0
 1187 259 1171 257 1160 257 c 2
 171 257 l 2
 168 257 164 256 160 256 c 0
 146 256 130 259 130 275 c 0
EndSplineSet
Validated: 1
Colour: ffff00
EndChar

StartChar: dieresis
Encoding: 168 168 202
Width: 511
Flags: W
HStem: 539 147<282.282 366.718 447.867 532.718>
VStem: 249 151<572.163 652.659> 415 151<572.163 652.659>
LayerCount: 2
Fore
SplineSet
249 599 m 0
 249 643 291 686 338 686 c 0
 375 686 400 659 400 625 c 0
 400 582 358 539 311 539 c 0
 274 539 249 565 249 599 c 0
415 599 m 0
 415 643 456 686 504 686 c 0
 541 686 566 659 566 625 c 0
 566 582 524 539 477 539 c 0
 443 539 415 563 415 599 c 0
EndSplineSet
Validated: 1
EndChar

StartChar: acute
Encoding: 180 180 203
Width: 511
Flags: W
HStem: 562 113<506.422 573.866>
VStem: 369 229
LayerCount: 2
Fore
SplineSet
369 548 m 0
 369 560 374 562 418 593 c 0
 503 652 529 675 555 675 c 0
 582 675 598 654 598 631 c 0
 598 630 598 629 598 628 c 0
 596 581 544 568 528 562 c 0
 406 518 397 515 391 515 c 0
 373 515 369 543 369 548 c 0
EndSplineSet
Validated: 1
Colour: ffff00
EndChar

StartChar: cyrbreve
Encoding: 63188 63188 204
Width: 431
Flags: W
HStem: 478 17<302.083 394.598>
VStem: 249 52<503.679 566>
LayerCount: 2
Fore
SplineSet
249 552 m 0
 249 580 269 602 297 602 c 0
 320 602 343 583 343 560 c 0
 343 540 334 526 316 518 c 0
 306 514 301 510 301 508 c 0
 301 499 309 495 325 495 c 0
 360 495 442 496 530 587 c 1
 544 574 l 1
 479 510 414 478 349 478 c 0
 296 478 249 503 249 552 c 0
EndSplineSet
Validated: 1
EndChar

StartChar: Acute
Encoding: 63177 63177 205
Width: 511
Flags: W
HStem: 514 136
VStem: 356 233
LayerCount: 2
Fore
SplineSet
356 543 m 0
 356 563 369 568 383 575 c 0
 527 650 534 650 546 650 c 0
 573 650 589 629 589 606 c 0
 589 605 589 604 589 603 c 0
 588 586 578 569 564 558 c 0
 542 540 515 541 394 517 c 0
 388 516 382 514 377 514 c 0
 360 514 356 530 356 543 c 0
EndSplineSet
Validated: 1
Colour: ffff00
EndChar

StartChar: dotlessi
Encoding: 305 305 209
Width: 278
VWidth: 487
Flags: W
HStem: -7 19<85 149.252> 328 20G<162 230> 328 20G<162 230>
VStem: 36 73<12.5628 76.9842>
LayerCount: 2
Fore
SplineSet
0 157 m 1xb0
 57 232 111 294 162 342 c 1
 290 348 l 1
 170 155 109 47 109 21 c 0
 109 15 113 12 121 12 c 0
 155 12 206 60 276 154 c 1
 283 163 l 1
 296 154 l 1
 238 81 l 1
 202 38 166 -7 105 -7 c 0
 65 -7 36 27 36 68 c 0
 36 98 57 148 98 219 c 2
 151 311 l 1
 115 277 69 224 14 149 c 1
 0 157 l 1xb0
EndSplineSet
Validated: 1
EndChar

StartChar: Ecyril
Encoding: 1028 1028 210
Width: 626
VWidth: 487
Flags: W
HStem: -9 14<302.066 424.383> 292 16<474.226 522.068> 404 17<394.369 464> 442 14<567.539 619.632> 684 20<524.002 605.231>
VStem: 86 114<106.191 256.878> 427 47<308.425 361.534> 446 52<330.436 403.598> 519 27<472.222 556.46> 682 16<529.289 615.341>
LayerCount: 2
Fore
SplineSet
200 129 m 0xfdc0
 200 47 273 5 358 5 c 0
 460 5 612 61 688 163 c 1
 702 154 l 1
 620 48 471 -9 366 -9 c 0
 302 -9 208 8 163 43 c 0
 112 83 86 132 86 192 c 0
 86 520 421 704 535 704 c 0
 630 704 698 662 698 572 c 0
 698 507 651 442 588 442 c 0
 546 442 519 476 519 518 c 0
 519 557 545 592 596 623 c 1
 605 612 l 1
 565 578 546 542 546 504 c 0
 546 478 564 456 590 456 c 0
 643 456 682 517 682 573 c 0
 682 635 638 684 576 684 c 0
 530 684 489 663 452 622 c 0
 429 596 331 495 264 364 c 1
 287 379 330 392 351 402 c 0
 374 412 436 421 452 421 c 0
 476 421 498 401 498 377 c 0xfdc0
 498 365 494 354 489 341 c 0
 485 331 474 318 474 317 c 0
 474 310 479 308 487 308 c 0
 512 308 586 329 630 372 c 1
 641 363 l 1
 591 315 509 292 477 292 c 0
 449 292 427 312 427 340 c 0xfec0
 427 351 429 361 433 374 c 0
 436 384 446 398 446 399 c 0
 446 402 444 404 439 404 c 0
 422 404 312 380 249 333 c 1
 220 269 200 199 200 129 c 0xfdc0
EndSplineSet
Validated: 1
EndChar

StartChar: ecyril
Encoding: 1108 1108 211
Width: 363
VWidth: 487
Flags: W
HStem: -7 18<116.109 198.708> 121 21<212 263.923> 199 18<177.269 216.5> 330 17<224.74 319.074>
VStem: 17 93<26.5 121.76> 195 54<142 198.926> 321 52<259 321.045>
LayerCount: 2
Fore
SplineSet
0 156 m 1
 90 283 181 347 272 347 c 0
 324 347 373 322 373 273 c 0
 373 245 353 223 325 223 c 0
 301 223 279 241 279 265 c 0
 279 285 288 299 306 307 c 0
 316 311 321 314 321 316 c 0
 321 325 313 330 297 330 c 0
 263 330 222 290 177 212 c 1
 188 215 204 217 213 217 c 0
 220 217 226 216 232 212 c 0
 248 201 249 195 249 176 c 2
 249 173 l 2
 249 158 247 145 247 144 c 0
 247 142 248 142 250 142 c 0
 262 142 282 156 309 184 c 1
 323 175 l 1
 299 151 259 121 227 121 c 0
 197 121 195 125 195 150 c 2
 195 160 l 2
 195 177 197 186 197 188 c 0
 197 193 191 199 181 199 c 0
 177 199 172 198 168 196 c 1
 129 126 110 72 110 34 c 0
 110 19 121 11 142 11 c 0
 188 11 230 27 271 59 c 0
 297 79 330 113 368 162 c 1
 380 154 l 1
 338 100 305 62 279 42 c 0
 237 9 190 -7 139 -7 c 0
 71 -7 17 41 17 108 c 0
 17 128 22 149 31 171 c 1
 14 148 l 1
 0 156 l 1
EndSplineSet
Validated: 1
EndChar

StartChar: Geupturn
Encoding: 1168 1168 212
Width: 672
VWidth: 487
Flags: W
HStem: -10 16<152.062 225.684> 593 73<737.984 906.755> 680 20G<667 698>
VStem: 43 42<55.5371 147.5>
LayerCount: 2
Fore
SplineSet
43 122 m 0
 43 173 78 215 129 215 c 0
 161 215 193 190 193 160 c 0
 193 139 184 124 165 115 c 1
 113 98 l 2
 94 92 85 82 85 69 c 0
 85 50 100 34 131 21 c 0
 156 11 180 6 203 6 c 0
 231 6 264 46 283 74 c 0
 297 95 318 138 331 172 c 0
 355 235 384 417 431 503 c 1
 504 650 568 669 606 684 c 0
 615 688 652 700 682 700 c 2
 683 700 l 10
 713 700 726 689 759 682 c 0
 810 671 849 666 875 666 c 0
 910 666 935 675 952 694 c 1
 964 686 l 1
 937 624 891 593 827 593 c 0
 798 593 755 605 699 630 c 0
 674 641 651 650 629 657 c 1
 605 636 579 609 569 583 c 0
 563 566 552 544 538 490 c 0
 517 411 492 219 476 176 c 0
 451 111 401 55 362 26 c 0
 327 0 265 -10 213 -10 c 0
 123 -10 43 37 43 122 c 0
EndSplineSet
Validated: 1
EndChar

StartChar: geupturn
Encoding: 1169 1169 213
Width: 329
VWidth: 487
Flags: W
HStem: 0 17<18.0826 81.2567> 267 74<260.984 373.6> 281 60<227.243 312.432>
VStem: -35 52<25.6786 88>
LayerCount: 2
Fore
SplineSet
112 51 m 0xb0
 150 95 150 159 168 229 c 16
 179 274 190 300 231 322 c 0
 261 338 277 341 294 341 c 0
 308 341 321 340 336 340 c 2
 341 340 l 2
 375 340 381 349 398 368 c 1
 410 360 l 1
 383 298 377 267 313 267 c 0xd0
 301 267 281 281 260 281 c 0
 253 281 247 279 241 276 c 0
 207 255 194 228 185 189 c 2
 185 189 176 136 169 118 c 0
 157 86 145 59 118 30 c 0
 103 14 81 0 65 0 c 0
 12 0 -35 25 -35 74 c 0
 -35 102 -15 124 13 124 c 0
 36 124 59 105 59 82 c 0
 59 62 50 48 32 40 c 0
 22 36 17 32 17 30 c 0
 17 21 25 17 41 17 c 0
 69 17 88 23 112 51 c 0xb0
EndSplineSet
Validated: 1
EndChar

